<?xml version="1.0" standalone="no"?>
<!DOCTYPE svg PUBLIC "-//W3C//DTD SVG 20010904//EN"
 "http://www.w3.org/TR/2001/REC-SVG-20010904/DTD/svg10.dtd">
<svg version="1.0" xmlns="http://www.w3.org/2000/svg"
 width="2428.000000pt" height="2428.000000pt" viewBox="0 0 2428.000000 2428.000000"
 preserveAspectRatio="xMidYMid meet">
<metadata>
Created by potrace 1.11, written by Peter Selinger 2001-2013
</metadata>
<g transform="translate(0.000000,2428.000000) scale(0.100000,-0.100000)"
fill="#000000" stroke="none">
<path d="M11558 24275 c-2 -1 -75 -6 -163 -9 -88 -4 -180 -9 -205 -11 -25 -2
-85 -6 -135 -10 -107 -7 -189 -14 -230 -20 -16 -2 -64 -7 -105 -10 -41 -3 -86
-8 -100 -10 -14 -2 -50 -7 -80 -10 -74 -8 -118 -13 -160 -20 -19 -2 -55 -7
-80 -10 -25 -3 -56 -8 -70 -10 -14 -3 -43 -7 -65 -10 -22 -2 -51 -7 -65 -10
-13 -2 -42 -7 -65 -10 -40 -6 -137 -22 -185 -31 -14 -2 -61 -11 -105 -19 -44
-8 -91 -17 -105 -20 -14 -3 -38 -8 -55 -11 -207 -37 -750 -172 -1060 -264
-430 -127 -1028 -345 -1365 -497 -30 -14 -68 -31 -85 -38 -16 -7 -70 -32 -118
-54 -49 -23 -91 -41 -93 -41 -10 0 -526 -260 -634 -319 -271 -149 -558 -318
-755 -445 -194 -125 -512 -341 -552 -376 -7 -5 -16 -10 -22 -10 -5 0 -11 -4
-13 -8 -1 -5 -54 -46 -116 -91 -62 -45 -121 -88 -130 -96 -9 -7 -109 -87 -222
-177 -113 -90 -218 -175 -235 -189 -16 -15 -66 -57 -110 -95 -44 -38 -98 -85
-120 -105 -22 -19 -92 -82 -155 -139 -121 -110 -601 -586 -711 -706 -153 -167
-284 -315 -356 -404 -12 -14 -40 -47 -64 -75 -36 -42 -202 -249 -303 -377 -30
-38 -212 -283 -234 -315 -7 -10 -35 -49 -62 -88 -228 -320 -559 -851 -727
-1164 -21 -40 -53 -100 -72 -134 -41 -76 -281 -555 -281 -561 0 -3 -18 -44
-41 -93 -261 -561 -506 -1246 -683 -1910 -50 -187 -53 -214 -31 -316 38 -182
184 -353 356 -416 110 -41 39 -40 2679 -38 l2525 2 55 21 c77 30 127 59 187
110 71 61 112 120 183 265 251 511 453 842 736 1205 269 346 604 695 909 949
33 28 62 53 65 56 9 9 263 206 315 243 126 89 370 250 453 298 202 118 624
338 646 338 3 0 33 13 68 29 298 138 947 346 1203 387 22 3 42 7 45 9 3 2 26
6 50 10 25 3 61 10 80 15 31 8 112 21 220 36 19 2 42 6 50 9 8 2 44 7 80 10
36 4 79 9 95 11 17 2 62 6 100 9 39 4 86 8 105 10 219 22 748 22 990 0 25 -2
77 -7 116 -10 38 -3 79 -7 90 -9 10 -2 48 -7 84 -10 36 -4 88 -11 115 -16 28
-5 68 -11 90 -14 22 -3 54 -8 70 -11 352 -63 552 -113 865 -213 96 -31 177
-56 180 -57 3 -1 12 -5 20 -8 8 -3 42 -16 75 -27 63 -22 77 -28 135 -53 19 -9
58 -24 85 -35 217 -86 558 -257 810 -407 118 -70 263 -162 275 -175 3 -3 17
-12 32 -20 55 -31 490 -358 518 -389 3 -3 37 -33 75 -66 247 -211 564 -538
781 -805 185 -228 430 -583 547 -790 10 -19 36 -64 57 -100 91 -156 231 -444
317 -650 24 -58 48 -114 53 -125 50 -108 230 -675 255 -807 2 -11 7 -28 10
-38 3 -10 8 -29 10 -41 3 -13 14 -68 26 -123 27 -130 30 -147 34 -171 1 -11
10 -63 18 -115 17 -104 22 -140 32 -215 3 -27 8 -65 11 -83 2 -19 7 -66 10
-105 3 -40 7 -88 10 -107 9 -85 18 -332 18 -520 0 -278 -14 -512 -44 -750 -5
-41 -12 -93 -14 -115 -8 -66 -44 -275 -60 -350 -8 -39 -17 -82 -20 -95 -54
-288 -223 -834 -332 -1077 -8 -17 -14 -33 -14 -36 0 -2 -12 -31 -27 -63 -15
-33 -28 -61 -28 -64 -3 -17 -155 -325 -225 -455 -111 -206 -335 -562 -439
-696 -20 -25 -43 -56 -51 -69 -8 -12 -20 -28 -25 -34 -6 -6 -42 -52 -82 -103
-238 -304 -537 -615 -843 -879 -342 -295 -689 -534 -1121 -772 -422 -233
-1017 -461 -1507 -577 -199 -48 -475 -99 -642 -120 -30 -4 -62 -9 -70 -10 -13
-2 -59 -7 -195 -20 -41 -4 -193 -15 -285 -20 -94 -6 -521 -5 -615 0 -38 2
-108 7 -155 11 -47 3 -103 7 -125 9 -36 3 -73 7 -175 20 -19 3 -57 7 -85 10
-27 3 -57 8 -65 10 -8 2 -35 7 -60 10 -25 3 -71 10 -102 16 -32 6 -70 12 -85
15 -70 11 -273 58 -423 96 -302 77 -634 192 -960 334 -80 35 -435 212 -510
255 -334 191 -671 417 -876 588 -17 14 -42 35 -55 45 -456 364 -968 931 -1289
1428 -33 51 -63 98 -68 103 -10 14 -139 232 -192 325 -23 41 -89 168 -146 283
-57 114 -117 227 -133 251 -75 109 -206 194 -331 216 -73 12 -5067 10 -5108
-2 -231 -69 -388 -226 -440 -438 -2 -8 -6 -59 -9 -112 -5 -84 -3 -102 15 -140
16 -33 83 -262 117 -398 27 -106 177 -563 257 -780 42 -116 136 -358 152 -395
8 -16 35 -82 61 -145 161 -387 402 -879 616 -1257 264 -469 569 -932 898
-1368 160 -211 397 -505 481 -595 8 -8 40 -45 70 -80 30 -36 71 -83 91 -105
20 -22 49 -53 64 -70 212 -235 646 -668 845 -841 24 -21 51 -46 60 -54 82 -77
364 -315 511 -432 258 -204 486 -372 759 -558 204 -140 691 -441 819 -507 24
-12 48 -27 55 -32 6 -5 56 -32 111 -61 55 -29 105 -56 110 -60 12 -10 531
-270 538 -270 3 0 52 -22 109 -48 318 -150 741 -318 1123 -448 196 -67 547
-175 675 -208 30 -7 80 -21 111 -30 31 -9 65 -18 75 -20 11 -3 73 -18 139 -35
134 -34 435 -100 595 -130 123 -24 122 -24 310 -55 125 -21 181 -30 330 -51
14 -2 43 -6 65 -9 22 -3 63 -8 90 -11 28 -3 61 -7 75 -9 14 -2 57 -7 95 -11
39 -4 84 -8 100 -10 46 -6 128 -13 350 -31 424 -33 1260 -38 1605 -9 25 2 90
6 145 10 100 6 161 11 245 20 25 2 74 7 110 10 36 3 81 8 100 10 19 3 94 12
165 20 145 18 188 24 225 30 14 3 43 7 65 10 204 29 519 86 775 141 167 36
544 127 590 143 14 5 63 19 110 31 47 12 92 25 100 28 8 3 20 6 25 7 19 5 220
66 325 100 289 94 730 257 945 350 17 7 93 40 170 74 77 33 168 74 203 90 34
17 65 31 67 31 16 0 470 230 700 354 821 444 1663 1051 2420 1746 178 163 660
656 826 845 76 86 104 117 114 129 6 6 44 52 85 101 41 50 77 92 80 95 3 3 41
50 85 105 44 55 82 102 85 105 3 3 18 23 35 45 16 22 32 42 35 45 3 3 39 50
80 105 41 55 79 105 83 110 11 13 179 247 195 271 7 11 34 49 60 86 160 227
432 667 603 978 109 197 131 240 220 415 83 163 279 578 279 590 0 2 12 30 26
62 15 32 33 74 41 93 8 19 18 44 23 55 5 11 23 56 40 100 34 87 40 102 62 155
8 19 20 49 26 65 6 17 34 92 62 167 166 450 345 1060 440 1502 12 54 24 108
26 120 3 11 7 32 10 46 3 14 7 32 9 40 2 8 7 29 10 45 2 17 7 39 9 50 7 36 35
189 41 225 3 19 8 42 10 50 2 8 7 35 10 60 3 25 8 52 10 60 3 8 7 35 10 60 3
25 7 56 10 69 2 14 9 60 15 103 15 107 17 126 25 183 3 28 8 64 10 80 2 17 6
57 10 90 3 33 8 74 11 92 2 18 6 61 9 95 3 35 7 81 9 103 5 42 15 173 21 265
29 404 33 1058 10 1440 -3 47 -7 128 -10 180 -3 52 -8 118 -11 145 -3 28 -7
75 -9 105 -7 77 -12 137 -19 200 -4 30 -9 78 -12 105 -3 28 -7 61 -9 75 -2 14
-6 48 -9 75 -3 28 -10 82 -15 120 -19 129 -22 150 -26 180 -8 58 -17 112 -51
300 -42 242 -41 234 -64 340 -11 50 -22 101 -24 115 -13 76 -109 465 -148 600
-32 114 -31 112 -43 155 -41 160 -252 804 -295 900 -4 11 -47 117 -94 236 -47
118 -127 310 -178 425 -84 191 -330 693 -411 839 -19 33 -47 85 -64 115 -65
119 -98 178 -135 240 -231 389 -428 689 -719 1090 -29 41 -56 77 -59 80 -3 3
-34 43 -70 90 -82 107 -65 86 -226 285 -113 139 -363 430 -433 505 -9 9 -74
79 -146 155 -542 576 -1135 1095 -1765 1544 -63 45 -122 88 -130 94 -26 22
-421 281 -535 352 -370 231 -979 560 -1295 700 -36 15 -96 43 -135 61 -534
248 -1408 552 -1985 690 -8 2 -44 11 -80 19 -36 9 -72 18 -80 20 -168 38 -300
68 -320 71 -14 2 -43 8 -65 14 -22 5 -53 12 -70 14 -16 2 -55 9 -85 16 -30 6
-68 13 -85 16 -16 2 -66 11 -110 19 -44 8 -98 17 -120 20 -23 3 -52 8 -65 10
-14 3 -43 8 -65 10 -22 3 -51 7 -65 9 -27 6 -50 9 -220 30 -114 15 -179 22
-275 32 -27 2 -66 7 -85 9 -19 3 -73 8 -120 11 -47 3 -101 7 -120 9 -19 2 -87
7 -150 10 -63 3 -140 8 -170 11 -59 5 -1006 14 -1012 9z"/>
<path d="M11897 15054 c-1 -1 -54 -4 -117 -8 -63 -4 -128 -9 -145 -11 -16 -2
-48 -6 -70 -9 -22 -2 -65 -10 -95 -16 -30 -6 -68 -13 -85 -16 -64 -11 -227
-55 -328 -88 -594 -197 -1122 -601 -1476 -1130 -79 -118 -175 -290 -221 -396
-18 -41 -36 -79 -40 -85 -8 -11 -100 -280 -124 -365 -15 -53 -40 -166 -51
-232 -3 -18 -10 -58 -15 -88 -24 -138 -34 -534 -18 -700 64 -654 352 -1268
814 -1736 314 -317 687 -553 1109 -701 39 -13 77 -26 85 -28 8 -2 56 -14 105
-28 119 -33 188 -48 292 -62 12 -2 34 -6 50 -9 143 -28 501 -34 708 -11 153
17 221 29 398 71 9 2 25 6 35 8 77 17 311 101 427 153 606 270 1104 750 1400
1348 46 93 105 228 130 299 40 113 98 314 111 386 2 14 9 48 14 75 5 28 12 73
15 100 3 28 7 61 10 75 10 50 18 208 18 335 0 129 -10 332 -17 344 -2 3 -7 31
-10 63 -19 179 -109 507 -191 697 -41 94 -127 274 -134 281 -3 3 -14 21 -25
40 -39 73 -199 314 -226 340 -3 3 -37 43 -76 90 -121 144 -266 284 -404 392
-41 32 -80 62 -86 67 -71 58 -338 219 -435 264 -290 134 -486 197 -762 247
-100 19 -138 23 -277 35 -79 6 -288 13 -293 9z"/>
</g>
</svg>
