<svg xmlns="http://www.w3.org/2000/svg" width="1280" height="267.733">
  <path fill="#fff" d="M1134.524 216.252c38.453 0 70.717-26.35 79.807-61.972.054-.258.1-.525.1-.797a3.92 3.92 0 0 0-3.915-3.92H1177.3a3.897 3.897 0 0 0-3.552 2.29l-.01-.006c-6.823 14.849-21.805 25.172-39.214 25.172-23.827 0-43.157-19.317-43.157-43.152 0-23.831 19.33-43.154 43.157-43.154 17.41 0 32.39 10.323 39.215 25.175l.009-.007a3.917 3.917 0 0 0 3.552 2.292h33.216a3.922 3.922 0 0 0 3.915-3.924c0-.27-.046-.522-.1-.784-9.08-35.62-41.354-61.98-79.807-61.98-45.487 0-82.39 36.895-82.39 82.382 0 45.5 36.903 82.385 82.39 82.385zm141.552-160.845v152.996a3.923 3.923 0 0 1-3.915 3.92h-31.385a3.925 3.925 0 0 1-3.924-3.92V55.407zM1256.464.487c-12.996 0-23.536 10.541-23.536 23.538 0 13 10.54 23.539 23.536 23.539 13.005 0 23.536-10.539 23.536-23.539 0-12.997-10.53-23.538-23.536-23.538zM889.503 118.173c6.878-24.872 29.662-43.149 56.724-43.149 27.061 0 49.826 18.277 56.705 43.15zm56.724-66.688c-45.504 0-82.391 36.882-82.391 82.382 0 45.494 36.887 82.385 82.39 82.385 32.165 0 59.997-18.443 73.563-45.319a3.849 3.849 0 0 0 .426-1.762c0-2.171-1.758-3.92-3.924-3.92h-18.207a3.885 3.885 0 0 0-3.155 1.613c-10.593 15.592-28.448 25.846-48.702 25.846-29.844 0-54.476-22.213-58.315-51h136.663a3.924 3.924 0 0 0 3.914-3.725 78.17 78.17 0 0 0 .11-4.118c0-45.5-36.878-82.382-82.372-82.382zM836.376 4.41h-15.688a3.919 3.919 0 0 0-3.924 3.922v200.072a3.92 3.92 0 0 0 3.924 3.92h15.688a3.929 3.929 0 0 0 3.93-3.92V8.33a3.929 3.929 0 0 0-3.93-3.922zM789.3 165.251h-18.212a3.88 3.88 0 0 0-3.1 1.54c-10.576 15.633-28.467 25.92-48.753 25.92-32.511 0-58.85-26.346-58.85-58.844 0-32.5 26.339-58.843 58.85-58.843 20.286 0 38.177 10.288 48.753 25.917a3.897 3.897 0 0 0 3.1 1.543H789.3c2.17 0 3.928-1.76 3.928-3.923 0-.638-.163-1.232-.435-1.761-13.558-26.873-41.408-45.315-73.558-45.315-45.502 0-82.383 36.882-82.383 82.382 0 45.494 36.881 82.385 82.383 82.385 32.15 0 60-18.443 73.558-45.319a3.856 3.856 0 0 0 .435-1.762 3.92 3.92 0 0 0-3.928-3.92zM632.983 51.58c-23.74 1.119-42.7 12.46-54.98 29.784V59.323a3.926 3.926 0 0 0-3.924-3.916h-15.691a3.922 3.922 0 0 0-3.921 3.916v149.08a3.921 3.921 0 0 0 3.921 3.92h15.69a3.925 3.925 0 0 0 3.925-3.92v-74.536c0-31.179 24.254-56.688 54.916-58.707a3.935 3.935 0 0 0 3.933-3.932V55.503c0-2.151-1.73-3.882-3.87-3.922zM530.925 208.403V55.407h-23.54v152.996a3.928 3.928 0 0 0 3.927 3.92h15.69a3.924 3.924 0 0 0 3.923-3.92zm3.92-184.378c0 8.666-7.018 15.692-15.688 15.692-8.664 0-15.689-7.026-15.689-15.692s7.025-15.694 15.69-15.694c8.669 0 15.687 7.028 15.687 15.694zm-54.92 141.226h-18.208a3.916 3.916 0 0 0-3.11 1.54c-10.57 15.633-28.455 25.92-48.751 25.92-32.504 0-58.847-26.346-58.847-58.844 0-32.5 26.343-58.843 58.847-58.843 20.296 0 38.181 10.288 48.759 25.917a3.895 3.895 0 0 0 3.102 1.543h18.208c2.171 0 3.934-1.76 3.934-3.923 0-.638-.171-1.232-.431-1.761-13.567-26.873-41.417-45.315-73.572-45.315-45.5 0-82.39 36.882-82.39 82.382 0 45.494 36.89 82.385 82.39 82.385 32.155 0 60.005-18.443 73.572-45.319.26-.535.43-1.124.43-1.762 0-2.171-1.762-3.92-3.933-3.92zM129.857-.003c-62.49 0-114.93 42.815-129.69 100.699-.099.421-.167.85-.167 1.299a6.375 6.375 0 0 0 6.376 6.373H60.33c2.57 0 4.767-1.535 5.783-3.723l.008.003c11.086-24.132 35.436-40.908 63.735-40.908 38.715 0 70.118 31.403 70.118 70.127 0 38.725-31.403 70.128-70.118 70.128-28.3 0-52.649-16.776-63.735-40.915l-.008.013c-1.016-2.193-3.213-3.724-5.783-3.724H6.376A6.37 6.37 0 0 0 0 165.744c0 .436.068.852.159 1.27 14.754 57.888 67.196 100.72 129.698 100.72 73.924 0 133.864-59.943 133.864-133.867 0-73.932-59.94-133.87-133.864-133.87zM97.98 133.867c0-17.599 14.274-31.872 31.877-31.872 17.599 0 31.868 14.273 31.868 31.872 0 17.6-14.269 31.877-31.868 31.877-17.603 0-31.877-14.277-31.877-31.877"/>
</svg>
