<svg xmlns="http://www.w3.org/2000/svg" xmlns:xlink="http://www.w3.org/1999/xlink" viewBox="0 0 1271.56 1271.56"><defs><style>.cls-1{fill:url(#radial-gradient);}.cls-2{fill:url(#radial-gradient-3);}.cls-3{fill:url(#radial-gradient-13);}.cls-4{fill:url(#radial-gradient-15);}</style><radialGradient id="radial-gradient" cx="635.78" cy="635.78" r="635.78" gradientUnits="userSpaceOnUse"><stop offset="0" stop-color="#902c84"/><stop offset="0.11" stop-color="#882c80"/><stop offset="0.28" stop-color="#732c75"/><stop offset="0.47" stop-color="#552c66"/><stop offset="0.73" stop-color="#552c66" stop-opacity="0.33"/><stop offset="0.88" stop-color="#552c66" stop-opacity="0"/></radialGradient><radialGradient id="radial-gradient-3" cx="635.35" cy="0" r="0.01" xlink:href="#radial-gradient"/><radialGradient id="radial-gradient-13" cx="0.02" cy="638.86" r="1.97" xlink:href="#radial-gradient"/><radialGradient id="radial-gradient-15" cx="635.33" cy="0" r="0" xlink:href="#radial-gradient"/></defs><title>hacktoberfest_sunburst-only</title><g id="Layer_2" data-name="Layer 2"><g id="Layer_1-2" data-name="Layer 1"><path class="cls-1" d="M1259.2,510.77a635.63,635.63,0,0,0-36.56-119.72l-449,187.33a143.39,143.39,0,0,1,9.85,27.54Z"/><path class="cls-1" d="M988.25,106.62A636.41,636.41,0,0,0,878.12,47.93l-188,455.82a144.15,144.15,0,0,1,25.57,11.73Z"/><polygon class="cls-2" points="635.35 0 635.34 0 635.35 0 635.35 0"/><path class="cls-1" d="M758.54,553.52l405-272.35a639.08,639.08,0,0,0-79.07-95.86l-345.56,347A145.08,145.08,0,0,1,758.54,553.52Z"/><path class="cls-1" d="M11.94,512.91A638.8,638.8,0,0,0,0,635.78v.3H498.11a145,145,0,0,1,3.39-27Z"/><path class="cls-1" d="M759.72,1259.41a634.85,634.85,0,0,0,119.76-36.34L694,776.26a144.07,144.07,0,0,1-28.56,7.54Z"/><path class="cls-1" d="M12.22,760.09A635.15,635.15,0,0,0,48.63,879.83L506.45,689.44a143.41,143.41,0,0,1-6.69-26.32Z"/><path class="cls-1" d="M282.72,1164.55a636.82,636.82,0,0,0,110,58.8L579.87,771.16a144.77,144.77,0,0,1-24.33-14.9Z"/><path class="cls-1" d="M512.55,1259.56a639.23,639.23,0,0,0,123.23,12h.15l-.1-486.18a144.77,144.77,0,0,1-29-4.35Z"/><path class="cls-1" d="M989.46,1164.13a638.58,638.58,0,0,0,96-78.9L744.23,744.17a146.24,146.24,0,0,1-23.57,18.74Z"/><path class="cls-1" d="M1164.34,989.15a636.43,636.43,0,0,0,58.87-110L777.44,694.38a143.91,143.91,0,0,1-14,26.56Z"/><path class="cls-1" d="M106.81,283A635.84,635.84,0,0,0,48.07,393.1L509.65,583.79a143.88,143.88,0,0,1,12.7-23.44Z"/><path class="cls-3" d="M0,636.08c0,1.88,0,3.75.05,5.57l0-5.57Z"/><path class="cls-1" d="M511.08,12.3A635,635,0,0,0,391.4,48.77l191.6,460A143.89,143.89,0,0,1,608.41,500Z"/><polygon class="cls-4" points="635.33 0 635.33 0 635.34 0 635.33 0"/><path class="cls-1" d="M107.64,989.79a639.75,639.75,0,0,0,79,96L534.71,737a144.11,144.11,0,0,1-16.55-22.64Z"/><path class="cls-1" d="M787.6,635.18c.07,1.83.12,3.67.12,5.53a146,146,0,0,1-2.15,25l473.92,93.66a638.84,638.84,0,0,0,12.07-123.57v-.6Z"/><path class="cls-1" d="M559.72,522.1,281.48,107.84a638.5,638.5,0,0,0-95.9,79L539.24,539.53A145.68,145.68,0,0,1,559.72,522.1Z"/><path class="cls-1" d="M663.19,497.29,758.3,11.87A638.31,638.31,0,0,0,635.78,0l-.45,496.06q3.75-.19,7.54-.2A144.86,144.86,0,0,1,663.19,497.29Z"/></g></g></svg>
