<svg xmlns="http://www.w3.org/2000/svg" xmlns:xlink="http://www.w3.org/1999/xlink" viewBox="0 0 1271.56 1271.56">
  <defs>
    <style>
      .cls-2{fill:url(#radial-gradient)}.cls-7{fill:#122347}.cls-15{fill:#fff}
    </style>
    <radialGradient id="radial-gradient" cx="635.78" cy="635.78" r="635.78" gradientUnits="userSpaceOnUse">
      <stop offset="0" stop-color="#902c84"/>
      <stop offset=".11" stop-color="#882c80"/>
      <stop offset=".28" stop-color="#732c75"/>
      <stop offset=".47" stop-color="#552c66"/>
      <stop offset=".73" stop-color="#552c66" stop-opacity=".33"/>
      <stop offset=".88" stop-color="#552c66" stop-opacity="0"/>
    </radialGradient>
    <radialGradient id="radial-gradient-3" cx="635.35" cy="0" r=".01" xlink:href="#radial-gradient"/>
    <radialGradient id="radial-gradient-13" cx=".02" cy="638.86" r="1.97" xlink:href="#radial-gradient"/>
    <radialGradient id="radial-gradient-15" cx="635.33" cy="0" r="0" xlink:href="#radial-gradient"/>
    <linearGradient id="linear-gradient" x1="552.9" x2="733.49" y1="795.26" y2="795.26" gradientUnits="userSpaceOnUse">
      <stop offset="0" stop-color="#ffc53a"/>
      <stop offset=".26" stop-color="#fdb838"/>
      <stop offset=".73" stop-color="#f79631"/>
      <stop offset="1" stop-color="#f3802d"/>
    </linearGradient>
    <linearGradient id="linear-gradient-2" x1="560.41" x2="725.96" y1="768.88" y2="768.88" xlink:href="#linear-gradient"/>
    <linearGradient id="linear-gradient-3" x1="450.97" x2="569.69" y1="617.02" y2="617.02" gradientUnits="userSpaceOnUse">
      <stop offset="0" stop-color="#99d9ee"/>
      <stop offset=".22" stop-color="#95d6ed"/>
      <stop offset=".43" stop-color="#8acde9"/>
      <stop offset=".63" stop-color="#77bfe3"/>
      <stop offset=".82" stop-color="#5daada"/>
      <stop offset="1" stop-color="#3e92cf"/>
    </linearGradient>
    <linearGradient id="linear-gradient-4" x1="697.99" x2="812.18" y1="763.38" y2="834.73" gradientUnits="userSpaceOnUse">
      <stop offset="0" stop-color="#3e92cf"/>
      <stop offset=".18" stop-color="#5daada"/>
      <stop offset=".37" stop-color="#77bfe3"/>
      <stop offset=".57" stop-color="#8acde9"/>
      <stop offset=".78" stop-color="#95d6ed"/>
      <stop offset="1" stop-color="#99d9ee"/>
    </linearGradient>
    <linearGradient id="linear-gradient-5" x1="506.98" x2="679.67" y1="482.59" y2="482.59" xlink:href="#linear-gradient-4"/>
    <linearGradient id="linear-gradient-6" x1="723.21" x2="562.5" y1="721.58" y2="560.87" gradientUnits="userSpaceOnUse">
      <stop offset="0" stop-color="#96c941"/>
      <stop offset=".28" stop-color="#94c642"/>
      <stop offset=".48" stop-color="#8dbd44"/>
      <stop offset=".65" stop-color="#81ae47"/>
      <stop offset=".8" stop-color="#71984c"/>
      <stop offset=".94" stop-color="#5c7c52"/>
      <stop offset="1" stop-color="#526f55"/>
    </linearGradient>
  </defs>
  <g style="isolation:isolate">
    <g id="Layer_2" data-name="Layer 2">
      <g id="Layer_1-2" data-name="Layer 1">
        <path d="M1259.2 510.77a635.63 635.63 0 0 0-36.56-119.72l-449 187.33a143.39 143.39 0 0 1 9.85 27.54zM988.25 106.62a636.41 636.41 0 0 0-110.13-58.69l-188 455.82a144.15 144.15 0 0 1 25.57 11.73z" class="cls-2"/>
        <path fill="url(#radial-gradient-3)" d="M635.35 0h-.01.01z"/>
        <path d="M758.54 553.52l405-272.35a639.08 639.08 0 0 0-79.07-95.86l-345.56 347a145.08 145.08 0 0 1 19.63 21.21zM11.94 512.91A638.8 638.8 0 0 0 0 635.78v.3h498.11a145 145 0 0 1 3.39-27zM759.72 1259.41a634.85 634.85 0 0 0 119.76-36.34L694 776.26a144.07 144.07 0 0 1-28.56 7.54zM12.22 760.09a635.15 635.15 0 0 0 36.41 119.74l457.82-190.39a143.41 143.41 0 0 1-6.69-26.32zM282.72 1164.55a636.82 636.82 0 0 0 110 58.8l187.15-452.19a144.77 144.77 0 0 1-24.33-14.9zM512.55 1259.56a639.23 639.23 0 0 0 123.23 12h.15l-.1-486.18a144.77 144.77 0 0 1-29-4.35zM989.46 1164.13a638.58 638.58 0 0 0 96-78.9L744.23 744.17a146.24 146.24 0 0 1-23.57 18.74zM1164.34 989.15a636.43 636.43 0 0 0 58.87-110L777.44 694.38a143.91 143.91 0 0 1-14 26.56zM106.81 283a635.84 635.84 0 0 0-58.74 110.1l461.58 190.69a143.88 143.88 0 0 1 12.7-23.44z" class="cls-2"/>
        <path fill="url(#radial-gradient-13)" d="M0 636.08c0 1.88 0 3.75.05 5.57v-5.57z"/>
        <path d="M511.08 12.3A635 635 0 0 0 391.4 48.77l191.6 460a143.89 143.89 0 0 1 25.41-8.77z" class="cls-2"/>
        <path fill="url(#radial-gradient-15)" d="M635.33 0h.01-.01z"/>
        <path d="M107.64 989.79a639.75 639.75 0 0 0 79 96L534.71 737a144.11 144.11 0 0 1-16.55-22.64zM787.6 635.18c.07 1.83.12 3.67.12 5.53a146 146 0 0 1-2.15 25l473.92 93.66a638.84 638.84 0 0 0 12.07-123.57v-.6zM559.72 522.1L281.48 107.84a638.5 638.5 0 0 0-95.9 79l353.66 352.69a145.68 145.68 0 0 1 20.48-17.43zM663.19 497.29L758.3 11.87A638.31 638.31 0 0 0 635.78 0l-.45 496.06q3.75-.19 7.54-.2a144.86 144.86 0 0 1 20.32 1.43z" class="cls-2"/>
        <path d="M725.91 773.1a101 101 0 0 1-20.49 10.49c-12.86 5-34.29 11.13-63.3 11.4-30.8.29-51.23-5.72-63-10.8-12.6-5.48-18.12-11.09-18.12-11.13s-.57.1-.64 0a26.39 26.39 0 0 0-2.58 6.93C563 784.82 585.06 804 640 804h2.26c54.67-.51 86.11-24.8 86.11-24.8z" class="cls-7"/>
        <circle cx="642.87" cy="640.71" r="144.84" class="cls-7"/>
        <path fill="url(#linear-gradient)" d="M694.51 803.71c.23-.58.28-1 .52-1.22a.66.66 0 0 1 1 .26.65.65 0 0 1-.18 1c3-.9 5.85-1.84 8.49-2.8v-.06a.59.59 0 0 1 .51-.14c1.58-.57 3.08-1.15 4.52-1.72a.67.67 0 0 1 .37-1c.32-.08.71.13 1.33.27v.08c1.48-.61 2.85-1.22 4.17-1.82a1.45 1.45 0 0 1-.49-.39.67.67 0 0 1 .36-1 .69.69 0 0 1 1 .43 1.44 1.44 0 0 1 0 .6c1.86-.87 3.53-1.71 5.06-2.51a4.28 4.28 0 0 1-1.3 0c.24-.59.28-1 .53-1.25a.68.68 0 0 1 1 .26.65.65 0 0 1-.21 1c1.92-1 3.57-1.94 5-2.77-.27 0-.59-.07-1-.1.23-.59.27-1 .52-1.24a.67.67 0 0 1 1 .26.77.77 0 0 1 .1.69 47.3 47.3 0 0 0 4-2.63l-.12-.16a.68.68 0 0 1 .33-1 2.4 2.4 0 0 1 1.09.16 4.46 4.46 0 0 0-3.75-7.63 4.51 4.51 0 0 0-2.11.88s-.43.33-1.2.85a.72.72 0 0 1-.24.47.87.87 0 0 1-.49 0 92.86 92.86 0 0 1-9.9 5.56v.48l-.48-.24c-1.47.71-3.08 1.44-4.8 2.19a.77.77 0 0 1-.25.52 1.49 1.49 0 0 1-.87 0c-1 .4-1.92.8-2.94 1.2l-1.4.54a.66.66 0 0 1 .19.35 3.64 3.64 0 0 1-.25 1.2c-.51-.36-.92-.51-1-.78a.56.56 0 0 1 0-.37c-13.06 4.84-33.61 10.2-60.84 10.46-30.8.3-51.23-5.71-63-10.8-12.64-5.48-18.12-11.09-18.16-11.13a4.49 4.49 0 0 0-6.54 6.16c1 1 24 24.76 85.49 24.76h2.26a195.55 195.55 0 0 0 53.71-7.61 2.07 2.07 0 0 0-1.03-.26zm37.7-21.13a.66.66 0 0 1 1 .27 4.64 4.64 0 0 1 0 1.34c-.59-.26-1-.33-1.21-.57a.66.66 0 0 1 .21-1.04zm-4.1-1.17c.39-.25.83-.24 1 .21a4.36 4.36 0 0 1 0 1.35 4.89 4.89 0 0 1-1.18-.64.6.6 0 0 1 .18-.92zm-1.11 4a.66.66 0 0 1 1 .42 4.29 4.29 0 0 1-.22 1.32c-.54-.35-.93-.48-1.11-.75a.65.65 0 0 1 .33-1.03zm-4.12-1.16a1 1 0 0 1 .9.24c.16.25 0 .67.05 1.33-.59-.27-1-.34-1.2-.58a.61.61 0 0 1 .25-1.03zm-1.37 3.71c.54.32.94.44 1.14.7a.72.72 0 1 1-1.31.61 4.39 4.39 0 0 1 .17-1.35zm-4-.82c.38-.26.82-.24 1 .21a4.36 4.36 0 0 1 0 1.35 4.83 4.83 0 0 1-1.18-.65.59.59 0 0 1 .16-.95zm-1.13 4a.67.67 0 0 1 1 .38c.2.43.09.86-.36 1s-.69-.11-1.29-.22c.27-.62.37-1.05.63-1.22zm-4.38-1.52c.57.26 1 .33 1.18.57a.59.59 0 0 1-.27 1 1 1 0 0 1-.89-.24c-.13-.27-.02-.69-.02-1.33zm-1 4.3a.67.67 0 0 1 1 .35 4.48 4.48 0 0 1-.12 1.34c-.57-.32-1-.42-1.16-.67a.66.66 0 0 1 .28-1.02zm-4-1.2a1 1 0 0 1 .86.32c.13.26 0 .67-.07 1.32-.57-.33-1-.44-1.15-.7a.59.59 0 0 1 .36-.94zm-1.29 4a.66.66 0 0 1 1 .4 4 4 0 0 1-.18 1.32c-.55-.34-.94-.46-1.13-.72a.65.65 0 0 1 .32-.97zm-4.14-1.12a.58.58 0 0 1 1 .22 4.32 4.32 0 0 1-.06 1.34c-.57-.31-1-.41-1.14-.67a1 1 0 0 1 .21-.86zm-1.17 4a.66.66 0 0 1 1 .4 4.24 4.24 0 0 1-.18 1.32c-.56-.34-1-.45-1.13-.72a.65.65 0 0 1 .32-1.01zm-2.79-5.24c.26-.09.61.07 1.21.16-.31.54-.41 1-.67 1.11s-.69-.1-.87-.31a.58.58 0 0 1 .34-.97zm-1.36 4.12a.59.59 0 0 1 1 .23 4.32 4.32 0 0 1-.06 1.34c-.57-.32-1-.42-1.14-.68a1 1 0 0 1 .21-.9zm-8.39 3.15c-.61-.31-1-.39-1.21-.63a.54.54 0 0 1 .22-.89 1 1 0 0 1 .91.15c.22.24.07.67.09 1.36zm4 1.25a4.89 4.89 0 0 1-1.18-.64.6.6 0 0 1 .2-.92c.38-.25.82-.23 1 .22a4.29 4.29 0 0 1 .02 1.33zm1-4.45c-.26.13-.67 0-1.28-.11.27-.54.34-.92.57-1.08a.59.59 0 0 1 1 .3 1 1 0 0 1-.22.88z"/>
        <path fill="url(#linear-gradient-2)" d="M724.44 767.78s0 .05-.05.06c-.25.1-.61-.06-1.12-.14.25-.46.35-.88.53-.91a1.1 1.1 0 0 1 .61.15c0-1-.14-2.08-.26-3.13a20.5 20.5 0 0 0-.54-2.81 21.66 21.66 0 0 0-.81-2.39 1 1 0 0 1 0 .17c-.31-.23-.64-.34-.7-.54s.08-.55.14-.83h.1a25.26 25.26 0 0 0-2.69-4.5.7.7 0 0 1-.36-.19v-.28a30.75 30.75 0 0 0-1.76-2.05c-.53.37-1.07.72-1.6 1.07a.43.43 0 0 1-.13.25.37.37 0 0 1-.26 0 112.87 112.87 0 0 1-15.54 8.5l-.21.38-.26-.21q-2.43 1.08-4.92 2a1.59 1.59 0 0 1-.18.64c-.18-.08-.44-.12-.51-.26a.27.27 0 0 1 0-.18 112.29 112.29 0 0 1-14 4.32.6.6 0 0 1-.08.47c-.09.09-.37 0-.71 0a2.93 2.93 0 0 0 .12-.28c-2.84.66-5.73 1.2-8.66 1.64 0 .14 0 .3.07.56-.48-.27-.75-.37-.74-.44a114.38 114.38 0 0 1-16.34 1.18 113.19 113.19 0 0 1-74.22-27.59c-8 4.11-14.79 10.75-16.81 18.69a19.06 19.06 0 0 0-.49 2.61 40.62 40.62 0 0 0-.26 7.18l-1.38 2.1a1.36 1.36 0 0 1 .24.24s.56.56 1.69 1.49a47 47 0 0 0 4.81 3.47 80.62 80.62 0 0 0 11.66 6.16 123.61 123.61 0 0 0 26.68 7.87s4.6.65 11.06 1.34h.24c2.7.27 5.72.56 8.86.81h.14c5.31.43 10.94.75 16 .75 29 0 50.43-6.35 63.31-11.4h.06a.7.7 0 0 1 .25-.39.79.79 0 0 1 .57.06q2.44-1 4.61-1.94a.49.49 0 0 1-.14-.11c-.13-.18 0-.6.09-1.17.51.26 1 .34 1 .56a.49.49 0 0 1 0 .27c1.67-.76 3.21-1.51 4.6-2.22a1 1 0 0 1-.39-.23.53.53 0 0 1 .2-.89 1 1 0 0 1 .89.2.84.84 0 0 1 0 .53 105.75 105.75 0 0 0 4.53-2.5.71.71 0 0 1-.37-.25.93.93 0 0 1 .29-.85c.2-.13.6 0 1.17.11l-.23.47 1.65-1 1.25-.82.77-.54-1.54-2.34c.1-.92.1-1.92.07-2.92zm-49.89 2.77c-.29-.17-.55-.24-.6-.38s.1-.38.24-.5.39.06.42.15a2 2 0 0 1-.06.73zm14.19-5.3a1.94 1.94 0 0 1 .64.16c-.06.19-.06.46-.19.54s-.37 0-.67-.08c.09-.28.14-.61.22-.62zm-1.2 4c.05-.07.52.06.55.17a.85.85 0 0 1-.13.67c-.05.08-.38 0-.7-.07a2.4 2.4 0 0 1 .28-.8zm-1.31 4.06c.24.06.56.05.68.2s0 .44 0 .83c-.36-.14-.7-.17-.77-.32s.05-.5.09-.74zm-4-1.19a2.33 2.33 0 0 1 .81.15c-.14.3-.21.63-.31.64a.83.83 0 0 1-.64-.24c-.09-.11.01-.56.1-.58zm-2.66 8.85c0-.25.12-.54.19-.81.27.11.61.15.77.35s.06.51.09.91c-.62-.29-1.07-.35-1.09-.48zm2.58 9.93c-.54-.26-.92-.33-1.07-.55a.77.77 0 0 1 .22-.76.77.77 0 0 1 .78.1c.11.2.02.57.03 1.18zm1-4.41c-.17.12-.54 0-1-.11.21-.41.28-.8.48-.88s.53.12.81.2c-.17.3-.18.64-.37.76zm.25-17.88c-.07-.14 0-.38.09-.67.27.12.58.18.6.29a1.55 1.55 0 0 1-.18.63c-.26-.11-.52-.15-.59-.28zm1.18 14c-.46-.19-.86-.24-.94-.43a.92.92 0 0 1 .26-.77.72.72 0 0 1 .67.17c.04.18-.06.51-.07 1zm1-4.11c-.3-.2-.66-.33-.66-.47s.22-.49.34-.74c.23.15.54.27.66.48s-.31.39-.46.7zm1.73 9.27c-.25.1-.61-.06-1.12-.15.25-.45.36-.87.53-.91a1.08 1.08 0 0 1 .86.31c-.03.07-.22.65-.39.72zm1.29-3.87c-.41-.22-.8-.31-.87-.51a.81.81 0 0 1 .28-.74.79.79 0 0 1 .76.26c-.02.15-.2.5-.29.96zm1.36-4.15c-.46-.18-.87-.21-1-.39a.93.93 0 0 1 .22-.79.76.76 0 0 1 .68.15c.06.18-.03.51-.02 1zm1.13-4.19c-.34-.09-.74-.1-.78-.22a2.17 2.17 0 0 1 .1-.82 1.84 1.84 0 0 1 .78.25c-.02.06-.19.42-.19.76zm1.69 9.7c-.51-.31-.89-.41-1-.65a.81.81 0 0 1 .3-.74.8.8 0 0 1 .77.18c-.02.22-.15.58-.19 1.18zm.13-18.83c.21 0 .51 0 .59.11s.06.45.09.82c-.34-.1-.67-.1-.71-.21a2 2 0 0 1-.09-.75zm1 14.62c-.41-.22-.79-.3-.87-.5a.82.82 0 0 1 .29-.75.83.83 0 0 1 .75.26c-.01.16-.2.51-.29.94zm8.46-16.31c.22.1.54.14.65.31s-.08.44-.17.82c-.32-.2-.64-.29-.69-.46s.01-.47.09-.7zm-7.12 12.18c-.46-.19-.86-.24-.94-.42a.92.92 0 0 1 .26-.77c.08-.1.58 0 .67.17s-.1.5-.11.99zm.51-5.28a2.08 2.08 0 0 1 .77.32c.09.1-.09.46-.18.79-.32-.12-.72-.16-.75-.29s-.02-.57.04-.85zm1.13 14.84c-.51-.26-.89-.35-1-.58a.8.8 0 0 1 .2-.75 1 1 0 0 1 .88.15c.03.16-.17.57-.2 1.15zm.64-18a.67.67 0 0 1-.65-.15.68.68 0 0 1 .13-.67c.12-.11.45 0 .82.07-.24.27-.27.63-.42.71zm.59-5.29c.37.26.65.35.71.52s0 .46-.06.7c-.21 0-.53 0-.59-.11s-.18-.51-.18-1.15zm1.06 14.75c-.19.1-.54-.08-.82-.14.06-.27 0-.66.21-.79s.54 0 1 0c-.28.4-.32.79-.51.89zm1.09-4a.7.7 0 0 1-.65-.24c-.09-.23.06-.54.13-1 .42.24.81.33.86.53a.87.87 0 0 1-.46.63zm.87-5.07c.13-.09.45.12.69.2-.09.26-.12.6-.29.76s-.46-.06-.87-.14c.07-.45.15-.78.33-.9zm.87 14.52c-.19.13-.6 0-1.19-.14.32-.49.44-.86.68-1a.88.88 0 0 1 .75.22 1.06 1.06 0 0 1-.36.84zm1.49-3.82c-.55-.25-.93-.31-1.08-.54a.77.77 0 0 1 .21-.76.81.81 0 0 1 .79.09c.02.15-.06.53-.04 1.13zm0-18.78c.2 0 .51 0 .59.11s.06.45.09.82c-.35-.09-.67-.1-.71-.21a1.78 1.78 0 0 1-.05-.8zm1 14.61c-.41-.2-.81-.27-.89-.46a.81.81 0 0 1 .25-.76.8.8 0 0 1 .77.22c.07.11-.11.47-.18.92zm1.25-4.08c-.43-.22-.83-.3-.89-.49a.88.88 0 0 1 .3-.75c.1-.09.59.06.66.21s-.07.46-.12.95zm12.45-15c.23.08.55.1.67.26s0 .45-.09.83c-.34-.17-.67-.23-.73-.39s.04-.59.1-.83zm-5.33 2.68c.23.1.55.14.65.31s-.07.44-.15.82c-.33-.2-.65-.28-.7-.45s.12-.43.2-.68zm-4.11-1.18a2 2 0 0 1 .66.29c.08.09 0 .38-.09.68-.29-.1-.61-.13-.65-.25a1.85 1.85 0 0 1 .08-.7zm-1.26 3.87c.33.2.64.29.71.47s-.15.42-.24.65c-.22-.1-.54-.14-.62-.3s.07-.44.15-.8zm-1.41 5a1.87 1.87 0 0 1 .23-.79c.26.12.58.19.73.39s-.13.44-.25.76c-.31-.14-.7-.22-.71-.35zm1.15 13.75a1.08 1.08 0 0 1-.88-.26c-.1-.09 0-.65.2-.76s.59 0 1.18-.07c-.24.56-.29 1.01-.5 1.1zm1.2-4.08c-.17.11-.75-.06-.78-.19a1.07 1.07 0 0 1 .22-.88c.13-.13.53 0 1 .06-.16.48-.22.87-.44 1.02zm1.25-4.16c-.2.11-.54-.07-.82-.13.06-.28 0-.67.21-.8s.54 0 1 0c-.16.45-.2.85-.39.94zm1.26-3.78c-.41-.26-.74-.36-.85-.57s.1-.64.23-.66a.9.9 0 0 1 .78.22c.11.17-.11.53-.11 1.02zm.46-4.56a2.07 2.07 0 0 1 .21-.8 2.29 2.29 0 0 1 .75.37c.08.1-.13.44-.24.77-.31-.13-.7-.2-.72-.33zm1.32 14c-.52-.25-.9-.33-1.05-.55s0-.61.19-.78a.52.52 0 0 1 .88.14c.12.33 0 .67-.02 1.24zm1-4.36c-.1.09-.67-.08-.76-.27s.06-.59.13-1.09c.47.23.91.33.93.49a1.16 1.16 0 0 1-.34.92zm.21-18c0-.12.16-.36.25-.54a1.86 1.86 0 0 1 .61.38c.07.09-.11.36-.23.7-.32-.21-.57-.33-.67-.52zm1.22 14.1c-.43-.18-.83-.23-.92-.42a.82.82 0 0 1 .22-.78.8.8 0 0 1 .77.2c.09.19-.06.56-.11 1.02zm1.21-4.06c-.44-.23-.83-.31-.89-.5a.91.91 0 0 1 .3-.75.75.75 0 0 1 .66.22c.06.24-.06.56-.11 1.05zm.44-4.47a2 2 0 0 1 .09-.82 2.29 2.29 0 0 1 .79.25c.09.09 0 .46-.11.8-.37-.07-.78-.08-.81-.21zm1.2 14c-.49-.29-.86-.39-1-.63a.53.53 0 0 1 .37-.82c.24 0 .69.1.76.28s-.14.64-.14 1.2zm1-4.4c-.17.09-.52-.15-.79-.25.11-.29.15-.68.36-.85s.53.06 1 .15c-.24.48-.34.86-.58.98zm1.28-4.14a.83.83 0 0 1-.78-.23c-.12-.17 0-.54.12-1 .42.19.81.25.89.44a.81.81 0 0 1-.24.82zm1.13-4.07a.72.72 0 0 1-.65-.24c-.09-.23 0-.54.13-1 .42.25.8.34.86.54a.87.87 0 0 1-.35.73zm1.75 9.44a1.07 1.07 0 0 1-.87-.29c-.09-.09.05-.64.22-.75s.61 0 1.19 0c-.26.54-.33.99-.55 1.07z"/>
        <g opacity=".87">
          <path fill="url(#linear-gradient-3)" d="M533.75 543.09c-5.54-.15-17.51.29-22.33 3-5.85 3.3-9.35 8.42-12.92 14.1-1.32 2.08-2.9 4.2-5.21 5.07-5.71 2.14-12.39-4.41-17.75-1.5-1.24.67-2.28 1.82-3.68 2.05-2.55.43-4.36-2.28-6.41-3.87-3.5-2.73-8.76-2.21-12.47.22s-6.14 6.39-8 10.41c-2.45 5.3-3.89 12.21.09 16.48-9.59 5.69-12.48 20.15-5.82 29.09-1.55 3.76-.57 8.18 1.56 11.64s5.28 6.16 8.37 8.79c-5.38 6.93-8.09 17.36-2.67 24.25s15.6 6.79 24.29 6.1c-.51 3.78 4.16 7.14 7.58 5.46a12.44 12.44 0 0 0 21.34 8.35c1.46-1.51 2.91-3.55 5-3.45 2.35.12 3.53 2.78 5.14 4.49 4.18 4.44 11.5 2.42 17.14.1a14.55 14.55 0 0 0 14.94 6.86c-6-3.86-10-10.38-12.08-17.21s-2.63-14-3.12-21.18c-2 4.12-9.13 4-11.1-.12-.84-1.79-.78-3.87-1.26-5.79-1.48-5.85-7.61-9.18-13.36-11-2.79-.88-5.74-1.57-8.62-1.05s-5.65 2.52-6.28 5.38c-.87-4.9-5.12-8.64-9.79-10.35s-9.77-1.73-14.74-1.74a13.53 13.53 0 0 0-6.73-10.53c-2.2-1.23-5-2-6-4.33a8 8 0 0 1-.46-3.8c.27-5.37 2.81-14.6 7-18 6.3-.48 10.85 0 17-5.26 4.71-4.06 9.19-4.19 9.68-9.51 3.39.72 18 2.66 22.64 1.69 5.72 1.83 4.79 2.13 10.78 2.3 4.62.14 13.18-.13 17.32-2.18 4.56-2.26 7-12 11.75-18.28 2.44-3.23 7-3.4 9.57-5.58 2.57-5.06-13.14-11.1-20.39-11.1z"/>
          <path fill="url(#linear-gradient-4)" d="M647.39 850.92A60.71 60.71 0 0 1 665.67 866c1.93 2.36 3.9 5 6.85 5.78 4.77 1.23 9.1-3.06 13.92-4.11s10.95.66 13.63-3.39c1-1.53 1.22-3.62 2.64-4.78 2.28-1.85 6.16-.11 8.39-2 3.22-2.77-1-9.12 2.15-12a6.27 6.27 0 0 1 2.85-1.24 70.36 70.36 0 0 1 12.25-1.84c-1 3 1.29 6.31 4.17 7.62s6.2 1.13 9.36.88c8.7-.69 18.1-2.1 24.22-8.33 5.45-5.55 7.36-14.1 13.49-18.9 1.79 3.81 6.09 6 10.29 6.29s8.36-.88 12.36-2.19c5.66-1.86 11.46-4.12 15.49-8.51 3.36-3.68 5.15-8.5 6.7-13.24 4-12.09 6.74-26.29-.43-36.81l10-9.34a28.45 28.45 0 0 0 5.36-6.09c3.09-5.31 4.4-12.56 1.54-18-4.84-9.2-18.86-9-24.6-5.84a2.25 2.25 0 1 0-4.35-1.06c1.9-7.23-2.87-15.54-10.07-17.55 0-2.42-.17-5.56-2.25-6.62-2.93-1.51-6.08 2.69-8.44 5a4.66 4.66 0 0 0-4.09-5.08c2.91-4.51-.29-10.9-5.06-13.36s-10.42-2.16-15.79-2c-3.12.09-6.33.14-9.19 1.39-3.5 1.53-6 4.74-7.64 8.21-3.65 8-2.54 18.06 3.25 24.63s16.14 8.86 23.9 4.79l1.6 10.07a9.8 9.8 0 0 0 7.58-.55c.43 3 3.61 5 6.63 5.07s5.91-1.14 8.67-2.38a7.79 7.79 0 0 0 6.89 8.84c-3.11 1.77-6.14 4.24-7.08 7.69s.51 7.33 2.26 10.59 3.85 6.48 4.26 10.16-1.62 8-5.27 8.55c-4.33-2.6-10.13-1.52-14.25 1.41s-6.87 7.36-9.31 11.79c-1.88 3.44-4.43 7.45-8.35 7.41-1.24 0-2.5-.45-3.68-.1-1.74.52-2.53 2.47-3.71 3.85-3.13 3.68-10.11 2.53-11.9-1.95a9.25 9.25 0 0 0-1.24-2.79c-1.1-1.28-3-1.3-4.72-1.1-12.33 1.4-23.17 8.51-33.48 15.42-4 2.64-8.1 5.52-10 9.89-2.21 5.12-1 11.66-4.61 15.89-4.52-3.81-11.33-2.59-16.89-.6-4.36 1.56-8.9 3.58-13.62 3.42s-8.45-3-12.4-5.15c-2.91-1.61-5.63-3.09-8.68-1-4.27 2.99-1.34 6.33 2.12 8.18z"/>
          <path fill="url(#linear-gradient-5)" d="M675.64 505.14c-1.54 1.92-2.77 4.29-5 5.35a9.8 9.8 0 0 1-4 .73 42.2 42.2 0 0 1-30-11.84 26.75 26.75 0 0 1-8.62 1.71c-5.29.45-10.65.91-15.9.05s-10.44-3.2-13.71-7.39c-2.15-2.77-3.34-6.16-5.31-9.06a2.21 2.21 0 0 0-1.15-1c-1.44-.4-2.26 1.81-3.71 2.16s-2.67-1.47-3-3-.82-3.46-2.37-3.85c-2.07-.52-3.34 2.19-5.1 3.39-3 2.05-7-.61-9.47-3.25s-5.89-5.7-9.29-4.38c-1.3.51-2.3 1.6-3.59 2.15-4.58 2-9.64-3.71-14.41-2.24-1 .31-1.92.94-2.94 1.24-1.82.55-3.76 0-5.57-.49-9.26-2.64-19-5.59-25.43-12.78l19.16 6.66a15.78 15.78 0 0 0 5.21 1.18 18.26 18.26 0 0 0 6.18-1.59 62.13 62.13 0 0 1 18.82-3.77 16.78 16.78 0 0 0 4.13-.48 17.88 17.88 0 0 0 5.19-3.14A39.27 39.27 0 0 1 586 454c4-.28 8.39.2 11.33 2.94s3.75 7.27 4.54 11.35c.19 1 .53 2.11 1.46 2.45 1.71.62 2.75-1.85 4.19-2.95a3.35 3.35 0 0 1 4.84 1.17 11.52 11.52 0 0 1 14-.66c4 2.94 6.72 8.79 11.71 8.63 2.54-.08 5.09-1.86 7.45-.92 1.47.58 2.35 2 3.13 3.42l5.85 10.28c2.52-2.73 8-1.22 8.71 2.42.28 1.38.07 3 1.12 4 .78.7 1.93.68 3 .88a6.52 6.52 0 0 1 4.92 4.62c.32 1.21 6.12-2.46 6.86-2.06 2.36 1.33-2.71 4.64-3.47 5.57z"/>
        </g>
        <circle cx="499.92" cy="584.74" r="4.93" class="cls-15"/>
        <circle cx="458.74" cy="535.74" r="2.53" class="cls-15"/>
        <circle cx="541.45" cy="569.07" r="2.6" class="cls-15"/>
        <circle cx="510.61" cy="562.65" r="1.39" class="cls-15"/>
        <circle cx="418.96" cy="537.51" r="1.26" class="cls-15"/>
        <circle cx="496.06" cy="533.65" r="1.79" class="cls-15"/>
        <circle cx="447.13" cy="499.27" r="2.03" class="cls-15"/>
        <circle cx="779.2" cy="713.52" r="2.21" class="cls-15"/>
        <circle cx="836.52" cy="703.18" r="1.56" class="cls-15"/>
        <circle cx="864.71" cy="712.13" r="1.12" class="cls-15"/>
        <circle cx="744.11" cy="728.82" r="5.09" class="cls-15"/>
        <circle cx="787.69" cy="758.05" r="3.37" class="cls-15"/>
        <circle cx="725.95" cy="742.02" r="1.49" class="cls-15"/>
        <path d="M420.25 517l7.88.89-7.88.89-.89 7.88-.89-7.88-7.87-.89 7.87-.89.89-7.87.89 7.87zM806.93 688.52l4.92.56-4.92.56-.56 4.91-.55-4.91-4.92-.56 4.92-.56.55-4.91.56 4.91z" class="cls-15"/>
        <circle cx="642.86" cy="641.23" r="113.64" fill="url(#linear-gradient-6)"/>
        <path fill="#fff" d="M642.86 548a93.47 93.47 0 0 0-14.59 1.14c40.68 5.24 76.58 36.91 87.47 81.72a110 110 0 0 1-10 79.13 93.19 93.19 0 0 0-62.85-162z" opacity=".64"/>
        <path d="M657.08 578.59a2.34 2.34 0 1 0-1.77-2.8 2.35 2.35 0 0 0 1.77 2.8z" class="cls-15"/>
        <circle cx="625.98" cy="604.48" r="6.4" class="cls-15"/>
        <path d="M629.38 592.93a4.09 4.09 0 1 0-5.07-2.79 4.08 4.08 0 0 0 5.07 2.79zM578.63 641.71a2.35 2.35 0 1 0-2.33 2.36 2.35 2.35 0 0 0 2.33-2.36z" class="cls-15"/>
        <circle cx="643.32" cy="600.57" r="6.4" class="cls-15"/>
        <circle cx="643.32" cy="586.86" r="4.09" class="cls-15"/>
        <path d="M645.52 617.45a8 8 0 1 0 10.79-3.62 8 8 0 0 0-10.79 3.62zM656.18 592.63a4.09 4.09 0 1 0-2.9-5 4.07 4.07 0 0 0 2.9 5zM642.86 577a2.35 2.35 0 1 0-2.35-2.35 2.35 2.35 0 0 0 2.35 2.35z" class="cls-15"/>
        <circle cx="633.44" cy="620.82" r="8.05" class="cls-15" transform="rotate(-50.65 633.4 620.8)"/>
        <circle cx="582.6" cy="612.92" r="2.35" class="cls-15" transform="rotate(-53.43 582.62 612.93)"/>
        <path d="M589.88 631.61a4.09 4.09 0 1 0-3-5 4.1 4.1 0 0 0 3 5zM588.92 602.13a2.34 2.34 0 1 0-.41-3.29 2.34 2.34 0 0 0 .41 3.29zM577.32 629.26a2.35 2.35 0 1 0-1.79-2.79 2.35 2.35 0 0 0 1.79 2.79zM613.28 591.13a4.09 4.09 0 1 0 5.61 1.39 4.09 4.09 0 0 0-5.61-1.39zM614.24 583.72a2.35 2.35 0 1 0-3.14-1.05 2.34 2.34 0 0 0 3.14 1.05z" class="cls-15"/>
        <circle cx="604.43" cy="603.36" r="4.09" class="cls-15" transform="rotate(-5.44 603.93 602.93)"/>
        <path d="M594.08 618.19a4.09 4.09 0 1 0-1.58-5.56 4.09 4.09 0 0 0 1.58 5.56zM602.22 591.49a2.35 2.35 0 1 0-3.3-.33 2.35 2.35 0 0 0 3.3.33zM627.69 578.81a2.34 2.34 0 1 0-2.83-1.72 2.35 2.35 0 0 0 2.83 1.72zM629.71 660.38a8 8 0 1 0-11.25-1.76 8 8 0 0 0 11.25 1.76z" class="cls-15"/>
        <circle cx="621.53" cy="634.92" r="8.05" class="cls-15" transform="rotate(-21.6 630.76 638.68)"/>
        <path d="M654.23 601.55a6.39 6.39 0 1 0 8.47-3.18 6.41 6.41 0 0 0-8.47 3.18zM602.43 640.78a6.39 6.39 0 1 0 7.29 5.35 6.4 6.4 0 0 0-7.29-5.35zM686.45 615.63a4.08 4.08 0 1 0 1.45-5.6 4.09 4.09 0 0 0-1.45 5.6zM694.35 622.53a4.08 4.08 0 1 0 5 2.84 4.07 4.07 0 0 0-5-2.84zM696.2 601.32a2.34 2.34 0 1 0-3.3-.35 2.34 2.34 0 0 0 3.3.35z" class="cls-15"/>
        <circle cx="660.45" cy="654.28" r="8.05" class="cls-15" transform="rotate(-65.43 660.5 654.3)"/>
        <path d="M606.13 624a6.39 6.39 0 1 0 4.45 7.88 6.38 6.38 0 0 0-4.45-7.88z" class="cls-15"/>
        <circle cx="642.86" cy="640.85" r="10.71" class="cls-15" transform="rotate(-13.89 642.81 640.79)"/>
        <path d="M670.6 583.3a2.35 2.35 0 1 0-1.1-3.13 2.35 2.35 0 0 0 1.1 3.13zM682.74 590.88a2.34 2.34 0 1 0-.38-3.29 2.34 2.34 0 0 0 .38 3.29zM684.26 605.36a4.08 4.08 0 1 0-5.77 0 4.08 4.08 0 0 0 5.77 0zM672.39 634.62a8 8 0 1 0-6.22 9.54 8 8 0 0 0 6.22-9.54zM668.17 597.55a4.08 4.08 0 1 0-1.52-5.57 4.09 4.09 0 0 0 1.52 5.57zM682.85 651.44a6.4 6.4 0 1 0-5.71-7 6.4 6.4 0 0 0 5.71 7zM677.63 618.7a6.39 6.39 0 1 0-9-.48 6.39 6.39 0 0 0 9 .48zM683.78 635a6.4 6.4 0 1 0-8-4.19 6.39 6.39 0 0 0 8 4.19zM617.33 619.05a6.39 6.39 0 1 0-9 .77 6.39 6.39 0 0 0 9-.77zM684.41 663.33a6.39 6.39 0 1 0-8.67 2.56 6.39 6.39 0 0 0 8.67-2.56zM685.06 675.62a4.08 4.08 0 1 0 .1 5.77 4.08 4.08 0 0 0-.1-5.77zM669.14 683.79a4.09 4.09 0 1 0 5.61 1.39 4.09 4.09 0 0 0-5.61-1.39zM683.49 691a2.35 2.35 0 1 0 3.3.33 2.35 2.35 0 0 0-3.3-.33z" class="cls-15"/>
        <circle cx="654.53" cy="679.76" r="6.4" class="cls-15" transform="rotate(-2.77 655.43 680.7)"/>
        <path d="M671.47 698.73a2.35 2.35 0 1 0 2.09 4.2 2.35 2.35 0 0 0-2.09-4.2zM657.27 689a4.08 4.08 0 1 0 5.06 2.78 4.09 4.09 0 0 0-5.06-2.78zM658 703.64a2.35 2.35 0 1 0 2.83 1.73 2.34 2.34 0 0 0-2.83-1.73zM694.15 669.28a4.08 4.08 0 1 0-5.56 1.58 4.08 4.08 0 0 0 5.56-1.58zM672.75 677.33a6.4 6.4 0 1 0-9-1 6.4 6.4 0 0 0 9 1zM707.08 640.75a2.35 2.35 0 1 0 2.33-2.37 2.35 2.35 0 0 0-2.33 2.37zM708.2 628.28a2.35 2.35 0 1 0-2.82-1.75 2.36 2.36 0 0 0 2.82 1.75zM708.39 653.19a2.34 2.34 0 1 0 1.79 2.8 2.35 2.35 0 0 0-1.79-2.8zM701.65 609.91a2.35 2.35 0 1 0 3.14 1.08 2.35 2.35 0 0 0-3.14-1.08z" class="cls-15"/>
        <circle cx="695.35" cy="682.18" r="2.35" class="cls-15" transform="rotate(-82.97 695.33 682.18)"/>
        <circle cx="703.11" cy="669.53" r="2.35" class="cls-15" transform="rotate(-19.84 703.1 669.53)"/>
        <path d="M696.76 650.31a4.09 4.09 0 1 0 3 5 4.07 4.07 0 0 0-3-5z" class="cls-15"/>
        <circle cx="697.42" cy="640.34" r="4.09" class="cls-15" transform="rotate(-15.15 697.27 640.24)"/>
        <path d="M589.51 681.13a2.35 2.35 0 1 0 3.3.36 2.36 2.36 0 0 0-3.3-.36zM600.2 666.29a4.08 4.08 0 1 0-1.45 5.59 4.08 4.08 0 0 0 1.45-5.59zM603 691.57a2.35 2.35 0 1 0 .38 3.3 2.34 2.34 0 0 0-.38-3.3z" class="cls-15"/>
        <circle cx="605.29" cy="679.43" r="4.09" class="cls-15" transform="rotate(-49.07 605.24 679.4)"/>
        <path d="M577.51 654.18a2.34 2.34 0 1 0 2.82 1.74 2.35 2.35 0 0 0-2.82-1.74zM592.3 659.39a4.08 4.08 0 1 0-5-2.84 4.09 4.09 0 0 0 5 2.84zM614.91 659.62a6.39 6.39 0 1 0-1.84 8.86 6.4 6.4 0 0 0 1.84-8.86zM582 668.33a2.34 2.34 0 1 0 3.14 1.08 2.34 2.34 0 0 0-3.14-1.08zM593.31 641.52a4.09 4.09 0 1 0-4 4.14 4.07 4.07 0 0 0 4-4.14zM630.47 689.29a4.09 4.09 0 1 0 2.9 5 4.09 4.09 0 0 0-2.9-5z" class="cls-15"/>
        <circle cx="637.65" cy="680.95" r="6.4" class="cls-15" transform="rotate(-84.28 637.69 680.95)"/>
        <path d="M642.53 654.93a8 8 0 1 0 7.86 8.23 8 8 0 0 0-7.86-8.23zM642.86 705.46a2.35 2.35 0 1 0 2.34 2.34 2.35 2.35 0 0 0-2.34-2.34z" class="cls-15"/>
        <circle cx="643.32" cy="695.06" r="4.09" class="cls-15"/>
        <path d="M618.48 684.36a4.09 4.09 0 1 0 1.52 5.58 4.08 4.08 0 0 0-1.52-5.58z" class="cls-15"/>
        <circle cx="614.1" cy="701.27" r="2.35" class="cls-15" transform="rotate(-48.11 614.05 701.25)"/>
        <path d="M628.63 703.86a2.35 2.35 0 1 0 1.77 2.81 2.36 2.36 0 0 0-1.77-2.81zM627.34 678.6a6.4 6.4 0 1 0-8.82 2 6.4 6.4 0 0 0 8.82-2z" class="cls-15"/>
      </g>
    </g>
  </g>
</svg>
