<?xml version="1.0" encoding="utf-8"?>
<!-- Generator: Adobe Illustrator 23.0.1, SVG Export Plug-In . SVG Version: 6.00 Build 0)  -->
<svg version="1.1" id="Layer_1" xmlns="http://www.w3.org/2000/svg" xmlns:xlink="http://www.w3.org/1999/xlink" x="0px" y="0px"
	 viewBox="0 0 1000 240" style="enable-background:new 0 0 1000 240;" xml:space="preserve">
<style type="text/css">
	.st0{fill:#FFFFFF;}
</style>
<path class="st0" d="M103.2,120c0-12.9,10.4-23.3,23.3-23.3c12.9,0,23.3,10.4,23.3,23.3c0,12.9-10.4,23.3-23.3,23.3
	C113.7,143.3,103.2,132.9,103.2,120z M126.5,22c-45.7,0-84.1,31.3-94.9,73.7c-0.1,0.3-0.1,0.6-0.1,1c0,2.6,2.1,4.7,4.7,4.7h39.5
	c1.9,0,3.5-1.1,4.2-2.7l0,0c8.1-17.7,25.9-29.9,46.7-29.9c28.3,0,51.3,23,51.3,51.3c0,28.3-23,51.3-51.3,51.3
	c-20.7,0-38.5-12.3-46.7-30l0,0c-0.7-1.6-2.4-2.7-4.2-2.7H36.1c-2.6,0-4.7,2.1-4.7,4.7c0,0.3,0,0.6,0.1,0.9
	c10.8,42.4,49.2,73.7,94.9,73.7c54.1,0,98-43.9,98-98C224.5,65.9,180.7,22,126.5,22z M382.8,143h-13.3c-0.9,0-1.7,0.4-2.3,1.1
	c-7.7,11.4-20.8,19-35.7,19c-23.8,0-43.1-19.3-43.1-43.1s19.3-43.1,43.1-43.1c14.9,0,28,7.5,35.7,19c0.5,0.7,1.3,1.1,2.3,1.1h13.3
	c1.6,0,2.9-1.3,2.9-2.9c0-0.5-0.1-0.9-0.3-1.3c-9.9-19.7-30.3-33.2-53.9-33.2c-33.3,0-60.3,27-60.3,60.3c0,33.3,27,60.3,60.3,60.3
	c23.5,0,43.9-13.5,53.9-33.2c0.2-0.4,0.3-0.8,0.3-1.3C385.7,144.3,384.4,143,382.8,143z M423,39.6c0,6.3-5.1,11.5-11.5,11.5
	c-6.3,0-11.5-5.1-11.5-11.5s5.1-11.5,11.5-11.5C417.9,28.1,423,33.2,423,39.6z M420.2,174.6v-112h-17.2v112c0,1.6,1.3,2.9,2.9,2.9
	h11.5C418.9,177.4,420.2,176.1,420.2,174.6z M494.9,59.8c-17.4,0.8-31.3,9.1-40.2,21.8V65.4c0-1.6-1.3-2.9-2.9-2.9h-11.5
	c-1.6,0-2.9,1.3-2.9,2.9l0,0v109.1c0,1.6,1.3,2.9,2.9,2.9h11.5c1.6,0,2.9-1.3,2.9-2.9V120c0-22.8,17.8-41.5,40.2-43
	c1.6,0,2.9-1.3,2.9-2.9V62.6C497.7,61.1,496.4,59.8,494.9,59.8z M609.3,143H596c-0.9,0-1.8,0.4-2.3,1.1c-7.7,11.4-20.8,19-35.7,19
	c-23.8,0-43.1-19.3-43.1-43.1s19.3-43.1,43.1-43.1c14.9,0,27.9,7.5,35.7,19c0.5,0.7,1.3,1.1,2.3,1.1h13.3c1.6,0,2.9-1.3,2.9-2.9
	c0-0.5-0.1-0.9-0.3-1.3c-9.9-19.7-30.3-33.2-53.8-33.2c-33.3,0-60.3,27-60.3,60.3c0,33.3,27,60.3,60.3,60.3
	c23.5,0,43.9-13.5,53.8-33.2c0.2-0.4,0.3-0.8,0.3-1.3C612.2,144.3,610.9,143,609.3,143z M643.8,25.2h-11.5c-1.6,0-2.9,1.3-2.9,2.9
	v146.5c0,1.6,1.3,2.9,2.9,2.9h11.5c1.6,0,2.9-1.3,2.9-2.9V28.1C646.6,26.5,645.3,25.2,643.8,25.2z M724.2,59.7
	c-33.3,0-60.3,27-60.3,60.3c0,33.3,27,60.3,60.3,60.3c23.5,0,43.9-13.5,53.9-33.2c0.2-0.4,0.3-0.8,0.3-1.3c0-1.6-1.3-2.9-2.9-2.9
	h-13.3c-0.9,0-1.8,0.5-2.3,1.2c-7.8,11.4-20.8,18.9-35.7,18.9c-21.8,0-39.9-16.3-42.7-37.3h100c1.5,0,2.8-1.2,2.9-2.7
	c0.1-1,0.1-2,0.1-3C784.5,86.7,757.5,59.7,724.2,59.7z M682.7,108.5c5-18.2,21.7-31.6,41.5-31.6c19.8,0,36.5,13.4,41.5,31.6H682.7z
	 M951.3,22.4c-9.5,0-17.2,7.7-17.2,17.2c0,9.5,7.7,17.2,17.2,17.2c9.5,0,17.2-7.7,17.2-17.2C968.5,30.1,960.8,22.4,951.3,22.4z
	 M965.6,62.6v112c0,1.6-1.3,2.9-2.9,2.9h-23c-1.6,0-2.9-1.3-2.9-2.9v-112H965.6z M862,180.3c28.2,0,51.8-19.3,58.4-45.4
	c0-0.2,0.1-0.4,0.1-0.6c0-1.6-1.3-2.9-2.9-2.9h-24.3c-1.2,0-2.1,0.7-2.6,1.7l0,0c-5,10.9-16,18.4-28.7,18.4
	c-17.4,0-31.6-14.1-31.6-31.6c0-17.4,14.2-31.6,31.6-31.6c12.7,0,23.7,7.6,28.7,18.4l0,0c0.5,1,1.4,1.7,2.6,1.7h24.3
	c1.6,0,2.9-1.3,2.9-2.9c0-0.2,0-0.4-0.1-0.6C913.8,79,890.2,59.7,862,59.7c-33.3,0-60.3,27-60.3,60.3
	C801.7,153.3,828.7,180.3,862,180.3z"/>
</svg>
