<svg width="208" height="190" viewBox="0 0 208 190" fill="none" xmlns="http://www.w3.org/2000/svg">
<path d="M206.18 179.213H152.281C151.826 179.563 151.371 179.913 150.881 180.264H207.965L181.051 133.613C180.946 134.103 180.841 134.629 180.701 135.119L206.18 179.213Z" fill="#DEA459"/>
<path d="M1.81996 179.213L27.1944 135.224C27.0894 134.734 26.9494 134.208 26.8444 133.718L0 180.264H57.0136C56.5587 179.913 56.1037 179.563 55.6137 179.213H1.81996Z" fill="#DEA459"/>
<path d="M104.017 2.10138L126.452 41.012C126.942 41.1521 127.432 41.2922 127.922 41.4673L104.017 0L80.113 41.4323C80.603 41.2922 81.093 41.1171 81.583 40.977L104.017 2.10138Z" fill="#DEA459"/>
<path d="M177.271 116.697C177.271 76.2802 144.407 43.3936 104.018 43.3936C63.6285 43.3936 30.7993 76.2802 30.7993 116.697C30.7993 157.113 63.6635 190 104.053 190C144.442 190 177.271 157.113 177.271 116.697ZM140.522 178.618L131.142 162.332C134.887 160.09 138.387 157.394 141.537 154.206C151.406 144.33 156.901 131.231 157.041 117.257H175.871C175.696 143.349 161.521 166.184 140.522 178.618ZM78.0482 116.697C78.0482 102.337 89.7029 90.6747 104.053 90.6747C118.402 90.6747 130.057 102.337 130.057 116.697C130.057 131.056 118.402 142.719 104.053 142.719C89.7029 142.719 78.0482 131.056 78.0482 116.697ZM111.087 167.515C110.982 167.48 110.877 167.445 110.807 167.41C110.737 167.375 110.667 167.34 110.597 167.305C110.492 167.27 110.387 167.2 110.282 167.165C110.212 167.13 110.177 167.13 110.107 167.095C109.967 167.025 109.862 166.955 109.722 166.885C109.687 166.885 109.652 166.85 109.652 166.85C109.512 166.78 109.337 166.675 109.197 166.605C107.657 165.799 106.048 164.959 102.933 164.959C99.7827 164.959 98.2077 165.799 96.6677 166.605C96.5627 166.64 96.4927 166.71 96.3877 166.745C96.3527 166.745 96.3527 166.78 96.3177 166.78C96.2477 166.815 96.1427 166.85 96.0727 166.92C96.0377 166.955 95.9678 166.955 95.9327 166.99C95.8627 167.025 95.7927 167.06 95.7227 167.095C95.6528 167.13 95.6178 167.165 95.5478 167.165C95.4778 167.2 95.4428 167.2 95.3728 167.235C90.0879 166.324 84.978 164.608 80.2181 162.122C80.2181 162.122 80.2181 162.122 80.2531 162.122C80.4631 162.157 80.6381 162.192 80.8481 162.227C80.8831 162.227 80.8831 162.227 80.9181 162.227C81.0931 162.262 81.2681 162.297 81.4431 162.367C81.4781 162.367 81.5131 162.367 81.5481 162.402C81.7231 162.437 81.8631 162.507 82.0381 162.542C82.0731 162.542 82.1081 162.577 82.1081 162.577C82.2831 162.647 82.4231 162.682 82.5631 162.752C82.5631 162.752 82.5631 162.752 82.5981 162.752C82.7381 162.822 82.8781 162.857 83.0181 162.927C83.0531 162.927 83.0531 162.962 83.0881 162.962C83.2281 163.032 83.368 163.102 83.473 163.137C83.508 163.137 83.543 163.172 83.543 163.172C83.683 163.242 83.788 163.312 83.928 163.347C83.963 163.347 83.963 163.382 83.998 163.382C84.138 163.453 84.243 163.523 84.383 163.593C85.923 164.398 87.5329 165.239 90.6479 165.239C93.7628 165.239 95.3728 164.398 96.9127 163.593C97.2977 163.382 97.6477 163.207 98.0677 162.997C99.1527 162.472 100.448 162.052 102.373 161.982C102.548 161.982 102.723 161.982 102.933 161.982C105.908 161.982 107.447 162.787 108.917 163.558C110.457 164.363 112.067 165.204 115.182 165.204C115.567 165.204 115.952 165.204 116.302 165.169C116.862 165.134 117.387 165.064 117.842 164.959C118.647 164.783 119.347 164.573 119.942 164.293C120.012 164.258 120.082 164.223 120.152 164.188C120.187 164.188 120.222 164.153 120.257 164.153C120.677 163.943 121.062 163.768 121.447 163.558C122.917 162.787 124.457 161.982 127.432 161.982C127.642 161.982 127.887 161.982 128.097 161.982C122.812 164.853 117.072 166.675 111.087 167.515ZM109.302 167.375C109.337 167.41 109.372 167.41 109.442 167.445C109.547 167.515 109.687 167.55 109.792 167.62C109.827 167.655 109.862 167.655 109.897 167.69C105.418 168.181 100.868 168.111 96.3877 167.445C96.5627 167.375 96.7377 167.27 96.8777 167.165C98.3477 166.394 99.8876 165.589 102.863 165.589C105.838 165.589 107.377 166.394 108.847 167.165C109.022 167.2 109.162 167.305 109.302 167.375ZM69.4734 154.206C69.5784 154.171 69.6484 154.136 69.7534 154.136C69.8234 154.101 69.8934 154.101 69.9634 154.066C70.0684 154.031 70.1384 153.996 70.2434 153.961C70.3134 153.926 70.3834 153.926 70.4184 153.891C70.4884 153.856 70.5934 153.821 70.6634 153.786C70.7334 153.751 70.7683 153.751 70.8383 153.716C70.9083 153.681 71.0133 153.646 71.0833 153.611C71.1533 153.576 71.1883 153.576 71.2583 153.541C71.3283 153.506 71.4333 153.471 71.5033 153.436C71.5383 153.401 71.6083 153.401 71.6433 153.366C71.7483 153.331 71.8183 153.261 71.9233 153.226C71.9583 153.191 71.9933 153.191 72.0283 153.156C72.1683 153.086 72.2733 153.016 72.3783 152.946C73.8483 152.175 75.3882 151.37 78.3632 151.37C78.5382 151.37 78.7482 151.37 78.9232 151.37C81.3731 151.44 82.8081 152.105 84.103 152.806C84.208 152.841 84.278 152.911 84.383 152.946C85.923 153.751 87.5329 154.592 90.6479 154.592C93.7628 154.592 95.3728 153.751 96.9127 152.946C98.3827 152.175 99.9227 151.37 102.898 151.37C105.313 151.37 106.782 151.895 108.042 152.525C108.322 152.665 108.602 152.806 108.882 152.946C110.422 153.751 112.032 154.592 115.147 154.592C118.297 154.592 119.872 153.751 121.412 152.946C121.797 152.735 122.147 152.56 122.567 152.35C123.652 151.825 124.947 151.405 126.872 151.335C127.047 151.335 127.222 151.335 127.432 151.335C127.607 151.335 127.817 151.335 127.992 151.335C129.742 151.405 130.967 151.755 131.982 152.21C132.087 152.245 132.192 152.315 132.297 152.35C132.507 152.455 132.682 152.525 132.892 152.63C133.067 152.735 133.277 152.841 133.452 152.911C133.522 152.946 133.627 153.016 133.697 153.051C133.732 153.051 133.767 153.086 133.802 153.086C133.872 153.121 133.907 153.156 133.977 153.156C134.012 153.191 134.047 153.191 134.082 153.226C134.117 153.261 134.187 153.261 134.222 153.296C134.257 153.331 134.292 153.331 134.362 153.366C134.397 153.401 134.467 153.401 134.502 153.436C134.537 153.471 134.572 153.471 134.642 153.506C134.677 153.541 134.747 153.541 134.782 153.576C134.817 153.611 134.887 153.611 134.922 153.646C134.957 153.681 135.027 153.681 135.062 153.716C135.097 153.751 135.167 153.751 135.202 153.786C135.272 153.821 135.307 153.821 135.377 153.856C135.412 153.891 135.482 153.891 135.517 153.926C135.587 153.961 135.622 153.961 135.692 153.996C135.727 154.031 135.797 154.031 135.832 154.066C135.902 154.101 135.937 154.101 136.007 154.136C136.077 154.136 136.112 154.171 136.182 154.171C136.252 154.206 136.287 154.206 136.357 154.206C136.427 154.206 136.462 154.241 136.532 154.241C136.602 154.241 136.672 154.277 136.742 154.277C136.812 154.277 136.847 154.312 136.917 154.312C136.987 154.312 137.057 154.347 137.127 154.347C137.197 154.347 137.267 154.382 137.302 154.382C137.372 154.382 137.442 154.417 137.512 154.417C137.582 154.417 137.652 154.452 137.722 154.452C137.792 154.452 137.862 154.487 137.932 154.487C138.002 154.487 138.072 154.522 138.142 154.522C138.212 154.522 138.282 154.522 138.387 154.557C138.457 154.557 138.527 154.557 138.632 154.592H138.667C137.757 155.432 136.812 156.238 135.867 156.973C135.762 156.938 135.622 156.903 135.517 156.833C135.447 156.798 135.377 156.763 135.307 156.763C135.167 156.693 135.062 156.658 134.922 156.588C134.852 156.553 134.782 156.518 134.747 156.518C134.607 156.448 134.467 156.378 134.327 156.308C134.292 156.273 134.257 156.273 134.222 156.238C134.047 156.133 133.872 156.063 133.697 155.958C132.157 155.152 130.547 154.312 127.432 154.312C124.282 154.312 122.707 155.152 121.167 155.958C120.782 156.168 120.432 156.343 120.012 156.553C118.822 157.113 117.387 157.569 115.147 157.569C112.172 157.569 110.632 156.763 109.162 155.993C107.622 155.187 106.013 154.347 102.898 154.347C99.7477 154.347 98.1727 155.187 96.6327 155.993C95.1628 156.763 93.6228 157.569 90.6479 157.569C87.6729 157.569 86.133 156.763 84.663 155.993C83.1231 155.187 81.5131 154.347 78.3982 154.347C75.2482 154.347 73.6733 155.187 72.1333 155.993C71.9233 156.098 71.7133 156.238 71.4683 156.343C70.6984 155.712 69.9284 155.012 69.1584 154.312C69.1934 154.312 69.2284 154.277 69.2984 154.277C69.3334 154.241 69.4034 154.206 69.4734 154.206ZM109.197 152.42C107.937 151.755 106.607 151.054 104.403 150.844V144.05C105.768 144.05 107.132 143.91 108.462 143.7L110.072 152.911C109.757 152.735 109.477 152.56 109.197 152.42ZM103.703 150.774C103.458 150.774 103.178 150.739 102.898 150.739C100.798 150.739 99.3977 151.124 98.2427 151.615L99.6427 143.665C100.973 143.875 102.303 143.98 103.703 144.015V150.774ZM115.182 153.996C113.257 153.996 111.927 153.646 110.842 153.226L109.127 143.559C110.457 143.314 111.787 142.964 113.047 142.509L117.177 153.891C116.617 153.961 115.952 153.996 115.182 153.996ZM98.9777 143.524L97.5077 151.965C97.2277 152.105 96.9127 152.245 96.6327 152.42C95.1978 153.191 93.6928 153.961 90.8579 153.996L95.0578 142.474C96.3177 142.929 97.6127 143.279 98.9777 143.524ZM133.907 156.763C133.942 156.798 134.012 156.798 134.047 156.833C134.152 156.903 134.292 156.938 134.397 157.008C134.467 157.043 134.537 157.078 134.572 157.113C134.677 157.148 134.782 157.218 134.887 157.253C134.957 157.288 135.027 157.324 135.097 157.359C135.167 157.394 135.202 157.394 135.272 157.429C134.502 158.024 133.697 158.584 132.927 159.145C132.892 159.145 132.892 159.11 132.857 159.11C132.822 159.075 132.752 159.075 132.717 159.04C132.682 159.005 132.647 159.005 132.612 158.97C132.577 158.935 132.542 158.935 132.472 158.9C132.437 158.865 132.402 158.865 132.332 158.83C132.297 158.794 132.262 158.794 132.192 158.759C132.157 158.724 132.087 158.724 132.052 158.689C132.017 158.654 131.982 158.654 131.912 158.619C131.877 158.584 131.807 158.584 131.772 158.549C131.737 158.549 131.702 158.514 131.632 158.514C131.597 158.479 131.527 158.479 131.492 158.444C131.457 158.444 131.387 158.409 131.352 158.409C131.282 158.374 131.247 158.374 131.177 158.339C131.142 158.339 131.072 158.304 131.037 158.304C130.967 158.269 130.932 158.269 130.862 158.269C130.827 158.269 130.757 158.234 130.722 158.234C130.652 158.234 130.582 158.199 130.547 158.199C130.512 158.199 130.442 158.164 130.407 158.164C130.337 158.164 130.267 158.129 130.197 158.129C130.127 158.129 130.092 158.094 130.022 158.094C129.952 158.094 129.882 158.059 129.812 158.059C129.742 158.059 129.707 158.024 129.637 158.024C129.567 158.024 129.497 157.989 129.392 157.989C129.322 157.989 129.287 157.954 129.217 157.954C129.147 157.954 129.042 157.919 128.972 157.919C128.902 157.919 128.867 157.919 128.797 157.884C128.692 157.884 128.622 157.884 128.517 157.849C128.447 157.849 128.412 157.849 128.342 157.849C128.237 157.849 128.132 157.849 128.027 157.849C127.957 157.849 127.922 157.849 127.852 157.849C127.677 157.849 127.537 157.849 127.362 157.849C127.152 157.849 126.977 157.849 126.802 157.849C124.037 157.954 122.532 158.724 121.097 159.495C120.712 159.705 120.362 159.88 119.942 160.09C118.752 160.651 117.317 161.106 115.077 161.106C112.102 161.106 110.562 160.3 109.092 159.53C107.552 158.724 105.942 157.884 102.828 157.884C99.6777 157.884 98.1027 158.724 96.5627 159.53C95.0928 160.3 93.5528 161.106 90.5779 161.106C90.4029 161.106 90.1929 161.106 90.0179 161.106C87.568 161.036 86.133 160.371 84.838 159.67C84.733 159.635 84.663 159.565 84.558 159.53C83.0181 158.724 81.4081 157.884 78.2932 157.884C78.0832 157.884 77.9082 157.884 77.6982 157.884C77.6282 157.884 77.5932 157.884 77.5232 157.884C77.3832 157.884 77.2782 157.884 77.1382 157.919C77.0682 157.919 76.9982 157.919 76.9282 157.954C76.8232 157.954 76.7182 157.989 76.5782 157.989C76.5082 157.989 76.4382 158.024 76.3682 158.024C76.2632 158.024 76.1582 158.059 76.0532 158.059C75.9832 158.059 75.9132 158.094 75.8432 158.094C75.7382 158.094 75.6682 158.129 75.5632 158.164C75.4932 158.164 75.4232 158.199 75.3532 158.199C75.2482 158.234 75.1782 158.234 75.0732 158.269C75.0033 158.304 74.9333 158.304 74.8633 158.339C74.7933 158.374 74.6883 158.374 74.6183 158.409C74.5483 158.444 74.4783 158.444 74.4083 158.479C74.3383 158.514 74.2683 158.514 74.1983 158.549C73.4283 157.989 72.6583 157.394 71.8533 156.798C71.9933 156.728 72.1333 156.658 72.2733 156.588C73.7433 155.818 75.2832 155.012 78.2582 155.012C81.2331 155.012 82.7731 155.818 84.243 156.588C85.783 157.394 87.393 158.234 90.5079 158.234C93.6228 158.234 95.2328 157.394 96.7727 156.588C98.2427 155.818 99.7827 155.012 102.758 155.012C105.173 155.012 106.642 155.537 107.902 156.168C108.182 156.308 108.462 156.448 108.742 156.588C110.282 157.394 111.892 158.234 115.007 158.234C118.157 158.234 119.732 157.394 121.272 156.588C122.742 155.818 124.282 155.012 127.257 155.012C130.232 155.012 131.772 155.818 133.242 156.588C133.592 156.588 133.732 156.658 133.907 156.763ZM129.112 161.491C128.937 161.456 128.762 161.456 128.552 161.456C128.482 161.456 128.377 161.456 128.307 161.421C128.027 161.421 127.747 161.386 127.432 161.386C127.222 161.386 127.047 161.386 126.872 161.386C124.107 161.491 122.602 162.262 121.167 163.032C119.697 163.803 118.157 164.608 115.182 164.608C112.207 164.608 110.667 163.803 109.197 163.032C107.657 162.227 106.048 161.386 102.933 161.386C99.7827 161.386 98.2077 162.227 96.6677 163.032C96.3877 163.172 96.1077 163.312 95.8277 163.453C94.6728 164.013 93.3428 164.538 91.2079 164.608C91.0329 164.608 90.8579 164.608 90.6479 164.608C90.4729 164.608 90.2629 164.608 90.0879 164.608C88.1629 164.538 86.868 164.118 85.783 163.593C85.398 163.418 85.013 163.207 84.628 162.997C84.453 162.892 84.278 162.787 84.068 162.717C83.963 162.682 83.893 162.612 83.788 162.577C83.788 162.577 83.788 162.577 83.753 162.577C83.648 162.542 83.578 162.507 83.473 162.437C83.473 162.437 83.438 162.437 83.438 162.402C83.368 162.367 83.2631 162.332 83.1931 162.297C83.1581 162.297 83.1581 162.262 83.1231 162.262C83.0531 162.227 82.9481 162.192 82.8781 162.157C82.8431 162.157 82.8081 162.122 82.7731 162.122C82.7031 162.087 82.6331 162.052 82.5631 162.052C82.5281 162.052 82.4931 162.017 82.4231 162.017C82.3531 161.982 82.2831 161.982 82.2131 161.947C82.1781 161.947 82.1081 161.912 82.0731 161.912C82.0031 161.877 81.9331 161.877 81.8631 161.841C81.8281 161.841 81.7581 161.806 81.6881 161.806C81.6181 161.771 81.5481 161.771 81.4781 161.736C81.4081 161.736 81.3381 161.701 81.3031 161.701C81.2331 161.701 81.1631 161.666 81.0931 161.666C81.0231 161.666 80.9531 161.631 80.8831 161.631C80.8131 161.631 80.7431 161.596 80.6731 161.596C80.6031 161.596 80.5331 161.561 80.4631 161.561C80.3931 161.561 80.3231 161.526 80.2531 161.526C80.1831 161.526 80.0781 161.491 80.0081 161.491C79.9381 161.491 79.8681 161.456 79.7981 161.456C79.7281 161.456 79.6231 161.456 79.5531 161.421C79.4831 161.421 79.4131 161.421 79.3431 161.386C79.2381 161.386 79.1681 161.386 79.0631 161.386C78.9932 161.386 78.9232 161.386 78.8532 161.386C77.4882 160.616 76.1582 159.775 74.8983 158.9H74.9333C75.1782 158.83 75.3882 158.759 75.6332 158.724C75.6682 158.724 75.7032 158.689 75.7382 158.689C75.9832 158.654 76.2282 158.584 76.4732 158.549C76.5082 158.549 76.5432 158.549 76.6132 158.549C76.8582 158.514 77.1382 158.479 77.3832 158.479C77.4182 158.479 77.4532 158.479 77.4882 158.479C77.7682 158.479 78.0482 158.444 78.3632 158.444C78.5382 158.444 78.7482 158.444 78.9232 158.444C81.3731 158.514 82.8081 159.18 84.103 159.88C84.208 159.915 84.278 159.985 84.383 160.02C85.923 160.826 87.5329 161.666 90.6479 161.666C93.7628 161.666 95.3728 160.826 96.9127 160.02C98.3827 159.25 99.9227 158.444 102.898 158.444C105.313 158.444 106.782 158.97 108.042 159.6C108.322 159.74 108.602 159.88 108.882 160.02C110.422 160.826 112.032 161.666 115.147 161.666C116.127 161.666 116.967 161.596 117.702 161.456C119.312 161.141 120.397 160.581 121.447 160.02C122.917 159.25 124.457 158.444 127.432 158.444C127.572 158.444 127.712 158.444 127.887 158.444C127.922 158.444 127.992 158.444 128.027 158.444C128.132 158.444 128.202 158.444 128.307 158.444C128.377 158.444 128.412 158.444 128.482 158.444C128.552 158.444 128.657 158.444 128.727 158.479C128.797 158.479 128.832 158.479 128.902 158.479C128.972 158.479 129.042 158.479 129.112 158.514C129.147 158.514 129.217 158.514 129.252 158.549C129.322 158.549 129.392 158.584 129.462 158.584C129.497 158.584 129.567 158.584 129.602 158.619C129.672 158.619 129.742 158.654 129.812 158.654C129.847 158.654 129.917 158.689 129.952 158.689C130.022 158.689 130.092 158.724 130.127 158.724C130.162 158.724 130.232 158.759 130.267 158.759C130.337 158.759 130.407 158.794 130.442 158.794C130.477 158.794 130.512 158.83 130.547 158.83C130.617 158.83 130.652 158.865 130.722 158.865C130.757 158.865 130.792 158.9 130.827 158.9C130.897 158.935 130.932 158.935 131.002 158.97C131.037 158.97 131.072 159.005 131.107 159.005C131.177 159.04 131.247 159.04 131.282 159.075C131.317 159.075 131.352 159.11 131.352 159.11C131.422 159.145 131.492 159.145 131.562 159.18C131.562 159.18 131.597 159.18 131.597 159.215C131.667 159.25 131.772 159.285 131.842 159.32C131.877 159.32 131.877 159.355 131.912 159.355C131.982 159.39 132.017 159.39 132.087 159.425C132.122 159.46 132.157 159.46 132.227 159.495C132.262 159.495 132.297 159.53 132.332 159.53C131.317 160.195 130.232 160.861 129.112 161.491ZM121.167 152.42C120.222 152.911 119.242 153.436 117.877 153.751L113.712 142.264C114.972 141.773 116.197 141.213 117.387 140.547L123.617 151.335C122.672 151.615 121.902 152 121.167 152.42ZM94.3928 142.264L90.1229 153.996C87.463 153.926 86.028 153.156 84.663 152.42C84.453 152.315 84.278 152.21 84.068 152.105L90.7529 140.547C91.9078 141.178 93.1328 141.773 94.3928 142.264ZM127.432 150.739C126.172 150.739 125.157 150.879 124.282 151.089L117.982 140.162C119.137 139.462 120.257 138.691 121.307 137.816L133.382 152.21C131.947 151.475 130.372 150.739 127.432 150.739ZM90.1229 140.162L83.438 151.79C82.2131 151.229 80.7081 150.739 78.3982 150.739C77.3832 150.739 76.5432 150.844 75.8082 150.984L86.833 137.851C87.8479 138.691 88.9329 139.497 90.1229 140.162ZM94.7778 167.515L95.2678 167.585C93.6228 167.305 92.0128 166.955 90.4379 166.5C91.8728 166.92 93.3078 167.235 94.7778 167.515ZM90.0529 166.43C89.8779 166.394 89.7379 166.324 89.5629 166.289C89.7379 166.324 89.9129 166.359 90.0529 166.43ZM88.8629 166.079C88.7579 166.044 88.6529 166.009 88.5479 165.974C88.6529 166.009 88.7579 166.044 88.8629 166.079ZM87.5679 165.659C87.5329 165.659 87.4979 165.624 87.4629 165.624C87.4979 165.624 87.5329 165.624 87.5679 165.659ZM95.7928 167.69H95.8627C98.5577 168.111 101.323 168.356 104.088 168.356C105.173 168.356 106.222 168.321 107.307 168.251C106.222 168.321 105.173 168.356 104.088 168.356C101.113 168.356 98.2427 168.111 95.4078 167.62L95.7928 167.69ZM110.527 167.935H110.562L110.772 167.9C110.177 167.971 109.582 168.041 108.952 168.111C109.477 168.076 110.002 168.006 110.527 167.935ZM108.917 168.111C108.392 168.146 107.867 168.216 107.342 168.216C107.867 168.216 108.392 168.146 108.917 168.111ZM111.192 167.865C111.227 167.83 111.192 167.83 111.192 167.865V167.865ZM111.787 167.76C112.732 167.62 113.642 167.445 114.587 167.27C113.642 167.445 112.732 167.62 111.787 167.76ZM139.752 153.996H139.402C136.637 153.926 135.167 153.156 133.732 152.42C133.627 152.385 133.557 152.315 133.452 152.28L133.977 151.86L121.867 137.395C122.882 136.52 123.862 135.539 124.737 134.524L136.252 144.19L136.707 143.665L125.192 133.998C126.032 132.947 126.837 131.827 127.537 130.671L143.847 140.092L144.197 139.497L127.887 130.076C128.552 128.885 129.112 127.659 129.602 126.398L143.707 131.547L143.952 130.881L129.812 125.733C130.267 124.472 130.617 123.141 130.862 121.81L149.411 125.067L149.516 124.367L130.967 121.11C131.177 119.779 131.282 118.448 131.317 117.047H146.332V116.347H131.317C131.317 114.981 131.177 113.615 130.967 112.284L149.516 109.027L149.411 108.326L130.862 111.583C130.617 110.253 130.267 108.922 129.812 107.661L143.917 102.512L143.672 101.847L129.567 106.995C129.077 105.735 128.517 104.509 127.852 103.318L144.162 93.8968L143.812 93.3014L127.502 102.723C126.802 101.567 126.032 100.446 125.157 99.3954L136.672 89.729L136.217 89.2037L124.702 98.8701C123.827 97.8544 122.847 96.8737 121.832 95.9982L133.942 81.5336L133.417 81.0783L121.307 95.5078C120.257 94.6673 119.137 93.8618 117.982 93.1613L125.507 80.1327L124.912 79.7825L117.387 92.8111C116.197 92.1456 114.972 91.5853 113.712 91.0949L120.152 73.3733L119.487 73.1281L113.047 90.9198C111.787 90.4645 110.457 90.1143 109.127 89.8691L111.752 75.0544L111.052 74.9493L108.462 89.7641C107.132 89.5539 105.803 89.4489 104.403 89.4138V70.5714H103.703V89.4138C102.338 89.4138 100.973 89.5539 99.6427 89.7641L97.0177 74.9493L96.3177 75.0544L98.9427 89.8691C97.6127 90.1143 96.2827 90.4645 95.0228 90.9198L88.5829 73.1982L87.9179 73.4433L94.3578 91.165C93.0978 91.6553 91.8728 92.2157 90.6829 92.8811L83.1931 79.8525L82.5981 80.2028L90.1229 93.2313C88.9679 93.9318 87.8479 94.7023 86.798 95.5779L74.6883 81.1484L74.1633 81.6037L86.273 96.0682C85.258 96.9438 84.278 97.9244 83.403 98.9401L71.8883 89.2737L71.4333 89.7991L82.9481 99.4654C82.1081 100.516 81.3031 101.637 80.6031 102.793L64.2935 93.3714L63.9435 93.9668L80.2531 103.388C79.5881 104.579 79.0282 105.805 78.5382 107.065L64.4335 101.917L64.1885 102.582L78.2932 107.731C77.8382 108.992 77.4882 110.323 77.2432 111.653L58.6936 108.396L58.5886 109.097L77.1382 112.354C76.9282 113.685 76.8232 115.016 76.7882 116.417H61.7736V117.117H76.7882C76.7882 118.483 76.9282 119.849 77.1382 121.18L58.5886 124.437L58.6936 125.137L77.2432 121.88C77.4882 123.211 77.8382 124.542 78.2932 125.803L64.1885 130.951L64.4335 131.617L78.5382 126.468C79.0282 127.729 79.5881 128.955 80.2531 130.146L63.9435 139.567L64.2935 140.162L80.6031 130.741C81.3031 131.897 82.0731 133.018 82.9481 134.068L71.4333 143.735L71.8883 144.26L83.403 134.594C84.278 135.609 85.258 136.59 86.273 137.465L74.6183 151.37C73.6383 151.685 72.8683 152.105 72.0983 152.49C71.0833 153.016 70.0334 153.576 68.4934 153.891L68.2134 153.961C58.4836 144.575 52.4638 131.406 52.4638 116.837C52.4638 88.3281 75.5632 65.2129 104.053 65.2129C132.542 65.2129 155.641 88.3281 155.641 116.837C155.641 131.371 149.551 144.61 139.752 153.996ZM175.871 116.206H157.041C156.901 102.232 151.406 89.0986 141.537 79.1871C138.317 75.965 134.747 73.1982 130.897 70.9567C132.402 68.1899 134.012 65.4931 135.552 62.9364C137.127 60.2747 138.772 57.5429 140.312 54.706C161.451 67.1042 175.696 90.0092 175.871 116.206ZM104.053 44.8295C116.897 44.8295 128.972 48.2267 139.437 54.1806C137.897 57.0175 136.252 59.7493 134.677 62.4111C133.137 65.0028 131.527 67.6645 130.022 70.4664C122.182 66.0535 113.327 63.7069 104.088 63.7069C94.7778 63.7069 85.818 66.0885 77.9432 70.6065C76.1932 67.3843 74.3033 64.1972 72.4833 61.1152C71.1883 58.9088 69.8234 56.5972 68.5284 54.3207C78.9932 48.2618 91.1029 44.8295 104.053 44.8295ZM67.5834 54.776C68.8784 57.0525 70.2434 59.3641 71.5383 61.5705C73.3583 64.6525 75.2482 67.8747 76.9982 71.0618C73.2533 73.3032 69.7534 76 66.5685 79.1871C56.6987 89.0636 51.2038 102.162 51.0638 116.136H32.1993C32.4093 90.0443 46.5839 67.2442 67.5834 54.776ZM32.1993 117.187H51.0638C51.2038 131.161 56.6987 144.295 66.5685 154.206C69.7884 157.429 73.3583 160.195 77.1732 162.437L67.7584 178.723C46.6539 166.324 32.3743 143.419 32.1993 117.187ZM68.7034 179.283L78.1182 162.997C85.958 167.41 94.8128 169.757 104.053 169.757C113.362 169.757 122.322 167.375 130.232 162.857L139.647 179.143C129.147 185.167 117.002 188.599 104.088 188.599C91.2079 188.599 79.1332 185.202 68.7034 179.283Z" fill="#DEA459"/>
<path d="M164.356 145.381H162.256C162.011 143.665 160.541 142.369 158.756 142.369C156.971 142.369 155.501 143.7 155.256 145.381H153.156C152.876 145.381 152.631 145.626 152.631 145.906C152.631 146.186 152.876 146.431 153.156 146.431H155.256C155.501 148.147 156.971 149.443 158.756 149.443C160.541 149.443 162.011 148.112 162.256 146.431H164.356C164.636 146.431 164.881 146.186 164.881 145.906C164.881 145.626 164.636 145.381 164.356 145.381ZM158.756 148.428C157.391 148.428 156.271 147.307 156.271 145.941C156.271 144.575 157.391 143.454 158.756 143.454C160.121 143.454 161.241 144.575 161.241 145.941C161.241 147.307 160.121 148.428 158.756 148.428Z" fill="#DEA459"/>
<path d="M100.238 52.1494V52.2194C100.238 53.4452 101.147 54.4259 102.232 54.4259H103.527V56.5623C102.687 56.8075 102.057 57.578 102.057 58.4886C102.057 59.5743 102.967 60.4849 104.052 60.4849C105.137 60.4849 106.047 59.5743 106.047 58.4886C106.047 57.578 105.417 56.8075 104.577 56.5623V54.4259H105.872C106.957 54.4259 107.867 53.4452 107.867 52.2194V52.1494C108.707 51.9042 109.337 51.1337 109.337 50.2231C109.337 49.1374 108.427 48.2268 107.342 48.2268C106.257 48.2268 105.347 49.1374 105.347 50.2231C105.347 51.1337 105.977 51.9042 106.817 52.1494V52.2194C106.817 52.8498 106.397 53.3752 105.872 53.3752H102.197C101.672 53.3752 101.252 52.8498 101.252 52.2194V52.1494C102.092 51.9042 102.722 51.1337 102.722 50.2231C102.722 49.1374 101.812 48.2268 100.727 48.2268C99.6425 48.2268 98.7325 49.1374 98.7325 50.2231C98.7675 51.1337 99.3975 51.9042 100.238 52.1494ZM104.997 58.4886C104.997 59.0139 104.577 59.4342 104.052 59.4342C103.527 59.4342 103.107 59.0139 103.107 58.4886C103.107 57.9632 103.527 57.5429 104.052 57.5429C104.577 57.5429 104.997 57.9632 104.997 58.4886ZM106.432 50.2231C106.432 49.6978 106.852 49.2775 107.377 49.2775C107.902 49.2775 108.322 49.6978 108.322 50.2231C108.322 50.7485 107.902 51.1687 107.377 51.1687C106.852 51.1687 106.432 50.7485 106.432 50.2231ZM100.762 49.2775C101.287 49.2775 101.707 49.6978 101.707 50.2231C101.707 50.7485 101.287 51.1687 100.762 51.1687C100.238 51.1687 99.8175 50.7485 99.8175 50.2231C99.8175 49.6978 100.238 49.2775 100.762 49.2775Z" fill="#DEA459"/>
<path d="M98.6978 182.995C98.6978 184.081 99.6077 184.992 100.693 184.992C101.778 184.992 102.688 184.081 102.688 182.995C102.688 182.085 102.058 181.314 101.218 181.069V176.656C102.058 176.411 102.688 175.641 102.688 174.73C102.688 173.644 101.778 172.734 100.693 172.734C99.6077 172.734 98.6978 173.644 98.6978 174.73C98.6978 175.641 99.3277 176.411 100.168 176.656V181.069C99.3277 181.314 98.6978 182.085 98.6978 182.995ZM99.7477 174.73C99.7477 174.205 100.168 173.784 100.693 173.784C101.218 173.784 101.638 174.205 101.638 174.73C101.638 175.255 101.218 175.676 100.693 175.676C100.168 175.676 99.7477 175.255 99.7477 174.73ZM101.638 182.995C101.638 183.521 101.218 183.941 100.693 183.941C100.168 183.941 99.7477 183.521 99.7477 182.995C99.7477 182.47 100.168 182.05 100.693 182.05C101.218 182.05 101.638 182.47 101.638 182.995Z" fill="#DEA459"/>
<path d="M105.173 176.726C105.313 176.726 105.453 176.691 105.558 176.586C105.768 176.376 105.768 176.061 105.558 175.851L104.998 175.29H105.383C106.223 175.29 106.888 175.956 106.888 176.796V181.069C106.048 181.314 105.418 182.085 105.418 182.995C105.418 184.081 106.328 184.992 107.413 184.992C108.498 184.992 109.408 184.081 109.408 182.995C109.408 182.085 108.778 181.314 107.938 181.069V176.761C107.938 175.36 106.783 174.205 105.383 174.205H104.998L105.558 173.644C105.768 173.434 105.768 173.119 105.558 172.909C105.348 172.699 105.033 172.699 104.823 172.909L103.003 174.73L104.823 176.586C104.928 176.656 105.068 176.726 105.173 176.726ZM108.358 182.995C108.358 183.521 107.938 183.941 107.413 183.941C106.888 183.941 106.468 183.521 106.468 182.995C106.468 182.47 106.888 182.05 107.413 182.05C107.938 182.05 108.358 182.47 108.358 182.995Z" fill="#DEA459"/>
<path d="M155.361 79.1171C154.276 79.1171 153.366 80.0277 153.366 81.1134C153.366 82.024 153.996 82.7945 154.836 83.0397V87.4525C153.996 87.6977 153.366 88.4682 153.366 89.3788C153.366 90.4645 154.276 91.3751 155.361 91.3751C156.446 91.3751 157.356 90.4645 157.356 89.3788C157.356 88.4682 156.726 87.6977 155.886 87.4525V87.1023C155.886 86.3668 156.481 85.7714 157.216 85.7714H158.756C160.086 85.7714 161.136 84.6857 161.136 83.3899V83.0397C161.976 82.7945 162.606 82.024 162.606 81.1134C162.606 80.0277 161.696 79.1171 160.611 79.1171C159.526 79.1171 158.616 80.0277 158.616 81.1134C158.616 82.024 159.246 82.7945 160.086 83.0397V83.3899C160.086 84.1254 159.491 84.7208 158.756 84.7208H157.216C156.726 84.7208 156.271 84.8608 155.886 85.141V83.0397C156.726 82.7945 157.356 82.024 157.356 81.1134C157.356 80.0277 156.446 79.1171 155.361 79.1171ZM159.666 81.1134C159.666 80.588 160.086 80.1678 160.611 80.1678C161.136 80.1678 161.556 80.588 161.556 81.1134C161.556 81.6387 161.136 82.059 160.611 82.059C160.086 82.059 159.666 81.6387 159.666 81.1134ZM156.306 89.3788C156.306 89.9042 155.886 90.3244 155.361 90.3244C154.836 90.3244 154.416 89.9042 154.416 89.3788C154.416 88.8535 154.836 88.4332 155.361 88.4332C155.886 88.4332 156.306 88.8535 156.306 89.3788ZM155.361 82.059C154.836 82.059 154.416 81.6387 154.416 81.1134C154.416 80.588 154.836 80.1678 155.361 80.1678C155.886 80.1678 156.306 80.588 156.306 81.1134C156.306 81.6387 155.886 82.059 155.361 82.059Z" fill="#DEA459"/>
<path d="M44.799 90.7797C44.799 91.8654 45.7089 92.776 46.7939 92.776C47.8789 92.776 48.7889 91.8654 48.7889 90.7797C48.7889 89.8691 48.1589 89.0986 47.3189 88.8534V86.682C48.1589 87.7327 49.4188 88.3981 50.8888 88.5382C51.0988 89.3788 51.9038 90.0442 52.8138 90.0442C53.8987 90.0442 54.8087 89.1336 54.8087 88.0479C54.8087 86.9622 53.8987 86.0516 52.8138 86.0516C51.9038 86.0516 51.1338 86.647 50.8888 87.4875C49.0689 87.3124 47.6689 86.0866 47.3889 84.4055C48.1939 84.1603 48.7889 83.3898 48.7889 82.5143C48.7889 81.4285 47.8789 80.5179 46.7939 80.5179C45.7089 80.5179 44.799 81.4285 44.799 82.5143C44.799 83.4249 45.4289 84.1954 46.2689 84.4405V88.8534C45.4289 89.0986 44.799 89.8691 44.799 90.7797ZM52.8138 87.1023C53.3388 87.1023 53.7587 87.5225 53.7587 88.0479C53.7587 88.5732 53.3388 88.9935 52.8138 88.9935C52.2888 88.9935 51.8688 88.5732 51.8688 88.0479C51.8688 87.5225 52.2888 87.1023 52.8138 87.1023ZM47.7389 90.7797C47.7389 91.305 47.3189 91.7253 46.7939 91.7253C46.2689 91.7253 45.8489 91.305 45.8489 90.7797C45.8489 90.2543 46.2689 89.8341 46.7939 89.8341C47.3189 89.8341 47.7389 90.2543 47.7389 90.7797ZM45.8489 82.5143C45.8489 81.9889 46.2689 81.5686 46.7939 81.5686C47.3189 81.5686 47.7389 81.9889 47.7389 82.5143C47.7389 83.0396 47.3189 83.4599 46.7939 83.4599C46.2689 83.4599 45.8489 83.0396 45.8489 82.5143Z" fill="#DEA459"/>
<path d="M53.8639 148.112V143.805C53.8639 142.404 52.709 141.248 51.309 141.248H50.924L51.484 140.688C51.694 140.477 51.694 140.162 51.484 139.952C51.274 139.742 50.959 139.742 50.749 139.952L48.9291 141.808L50.749 143.629C50.854 143.735 50.994 143.77 51.134 143.77C51.274 143.77 51.414 143.735 51.519 143.629C51.729 143.419 51.729 143.104 51.519 142.894L50.959 142.334H51.344C52.184 142.334 52.849 142.999 52.849 143.84V148.147C52.009 148.393 51.379 149.163 51.379 150.074C51.379 151.159 52.289 152.07 53.374 152.07C54.4589 152.07 55.3689 151.159 55.3689 150.074C55.3339 149.128 54.7389 148.358 53.8639 148.112ZM53.339 150.984C52.814 150.984 52.394 150.564 52.394 150.039C52.394 149.513 52.814 149.093 53.339 149.093C53.8639 149.093 54.2839 149.513 54.2839 150.039C54.2839 150.564 53.8639 150.984 53.339 150.984Z" fill="#DEA459"/>
<path d="M47.5988 148.218C47.3888 148.428 47.3888 148.743 47.5988 148.953L48.1588 149.513H47.7738C46.9338 149.513 46.2688 148.848 46.2688 148.007V143.7C47.1088 143.454 47.7388 142.684 47.7388 141.773C47.7388 140.688 46.8288 139.777 45.7439 139.777C44.6589 139.777 43.7489 140.688 43.7489 141.773C43.7489 142.684 44.3789 143.454 45.2189 143.7V148.007C45.2189 149.408 46.3738 150.564 47.7738 150.564H48.1588L47.5988 151.124C47.3888 151.335 47.3888 151.65 47.5988 151.86C47.7038 151.965 47.8438 152 47.9838 152C48.1238 152 48.2638 151.965 48.3688 151.86L50.1887 150.039L48.3688 148.218C48.1238 148.007 47.7738 148.007 47.5988 148.218ZM44.7989 141.773C44.7989 141.248 45.2189 140.828 45.7439 140.828C46.2688 140.828 46.6888 141.248 46.6888 141.773C46.6888 142.299 46.2688 142.719 45.7439 142.719C45.2189 142.719 44.7989 142.299 44.7989 141.773Z" fill="#DEA459"/>
<path d="M104.004 22.3459L98.6333 27.7198L104.004 33.0938L109.374 27.7198L104.004 22.3459Z" fill="#DEA459"/>
<path d="M27.6735 159.75L22.3032 165.124L27.6735 170.497L33.0438 165.124L27.6735 159.75Z" fill="#DEA459"/>
<path d="M181.952 159.758L176.581 165.131L181.952 170.505L187.322 165.131L181.952 159.758Z" fill="#DEA459"/>
<path d="M93.8484 121.708C93.8484 122.641 93.8857 123.379 93.9604 123.92C94.035 124.461 94.175 124.881 94.3804 125.18C94.6044 125.479 94.9124 125.675 95.3044 125.768C95.715 125.861 96.247 125.917 96.9004 125.936V127H87.8284V125.936C88.4817 125.917 89.0044 125.861 89.3964 125.768C89.807 125.656 90.1244 125.46 90.3484 125.18C90.5724 124.9 90.7217 124.508 90.7964 124.004C90.871 123.481 90.9084 122.781 90.9084 121.904V110.536C90.9084 109.752 90.871 109.108 90.7964 108.604C90.7404 108.081 90.6097 107.671 90.4044 107.372C90.2177 107.073 89.9377 106.868 89.5644 106.756C89.191 106.625 88.7057 106.541 88.1084 106.504V105.44H96.6204V106.504C96.023 106.523 95.5377 106.597 95.1644 106.728C94.8097 106.859 94.5297 107.083 94.3244 107.4C94.1377 107.699 94.007 108.119 93.9324 108.66C93.8764 109.201 93.8484 109.892 93.8484 110.732V121.708ZM105.469 121.708C105.469 122.641 105.507 123.379 105.581 123.92C105.656 124.461 105.796 124.881 106.001 125.18C106.225 125.479 106.533 125.675 106.925 125.768C107.336 125.861 107.868 125.917 108.521 125.936V127H99.4495V125.936C100.103 125.917 100.625 125.861 101.017 125.768C101.428 125.656 101.745 125.46 101.969 125.18C102.193 124.9 102.343 124.508 102.417 124.004C102.492 123.481 102.529 122.781 102.529 121.904V110.536C102.529 109.752 102.492 109.108 102.417 108.604C102.361 108.081 102.231 107.671 102.025 107.372C101.839 107.073 101.559 106.868 101.185 106.756C100.812 106.625 100.327 106.541 99.7295 106.504V105.44H108.241V106.504C107.644 106.523 107.159 106.597 106.785 106.728C106.431 106.859 106.151 107.083 105.945 107.4C105.759 107.699 105.628 108.119 105.553 108.66C105.497 109.201 105.469 109.892 105.469 110.732V121.708ZM117.091 121.708C117.091 122.641 117.128 123.379 117.203 123.92C117.277 124.461 117.417 124.881 117.623 125.18C117.847 125.479 118.155 125.675 118.547 125.768C118.957 125.861 119.489 125.917 120.143 125.936V127H111.071V125.936C111.724 125.917 112.247 125.861 112.639 125.768C113.049 125.656 113.367 125.46 113.591 125.18C113.815 124.9 113.964 124.508 114.039 124.004C114.113 123.481 114.151 122.781 114.151 121.904V110.536C114.151 109.752 114.113 109.108 114.039 108.604C113.983 108.081 113.852 107.671 113.647 107.372C113.46 107.073 113.18 106.868 112.807 106.756C112.433 106.625 111.948 106.541 111.351 106.504V105.44H119.863V106.504C119.265 106.523 118.78 106.597 118.407 106.728C118.052 106.859 117.772 107.083 117.567 107.4C117.38 107.699 117.249 108.119 117.175 108.66C117.119 109.201 117.091 109.892 117.091 110.732V121.708Z" fill="#F2B151"/>
</svg>
