<svg width="659" height="675" viewBox="0 0 659 675" fill="none" xmlns="http://www.w3.org/2000/svg">
<path d="M580.511 66.9297L575.632 62.0508L570.753 66.9298L575.632 71.8087L580.511 66.9297Z" fill="#F2B151"/>
<path d="M631.932 43.3231L621.538 32.9287L611.143 43.3231L621.538 53.7175L631.932 43.3231Z" fill="#F2B151"/>
<path d="M621.377 645.723L610.982 635.329L600.588 645.723L610.982 656.117L621.377 645.723Z" fill="#F2B151"/>
<path d="M14.0913 601.769L7.23242 594.91L0.373587 601.769L7.23245 608.627L14.0913 601.769Z" fill="#F2B151"/>
<path d="M120.235 666.088L111.467 657.32L102.699 666.088L111.467 674.856L120.235 666.088Z" fill="#F2B151"/>
<path d="M43.3675 93.519L34.5995 84.751L25.8314 93.519L34.5995 102.287L43.3675 93.519Z" fill="#F2B151"/>
<path d="M571 537.4H567.4C562.2 543.6 556.7 549.5 551 555.3L533.1 537.4H529.2L549.1 557.3C492.3 613.6 417.2 644.7 337.2 645.1V629.7C336.6 630.1 336 630.3 335.3 630.3C335 630.3 334.8 630.3 334.5 630.2V645.1C254.5 644.7 179.4 613.6 122.6 557.3L142.5 537.4H138.6L120.7 555.3C115 549.5 109.5 543.5 104.3 537.4H100.7C106.7 544.6 113 551.6 119.7 558.2C177.4 615.9 254.2 647.8 335.9 647.8C417.6 647.8 494.2 616 552 558.3C558.7 551.6 565 544.6 571 537.4Z" fill="#F2B151"/>
<path d="M368.6 38.1001L370.3 41.0001C437.7 48.6001 500.2 78.4001 549.1 126.8L499.6 176.3C500.2 176.9 500.9 177.6 501.5 178.2L551 128.7C607.3 185.5 638.4 260.6 638.8 340.6H596.1C596.5 341.1 596.8 341.7 596.8 342.4C596.8 342.7 596.7 343 596.6 343.3H638.8C638.6 385.1 630 425.5 613.9 462.7L615.6 465.7C632.6 427.2 641.6 385.3 641.6 342C641.6 260.3 609.8 183.5 552 125.8C502.1 75.9001 437.9 45.4001 368.6 38.1001Z" fill="#F2B151"/>
<path d="M32.8 343.4H102.9C102.9 342.9 102.9 342.5 102.9 342C102.9 341.5 102.9 341.1 102.9 340.6H32.8C33.2 260.6 64.3 185.5 120.6 128.7L137.3 145.4C136.9 146 136.6 146.7 136.5 147.4H134.5C133.7 147.4 133.1 148 133.1 148.8C133.1 149.6 133.7 150.2 134.5 150.2H136.5C137.1 153 139.6 155.1 142.6 155.1C143.8 155.1 145 154.7 145.9 154.1L170.2 178.4C170.8 177.8 171.5 177.1 172.1 176.5L147.8 152.2C148.2 151.6 148.5 150.9 148.6 150.2H150.6C151.4 150.2 152 149.6 152 148.8C152 148 151.4 147.4 150.6 147.4H148.6C148 144.6 145.5 142.5 142.5 142.5C141.3 142.5 140.1 142.9 139.2 143.5L122.5 126.8C171.5 78.3 234 48.5 301.6 40.9L303.3 38C233.9 45.3 169.6 75.8 119.6 125.8C61.9 183.6 30 260.4 30 342.1C30 385.5 39 427.6 56.1 466.1L57.8 463.1C41.6 425.8 33 385.3 32.8 343.4ZM142.5 152.3C140.6 152.3 139 150.7 139 148.8C139 146.9 140.6 145.3 142.5 145.3C144.4 145.3 146 146.9 146 148.8C146 150.7 144.5 152.3 142.5 152.3Z" fill="#F2B151"/>
<path d="M337.2 623.5V575C336.8 575 336.3 575 335.9 575C335.4 575 335 575 334.5 575V623C334.8 622.9 335 622.9 335.3 622.9C335.9 623 336.6 623.2 337.2 623.5Z" fill="#F2B151"/>
<path d="M591.7 340.7H568.7C568.7 341.2 568.7 341.6 568.7 342.1C568.7 342.6 568.7 343 568.7 343.5H591.2C591.1 343.2 591 342.9 591 342.6C591 341.8 591.3 341.2 591.7 340.7Z" fill="#F2B151"/>
<path d="M631.9 468.3C632.6 468.3 633.3 467.9 633.6 467.2C634 466.3 633.6 465.2 632.6 464.8C631.7 464.4 630.6 464.8 630.2 465.8C629.8 466.7 630.2 467.8 631.2 468.2C631.4 468.2 631.7 468.3 631.9 468.3Z" fill="#F2B151"/>
<path d="M641.5 440.8C640.5 440.5 639.5 441 639.2 442C638.9 443 639.4 444 640.4 444.3C640.6 444.4 640.8 444.4 641 444.4C641.8 444.4 642.5 443.9 642.7 443.2C642.9 442.1 642.4 441.1 641.5 440.8Z" fill="#F2B151"/>
<path d="M636.6 456.4C637.3 456.4 638 456 638.3 455.2C638.7 454.3 638.2 453.2 637.2 452.8C636.3 452.4 635.2 452.9 634.8 453.9C634.5 454.8 634.9 455.9 635.9 456.3C636.2 456.3 636.4 456.4 636.6 456.4Z" fill="#F2B151"/>
<path d="M626.7 480C627.4 480 628 479.6 628.3 479C628.7 478.1 628.3 477 627.4 476.6C626.5 476.2 625.4 476.6 625 477.5C624.6 478.4 625 479.5 625.9 479.9C626.2 479.9 626.5 480 626.7 480Z" fill="#F2B151"/>
<path d="M44.9001 480.1C45.2001 480.1 45.4001 480 45.7001 479.9C46.6001 479.5 47.0001 478.4 46.6001 477.5C46.2001 476.6 45.1001 476.2 44.2001 476.6C43.3001 477 42.9001 478.1 43.3001 479C43.6001 479.7 44.3001 480.1 44.9001 480.1Z" fill="#F2B151"/>
<path d="M30.8 444.6C31 444.6 31.2 444.6 31.4 444.5C32.4 444.2 32.9 443.2 32.6 442.2C32.3 441.2 31.3 440.7 30.3 441C29.3 441.3 28.8 442.3 29.1 443.3C29.3 444.1 30 444.6 30.8 444.6Z" fill="#F2B151"/>
<path d="M27.1 432.4C27.3 432.4 27.4 432.4 27.6 432.3C28.6 432 29.1 431 28.8 430C28.5 429 27.5 428.5 26.5 428.7C25.5 429 25 430 25.3 431C25.5 431.9 26.3 432.4 27.1 432.4Z" fill="#F2B151"/>
<path d="M35.1 456.6C35.3 456.6 35.5 456.6 35.7 456.5C36.6 456.1 37.1 455.1 36.8 454.1C36.4 453.2 35.4 452.7 34.5 453C33.6 453.4 33.1 454.4 33.4 455.4C33.6 456.2 34.3 456.6 35.1 456.6Z" fill="#F2B151"/>
<path d="M644.6 432.1C645.4 432.1 646.1 431.6 646.4 430.8C646.7 429.8 646.1 428.8 645.1 428.5C644.1 428.2 643.1 428.8 642.8 429.7C642.5 430.7 643.1 431.7 644 432C644.3 432.1 644.5 432.1 644.6 432.1Z" fill="#F2B151"/>
<path d="M39.8 468.5C40 468.5 40.3 468.5 40.5 468.4C41.4 468 41.9 466.9 41.5 466C41.1 465.1 40 464.6 39.1 465C38.2 465.4 37.7 466.5 38.1 467.4C38.4 468.1 39.1 468.5 39.8 468.5Z" fill="#F2B151"/>
<path d="M569.3 123.4C569.8 123.4 570.2 123.2 570.6 122.9C571.3 122.2 571.4 121.1 570.7 120.3C570 119.6 568.8 119.5 568.1 120.2C567.4 120.9 567.3 122 568 122.8C568.3 123.2 568.8 123.4 569.3 123.4Z" fill="#F2B151"/>
<path d="M464.9 50C465.1 50.1 465.4 50.2 465.6 50.2C466.3 50.2 467 49.8 467.3 49.1C467.7 48.2 467.3 47.1 466.4 46.7C465.5 46.3 464.4 46.7 464 47.6C463.6 48.5 464 49.6 464.9 50Z" fill="#F2B151"/>
<path d="M476.4 55.3001C476.7 55.4001 476.9 55.5001 477.2 55.5001C477.9 55.5001 478.5 55.1001 478.8 54.5001C479.2 53.6001 478.9 52.5001 478 52.1001C477.1 51.7001 476 52.0001 475.6 52.9001C475.2 53.8001 475.5 54.9001 476.4 55.3001Z" fill="#F2B151"/>
<path d="M453.2 44.9998C453.4 45.0998 453.6 45.0998 453.9 45.0998C454.6 45.0998 455.3 44.6997 455.6 43.8997C456 42.9997 455.5 41.8998 454.6 41.4998C453.7 41.0998 452.6 41.5998 452.2 42.4998C451.8 43.5998 452.2 44.6998 453.2 44.9998Z" fill="#F2B151"/>
<path d="M441.3 40.6C441.5 40.7 441.7 40.7 441.9 40.7C442.6 40.7 443.4 40.2 443.6 39.5C443.9 38.5 443.4 37.5 442.5 37.2C441.5 36.9 440.5 37.4 440.2 38.3C439.8 39.2 440.3 40.3 441.3 40.6Z" fill="#F2B151"/>
<path d="M487.7 61.2002C488 61.3002 488.3 61.4002 488.6 61.4002C489.2 61.4002 489.9 61.1002 490.2 60.4002C490.7 59.5002 490.3 58.4002 489.5 57.9002C488.6 57.4002 487.5 57.8002 487 58.6002C486.5 59.6002 486.9 60.7002 487.7 61.2002Z" fill="#F2B151"/>
<path d="M416.9 33.2001C417.1 33.2001 417.2 33.3001 417.4 33.3001C418.2 33.3001 418.9 32.8 419.2 31.9C419.5 30.9 418.9 29.9001 417.9 29.7001C416.9 29.4001 415.9 30.0001 415.7 31.0001C415.4 31.9001 416 32.9001 416.9 33.2001Z" fill="#F2B151"/>
<path d="M429.2 36.6001C429.4 36.7001 429.6 36.7001 429.7 36.7001C430.5 36.7001 431.2 36.2001 431.4 35.4001C431.7 34.4001 431.2 33.4001 430.2 33.1001C429.2 32.8001 428.2 33.3001 427.9 34.3001C427.7 35.3001 428.2 36.4001 429.2 36.6001Z" fill="#F2B151"/>
<path d="M541.4 97.1998C541.9 97.1998 542.4 96.9998 542.8 96.4998C543.4 95.6998 543.3 94.5998 542.6 93.8998C541.8 93.2998 540.7 93.3998 540 94.0998C539.4 94.8998 539.5 95.9998 540.2 96.6998C540.6 97.0998 541 97.1998 541.4 97.1998Z" fill="#F2B151"/>
<path d="M498.8 67.5002C499.1 67.7002 499.4 67.8002 499.7 67.8002C500.3 67.8002 500.9 67.5002 501.3 66.9002C501.8 66.0002 501.5 64.9002 500.7 64.4002C499.8 63.9002 498.7 64.2002 498.2 65.0002C497.6 65.8002 497.9 66.9002 498.8 67.5002Z" fill="#F2B151"/>
<path d="M530.3 88.7999C530.6 89.0999 531 89.1999 531.4 89.1999C531.9 89.1999 532.5 88.9999 532.8 88.4999C533.4 87.6999 533.3 86.5999 532.5 85.8999C531.7 85.2999 530.6 85.3999 529.9 86.1999C529.4 87.0999 529.5 88.1999 530.3 88.7999Z" fill="#F2B151"/>
<path d="M551 105.6C551.5 105.6 552 105.4 552.3 105C553 104.3 552.9 103.1 552.2 102.4C551.5 101.7 550.3 101.8 549.6 102.5C548.9 103.2 549 104.4 549.7 105.1C550.2 105.4 550.6 105.6 551 105.6Z" fill="#F2B151"/>
<path d="M509.6 74.1998C509.9 74.3998 510.2 74.4998 510.6 74.4998C511.2 74.4998 511.8 74.1998 512.1 73.6998C512.6 72.8998 512.4 71.6998 511.6 71.1998C510.8 70.6998 509.6 70.8998 509.1 71.6998C508.5 72.4998 508.7 73.5998 509.6 74.1998Z" fill="#F2B151"/>
<path d="M520.1 81.2998C520.4 81.4998 520.8 81.5998 521.1 81.5998C521.7 81.5998 522.2 81.2998 522.6 80.7998C523.2 79.9998 523 78.7998 522.2 78.2998C521.4 77.7998 520.2 77.8998 519.7 78.6998C519.1 79.5998 519.3 80.6998 520.1 81.2998Z" fill="#F2B151"/>
<path d="M205.2 50.4998C205.5 50.4998 205.7 50.3998 205.9 50.2998C206.8 49.8998 207.2 48.7998 206.8 47.8998C206.4 46.9998 205.3 46.5998 204.4 46.9998C203.5 47.3998 203.1 48.4998 203.5 49.3998C203.8 49.9998 204.5 50.4998 205.2 50.4998Z" fill="#F2B151"/>
<path d="M241 36.9999C241.2 36.9999 241.4 36.9999 241.5 36.8999C242.5 36.5999 243 35.6 242.7 34.6C242.4 33.6 241.4 33.0999 240.4 33.3999C239.4 33.6999 238.9 34.6999 239.2 35.6999C239.5 36.4999 240.2 36.9999 241 36.9999Z" fill="#F2B151"/>
<path d="M253.3 33.4998C253.5 33.4998 253.6 33.4998 253.8 33.3998C254.8 33.0998 255.4 32.0998 255.1 31.1998C254.8 30.1998 253.8 29.5998 252.9 29.8998C251.9 30.1998 251.3 31.0998 251.6 32.0998C251.7 32.8998 252.5 33.4998 253.3 33.4998Z" fill="#F2B151"/>
<path d="M404.6 30.1998C404.7 30.1998 404.9 30.1998 405 30.1998C405.8 30.1998 406.6 29.5998 406.8 28.7998C407 27.7998 406.4 26.7998 405.4 26.5998C404.4 26.3998 403.4 26.9998 403.2 27.9998C403 28.9998 403.6 29.9998 404.6 30.1998Z" fill="#F2B151"/>
<path d="M216.9 45.4998C217.1 45.4998 217.4 45.4997 217.6 45.3997C218.5 44.9997 219 43.9998 218.6 42.9998C218.2 42.0998 217.2 41.5998 216.2 41.9998C215.3 42.3998 214.8 43.3997 215.2 44.3997C215.5 45.0997 216.2 45.4998 216.9 45.4998Z" fill="#F2B151"/>
<path d="M560.3 114.3C560.8 114.3 561.2 114.1 561.6 113.8C562.3 113.1 562.3 111.9 561.6 111.2C560.9 110.5 559.7 110.5 559 111.2C558.3 111.9 558.3 113.1 559 113.8C559.4 114.2 559.9 114.3 560.3 114.3Z" fill="#F2B151"/>
<path d="M265.7 30.5001C265.8 30.5001 266 30.5001 266.1 30.5001C267.1 30.3001 267.7 29.3001 267.5 28.3001C267.3 27.3001 266.3 26.7001 265.3 26.9001C264.3 27.1001 263.7 28.1001 263.9 29.1001C264.1 29.9001 264.8 30.5001 265.7 30.5001Z" fill="#F2B151"/>
<path d="M228.9 40.9998C229.1 40.9998 229.3 40.9998 229.5 40.8998C230.4 40.5998 230.9 39.4998 230.6 38.5998C230.3 37.6998 229.2 37.1998 228.3 37.4998C227.4 37.7998 226.9 38.8998 227.2 39.7998C227.4 40.4998 228.1 40.9998 228.9 40.9998Z" fill="#F2B151"/>
<path d="M367 24.2999C367.1 24.2999 367.1 24.2999 367.2 24.2999C368.1 24.2999 368.9 23.5999 369 22.6999C369.1 21.6999 368.4 20.7999 367.4 20.6999C366.4 20.5999 365.5 21.2999 365.4 22.2999C365.3 23.2999 366 24.1999 367 24.2999Z" fill="#F2B151"/>
<path d="M278.2 27.8999C278.3 27.8999 278.4 27.8999 278.5 27.8999C279.5 27.6999 280.1 26.7999 280 25.7999C279.8 24.7999 278.9 24.1999 277.9 24.2999C276.9 24.4999 276.3 25.3999 276.4 26.3999C276.6 27.2999 277.3 27.8999 278.2 27.8999Z" fill="#F2B151"/>
<path d="M392.2 27.7001C392.3 27.7001 392.4 27.7001 392.5 27.7001C393.4 27.7001 394.1 27.1001 394.3 26.2001C394.5 25.2001 393.8 24.3001 392.8 24.1001C391.8 23.9001 390.9 24.6001 390.7 25.6001C390.5 26.6001 391.2 27.6001 392.2 27.7001Z" fill="#F2B151"/>
<path d="M379.6 25.7998C379.7 25.7998 379.8 25.7998 379.9 25.7998C380.8 25.7998 381.6 25.0998 381.7 24.1998C381.8 23.1998 381.1 22.2998 380.1 22.0998C379.1 21.9998 378.2 22.6998 378 23.6998C377.9 24.6998 378.6 25.5998 379.6 25.7998Z" fill="#F2B151"/>
<path d="M303.5 24.4C303.6 24.4 303.6 24.4 303.7 24.4C304.7 24.3 305.4 23.4 305.3 22.4C305.2 21.4 304.3 20.7 303.3 20.8C302.3 20.9 301.6 21.8 301.7 22.8C301.7 23.7 302.5 24.4 303.5 24.4Z" fill="#F2B151"/>
<path d="M290.8 25.8998C290.9 25.8998 291 25.8998 291.1 25.8998C292.1 25.7998 292.8 24.7998 292.7 23.7998C292.6 22.7998 291.6 22.0998 290.6 22.2998C289.6 22.3998 288.9 23.3998 289.1 24.3998C289.1 25.2998 289.9 25.8998 290.8 25.8998Z" fill="#F2B151"/>
<path d="M316.9 660.8C315.9 660.7 315 661.5 315 662.5C314.9 663.5 315.7 664.4 316.7 664.4H316.8C317.8 664.4 318.6 663.7 318.6 662.7C318.7 661.7 317.9 660.9 316.9 660.8Z" fill="#F2B151"/>
<path d="M656.9 339.6C655.9 339.6 655.1 340.4 655.1 341.4C655.1 341.5 655.1 341.6 655.1 341.7C655.1 341.8 655.1 341.9 655.1 342C655.1 343 655.9 343.8 656.9 343.8C657.9 343.8 658.7 343 658.7 342C658.7 341.9 658.7 341.8 658.7 341.7C658.7 341.6 658.7 341.5 658.7 341.4C658.7 340.4 657.9 339.6 656.9 339.6Z" fill="#F2B151"/>
<path d="M654.8 328.7C654.8 329.7 655.6 330.4 656.6 330.4C656.6 330.4 656.6 330.4 656.7 330.4C657.7 330.4 658.5 329.5 658.4 328.5C658.4 327.5 657.5 326.7 656.5 326.8C655.5 326.9 654.8 327.7 654.8 328.7Z" fill="#F2B151"/>
<path d="M656.7 353C655.7 353 654.9 353.7 654.8 354.7C654.8 355.7 655.5 356.5 656.5 356.6C656.5 356.6 656.5 356.6 656.6 356.6C657.6 356.6 658.4 355.8 658.4 354.9C658.5 353.9 657.7 353 656.7 353Z" fill="#F2B151"/>
<path d="M652.8 303.4C652.9 304.3 653.7 305 654.6 305C654.7 305 654.7 305 654.8 305C655.8 304.9 656.5 304 656.4 303C656.3 302 655.4 301.3 654.4 301.4C653.4 301.5 652.7 302.4 652.8 303.4Z" fill="#F2B151"/>
<path d="M656 365.8C655 365.7 654.1 366.5 654 367.5C653.9 368.5 654.7 369.4 655.7 369.5H655.8C656.7 369.5 657.5 368.8 657.6 367.8C657.8 366.7 657.1 365.8 656 365.8Z" fill="#F2B151"/>
<path d="M654 316.1C654.1 317.1 654.9 317.8 655.8 317.8H655.9C656.9 317.7 657.7 316.8 657.6 315.8C657.5 314.8 656.6 314.1 655.6 314.1C654.6 314.1 654 315.1 654 316.1Z" fill="#F2B151"/>
<path d="M651 403.7C650 403.5 649 404.1 648.9 405.1C648.7 406.1 649.3 407 650.3 407.2C650.4 407.2 650.5 407.2 650.7 407.2C651.5 407.2 652.3 406.6 652.5 405.7C652.6 404.8 652 403.9 651 403.7Z" fill="#F2B151"/>
<path d="M304.3 659.8C303.3 659.7 302.4 660.4 302.3 661.4C302.2 662.4 302.9 663.3 303.9 663.4C304 663.4 304 663.4 304.1 663.4C305 663.4 305.8 662.7 305.9 661.8C306 660.8 305.3 659.9 304.3 659.8Z" fill="#F2B151"/>
<path d="M193.7 55.9C194 55.9 194.2 55.8 194.5 55.7C195.4 55.3 195.8 54.2 195.3 53.3C194.9 52.4 193.8 52 192.9 52.5C192 52.9 191.6 54 192.1 54.9C192.4 55.5 193 55.9 193.7 55.9Z" fill="#F2B151"/>
<path d="M648.3 416.2C647.3 416 646.3 416.6 646.1 417.5C645.9 418.5 646.5 419.5 647.4 419.7C647.5 419.7 647.7 419.8 647.8 419.8C648.6 419.8 649.4 419.2 649.6 418.4C649.9 417.4 649.3 416.4 648.3 416.2Z" fill="#F2B151"/>
<path d="M653.2 391.1C652.2 390.9 651.3 391.6 651.1 392.6C650.9 393.6 651.6 394.5 652.6 394.7C652.7 394.7 652.8 394.7 652.9 394.7C653.8 394.7 654.5 394.1 654.7 393.2C654.9 392.2 654.2 391.3 653.2 391.1Z" fill="#F2B151"/>
<path d="M654.9 378.5C653.9 378.4 653 379.1 652.9 380.1C652.8 381.1 653.5 382 654.5 382.1C654.6 382.1 654.6 382.1 654.7 382.1C655.6 382.1 656.4 381.4 656.5 380.5C656.6 379.5 655.9 378.6 654.9 378.5Z" fill="#F2B151"/>
<path d="M651 290.9C651.1 291.8 651.9 292.4 652.8 292.4C652.9 292.4 653 292.4 653.1 292.4C654.1 292.2 654.8 291.3 654.6 290.3C654.4 289.3 653.5 288.6 652.5 288.8C651.5 288.9 650.8 289.9 651 290.9Z" fill="#F2B151"/>
<path d="M601.3 163.1C601.6 163.1 602 163 602.3 162.8C603.1 162.2 603.3 161.1 602.8 160.3C602.2 159.5 601.1 159.3 600.3 159.8C599.5 160.4 599.3 161.5 599.8 162.3C600.1 162.9 600.7 163.1 601.3 163.1Z" fill="#F2B151"/>
<path d="M577.9 132.9C578.3 132.9 578.7 132.8 579.1 132.4C579.9 131.7 579.9 130.6 579.3 129.8C578.6 129 577.5 129 576.7 129.6C575.9 130.3 575.9 131.4 576.5 132.2C576.8 132.7 577.4 132.9 577.9 132.9Z" fill="#F2B151"/>
<path d="M614.8 184.8C615.1 184.8 615.4 184.7 615.7 184.6C616.6 184.1 616.9 183 616.4 182.1C615.9 181.2 614.8 180.9 613.9 181.4C613 181.9 612.7 183 613.2 183.9C613.5 184.4 614.1 184.8 614.8 184.8Z" fill="#F2B151"/>
<path d="M648.7 278.4C648.9 279.3 649.6 279.9 650.5 279.9C650.6 279.9 650.7 279.9 650.9 279.9C651.9 279.7 652.5 278.7 652.3 277.7C652.1 276.7 651.1 276.1 650.1 276.3C649.2 276.4 648.5 277.4 648.7 278.4Z" fill="#F2B151"/>
<path d="M586.1 142.7C586.5 142.7 586.9 142.6 587.2 142.3C588 141.7 588.1 140.5 587.5 139.7C586.9 138.9 585.7 138.8 584.9 139.4C584.1 140 584 141.2 584.6 142C585 142.4 585.5 142.7 586.1 142.7Z" fill="#F2B151"/>
<path d="M626.5 207.4C626.8 207.4 627 207.3 627.3 207.2C628.2 206.8 628.6 205.7 628.2 204.8C627.8 203.9 626.7 203.5 625.8 203.9C624.9 204.3 624.5 205.4 624.9 206.3C625.2 207 625.8 207.4 626.5 207.4Z" fill="#F2B151"/>
<path d="M593.9 152.8C594.3 152.8 594.7 152.7 595 152.4C595.8 151.8 596 150.7 595.4 149.8C594.8 149 593.7 148.8 592.8 149.4C592 150 591.8 151.1 592.4 151.9C592.8 152.5 593.3 152.8 593.9 152.8Z" fill="#F2B151"/>
<path d="M620.9 195.9C621.2 195.9 621.5 195.8 621.7 195.7C622.6 195.2 622.9 194.1 622.5 193.2C622 192.3 620.9 192 620 192.4C619.1 192.9 618.8 194 619.2 194.9C619.6 195.6 620.2 195.9 620.9 195.9Z" fill="#F2B151"/>
<path d="M644.5 255C644.7 255 644.8 255 645 254.9C646 254.6 646.5 253.6 646.2 252.6C645.9 251.6 644.9 251.1 643.9 251.4C642.9 251.7 642.4 252.7 642.7 253.7C642.9 254.5 643.7 255 644.5 255Z" fill="#F2B151"/>
<path d="M646 266C646.2 266.8 646.9 267.4 647.8 267.4C647.9 267.4 648.1 267.4 648.2 267.3C649.2 267.1 649.8 266.1 649.5 265.1C649.3 264.1 648.3 263.5 647.3 263.8C646.3 264 645.7 265 646 266Z" fill="#F2B151"/>
<path d="M640.7 242.9C640.9 242.9 641.1 242.9 641.3 242.8C642.2 242.5 642.8 241.5 642.4 240.5C642.1 239.5 641.1 239 640.1 239.3C639.1 239.6 638.6 240.6 638.9 241.6C639.2 242.4 639.9 242.9 640.7 242.9Z" fill="#F2B151"/>
<path d="M631.7 219C631.9 219 632.2 219 632.4 218.9C633.3 218.5 633.8 217.4 633.4 216.5C633 215.6 631.9 215.1 631 215.5C630.1 215.9 629.6 217 630 217.9C630.3 218.6 631 219 631.7 219Z" fill="#F2B151"/>
<path d="M636.4 230.8C636.6 230.8 636.8 230.8 637 230.7C637.9 230.3 638.4 229.3 638.1 228.4C637.7 227.5 636.7 227 635.7 227.3C634.8 227.7 634.3 228.7 634.6 229.7C635 230.4 635.7 230.8 636.4 230.8Z" fill="#F2B151"/>
<path d="M49.5 196.4C49.8 196.5 50.1 196.6 50.3 196.6C51 196.6 51.6 196.2 51.9 195.6C52.4 194.7 52 193.6 51.1 193.1C50.2 192.6 49.1 193 48.6 193.9C48.3 194.8 48.7 195.9 49.5 196.4Z" fill="#F2B151"/>
<path d="M141 595.1C140.2 594.5 139.1 594.6 138.4 595.4C137.8 596.2 137.9 597.3 138.7 598C139 598.3 139.4 598.4 139.8 598.4C140.3 598.4 140.9 598.2 141.2 597.7C142 596.8 141.8 595.7 141 595.1Z" fill="#F2B151"/>
<path d="M84.2 541.6C83.4 542.2 83.3 543.4 83.9 544.2C84.3 544.7 84.8 544.9 85.3 544.9C85.7 544.9 86.1 544.8 86.4 544.5C87.2 543.9 87.3 542.7 86.7 541.9C86.1 541.1 85 541 84.2 541.6Z" fill="#F2B151"/>
<path d="M109.7 570.1C109 570.8 109 572 109.7 572.7C110.1 573 110.5 573.2 111 573.2C111.5 573.2 111.9 573 112.3 572.7C113 572 113 570.8 112.3 570.1C111.6 569.4 110.4 569.4 109.7 570.1Z" fill="#F2B151"/>
<path d="M14.7 344.2C15.6941 344.2 16.5 343.394 16.5 342.4C16.5 341.406 15.6941 340.6 14.7 340.6C13.7059 340.6 12.9 341.406 12.9 342.4C12.9 343.394 13.7059 344.2 14.7 344.2Z" fill="#F2B151"/>
<path d="M128.6 587.4C128 588.2 128.1 589.3 128.8 590C129.1 590.3 129.6 590.4 130 590.4C130.5 590.4 131 590.2 131.4 589.8C132 589 131.9 587.9 131.2 587.2C130.4 586.5 129.2 586.6 128.6 587.4Z" fill="#F2B151"/>
<path d="M119 578.9C118.3 579.6 118.4 580.8 119.1 581.5C119.4 581.8 119.9 582 120.3 582C120.8 582 121.3 581.8 121.6 581.4C122.3 580.7 122.2 579.5 121.5 578.8C120.8 578.1 119.7 578.2 119 578.9Z" fill="#F2B151"/>
<path d="M100.8 560.9C100.1 561.6 100 562.7 100.7 563.5C101.1 563.9 101.5 564.1 102 564.1C102.4 564.1 102.9 563.9 103.2 563.6C103.9 562.9 104 561.8 103.3 561C102.7 560.3 101.6 560.3 100.8 560.9Z" fill="#F2B151"/>
<path d="M17.2001 382.4C18.2001 382.3 18.9001 381.4 18.8001 380.4C18.7001 379.4 17.8001 378.7 16.8001 378.8C15.8001 378.9 15.1001 379.8 15.2001 380.8C15.3001 381.7 16.1001 382.4 17.0001 382.4C17.1001 382.4 17.1001 382.4 17.2001 382.4Z" fill="#F2B151"/>
<path d="M15.9 369.7C16.9 369.6 17.6 368.7 17.6 367.7C17.5 366.7 16.6 366 15.6 366C14.6 366.1 13.9 367 13.9 368C14 369 14.8 369.7 15.7 369.7C15.8 369.7 15.8 369.7 15.9 369.7Z" fill="#F2B151"/>
<path d="M182.4 61.6999C182.7 61.6999 183 61.5999 183.3 61.4999C184.2 60.9999 184.5 59.8999 184 58.9999C183.5 58.0999 182.4 57.7999 181.5 58.2999C180.6 58.7999 180.3 59.8999 180.8 60.7999C181.1 61.3999 181.7 61.6999 182.4 61.6999Z" fill="#F2B151"/>
<path d="M24.2 420C25.2 419.8 25.8 418.8 25.5 417.8C25.3 416.8 24.3 416.2 23.3 416.5C22.3 416.7 21.7 417.7 22 418.7C22.2 419.5 22.9 420.1 23.8 420.1C23.9 420.1 24.1 420.1 24.2 420Z" fill="#F2B151"/>
<path d="M22.8001 405.4C22.6001 404.4 21.6001 403.8 20.6001 404C19.6001 404.2 19.0001 405.2 19.2001 406.2C19.4001 407.1 20.1001 407.7 21.0001 407.7C21.1001 407.7 21.2001 407.7 21.4001 407.7C22.4001 407.4 23.0001 406.4 22.8001 405.4Z" fill="#F2B151"/>
<path d="M20.5 392.9C20.3 391.9 19.4001 391.2 18.4001 391.4C17.4001 391.6 16.7001 392.5 16.9001 393.5C17.0001 394.4 17.8 395 18.7 395C18.8 395 18.9 395 19 395C20 394.9 20.7 393.9 20.5 392.9Z" fill="#F2B151"/>
<path d="M92.3 551.4C91.5 552.1 91.5001 553.2 92.1001 554C92.5001 554.4 93 554.6 93.5 554.6C93.9 554.6 94.3 554.5 94.7 554.2C95.5 553.5 95.5 552.4 94.9 551.6C94.2 550.9 93.1 550.8 92.3 551.4Z" fill="#F2B151"/>
<path d="M291.7 658.3C290.7 658.2 289.8 658.9 289.6 659.9C289.5 660.9 290.2 661.8 291.1 662C291.2 662 291.3 662 291.4 662C292.3 662 293.1 661.3 293.2 660.4C293.4 659.4 292.7 658.5 291.7 658.3Z" fill="#F2B151"/>
<path d="M151.2 602.6C150.4 602 149.2 602.2 148.7 603C148.1 603.8 148.3 605 149.1 605.5C149.4 605.7 149.8 605.8 150.2 605.8C150.8 605.8 151.3 605.5 151.7 605C152.3 604.4 152.1 603.2 151.2 602.6Z" fill="#F2B151"/>
<path d="M279.1 656.3C278.1 656.1 277.2 656.8 277 657.8C276.8 658.8 277.5 659.7 278.5 659.9C278.6 659.9 278.7 659.9 278.8 659.9C279.7 659.9 280.4 659.3 280.6 658.4C280.8 657.5 280.1 656.5 279.1 656.3Z" fill="#F2B151"/>
<path d="M254.3 650.9C253.3 650.6 252.3 651.2 252.1 652.2C251.8 653.2 252.4 654.2 253.4 654.4C253.6 654.4 253.7 654.5 253.9 654.5C254.7 654.5 255.4 654 255.7 653.1C255.9 652.1 255.3 651.1 254.3 650.9Z" fill="#F2B151"/>
<path d="M242.1 647.4C241.1 647.1 240.1 647.6 239.8 648.6C239.5 649.6 240 650.6 241 650.9C241.2 651 241.4 651 241.5 651C242.3 651 243 650.5 243.2 649.7C243.6 648.7 243.1 647.7 242.1 647.4Z" fill="#F2B151"/>
<path d="M230 643.4C229 643.1 228 643.6 227.7 644.5C227.4 645.5 227.9 646.5 228.8 646.8C229 646.9 229.2 646.9 229.4 646.9C230.2 646.9 230.9 646.4 231.1 645.7C231.5 644.8 231 643.8 230 643.4Z" fill="#F2B151"/>
<path d="M266.7 653.8C265.7 653.6 264.7 654.2 264.5 655.2C264.3 656.2 264.9 657.2 265.9 657.4C266 657.4 266.2 657.4 266.3 657.4C267.1 657.4 267.9 656.8 268.1 656C268.3 655 267.7 654.1 266.7 653.8Z" fill="#F2B151"/>
<path d="M172.5 616.5C171.6 616 170.5 616.3 170 617.1C169.5 618 169.8 619.1 170.6 619.6C170.9 619.8 171.2 619.9 171.5 619.9C172.1 619.9 172.7 619.6 173.1 619C173.7 618.1 173.4 617 172.5 616.5Z" fill="#F2B151"/>
<path d="M183.6 622.8C182.7 622.3 181.6 622.6 181.1 623.5C180.6 624.4 181 625.5 181.8 626C182.1 626.1 182.4 626.2 182.7 626.2C183.3 626.2 184 625.9 184.3 625.3C184.8 624.4 184.5 623.3 183.6 622.8Z" fill="#F2B151"/>
<path d="M218.1 639C217.2 638.6 216.1 639.1 215.7 640C215.3 640.9 215.8 642 216.7 642.4C216.9 642.5 217.1 642.5 217.4 642.5C218.1 642.5 218.8 642.1 219.1 641.4C219.5 640.4 219.1 639.3 218.1 639Z" fill="#F2B151"/>
<path d="M161.8 609.8C161 609.2 159.8 609.5 159.3 610.3C158.8 611.1 159 612.3 159.8 612.8C160.1 613 160.5 613.1 160.8 613.1C161.4 613.1 162 612.8 162.3 612.3C162.8 611.5 162.6 610.3 161.8 609.8Z" fill="#F2B151"/>
<path d="M206.4 634C205.5 633.6 204.4 634 204 634.9C203.6 635.8 204 636.9 204.9 637.3C205.1 637.4 205.4 637.5 205.6 637.5C206.3 637.5 207 637.1 207.3 636.4C207.7 635.5 207.3 634.4 206.4 634Z" fill="#F2B151"/>
<path d="M194.9 628.6C194 628.2 192.9 628.5 192.5 629.4C192.1 630.3 192.4 631.4 193.3 631.8C193.6 631.9 193.8 632 194.1 632C194.8 632 195.4 631.6 195.7 631C196.1 630.2 195.8 629.1 194.9 628.6Z" fill="#F2B151"/>
<path d="M15 357C16 357 16.8 356.1 16.7 355.1C16.7 354.1 15.8 353.3 14.8 353.4C13.8 353.4 13 354.3 13.1 355.3C13.2 356.2 14 357 15 357Z" fill="#F2B151"/>
<path d="M93.4 133.3C93.9 133.3 94.4 133.1 94.8 132.7C95.5 131.9 95.4 130.8 94.6 130.1C93.8 129.4 92.7 129.5 92 130.3C91.3 131.1 91.4 132.2 92.2 132.9C92.5 133.2 92.9 133.3 93.4 133.3Z" fill="#F2B151"/>
<path d="M84 142.7C84.3 143 84.7001 143.1 85.1001 143.1C85.6001 143.1 86.2 142.9 86.5 142.4C87.1 141.6 87 140.5 86.2 139.8C85.4 139.2 84.3001 139.3 83.6001 140.1C83.1001 140.9 83.2 142.1 84 142.7Z" fill="#F2B151"/>
<path d="M101.9 123.9C102.4 123.9 102.9 123.7 103.2 123.3C103.9 122.6 103.9 121.4 103.1 120.7C102.4 120 101.2 120 100.5 120.8C99.8001 121.5 99.8001 122.7 100.6 123.4C101 123.7 101.5 123.9 101.9 123.9Z" fill="#F2B151"/>
<path d="M69.0001 163.4C69.3001 163.6 69.7001 163.7 70.0001 163.7C70.6001 163.7 71.1001 163.4 71.5001 162.9C72.1001 162.1 71.8001 160.9 71.0001 160.4C70.2001 159.8 69.0001 160 68.5001 160.9C67.9001 161.7 68.1001 162.8 69.0001 163.4Z" fill="#F2B151"/>
<path d="M76.3 152.9C76.6 153.1 77 153.3 77.4 153.3C78 153.3 78.5 153 78.9 152.6C79.5 151.8 79.3 150.6 78.5 150.1C77.7 149.5 76.5 149.7 76 150.5C75.3 151.1 75.5 152.3 76.3 152.9Z" fill="#F2B151"/>
<path d="M110.9 114.7C111.4 114.7 111.8 114.5 112.2 114.2C112.9 113.5 112.9 112.3 112.2 111.6C111.5 110.9 110.3 110.9 109.6 111.6C108.9 112.3 108.9 113.5 109.6 114.2C109.9 114.5 110.4 114.7 110.9 114.7Z" fill="#F2B151"/>
<path d="M120.1 106C120.5 106 121 105.8 121.3 105.5C122 104.8 122.1 103.7 121.4 102.9C120.7 102.2 119.6 102.1 118.8 102.8C118.1 103.5 118 104.6 118.7 105.4C119.2 105.8 119.6 106 120.1 106Z" fill="#F2B151"/>
<path d="M160.5 74.7999C160.8 74.7999 161.2 74.6999 161.5 74.4999C162.3 73.8999 162.6 72.7999 162 71.9999C161.4 71.1999 160.3 70.8999 159.5 71.4999C158.7 71.9999 158.4 73.1999 159 73.9999C159.3 74.4999 159.9 74.7999 160.5 74.7999Z" fill="#F2B151"/>
<path d="M149.9 82C150.3 82 150.6 81.9 151 81.7C151.8 81.1 152 80 151.4 79.2C150.8 78.4 149.7 78.2 148.9 78.8C148.1 79.4 147.9 80.5 148.5 81.3C148.8 81.7 149.4 82 149.9 82Z" fill="#F2B151"/>
<path d="M171.3 68.1C171.6 68.1 171.9 68 172.2 67.8C173.1 67.3 173.3 66.2 172.8 65.3C172.3 64.4 171.2 64.2 170.3 64.7C169.4 65.2 169.2 66.3 169.7 67.2C170.1 67.7 170.7 68.1 171.3 68.1Z" fill="#F2B151"/>
<path d="M14.9 331.4C15.9 331.4 16.8 330.6 16.8 329.6C16.8 328.6 16.1 327.8 15 327.7C14 327.7 13.1 328.4 13.1 329.4C13.1 330.6 13.9 331.4 14.9 331.4Z" fill="#F2B151"/>
<path d="M62.1 174.1C62.4 174.3 62.7 174.4 63.1 174.4C63.7 174.4 64.3 174.1 64.6 173.5C65.1 172.6 64.9 171.5 64 171C63.1 170.5 62 170.7 61.5 171.6C60.9 172.5 61.2 173.6 62.1 174.1Z" fill="#F2B151"/>
<path d="M139.7 89.5998C140.1 89.5998 140.5 89.4998 140.8 89.1998C141.6 88.5998 141.7 87.3998 141.1 86.5998C140.5 85.7998 139.3 85.6998 138.5 86.2998C137.7 86.8998 137.6 88.0998 138.2 88.8998C138.6 89.2998 139.2 89.5998 139.7 89.5998Z" fill="#F2B151"/>
<path d="M129.8 97.5998C130.2 97.5998 130.6 97.4998 131 97.1998C131.8 96.5998 131.9 95.3998 131.2 94.5998C130.6 93.7998 129.4 93.6997 128.6 94.3997C127.8 94.9997 127.7 96.1998 128.4 96.9998C128.7 97.3998 129.2 97.5998 129.8 97.5998Z" fill="#F2B151"/>
<path d="M18.4001 293.3C18.5001 293.3 18.6 293.3 18.7 293.3C19.6 293.3 20.4 292.7 20.5 291.8C20.7 290.8 20 289.9 19 289.7C18 289.5 17.1001 290.2 16.9001 291.2C16.7001 292.2 17.4001 293.2 18.4001 293.3Z" fill="#F2B151"/>
<path d="M20.5 280.7C20.6 280.7 20.7 280.7 20.9 280.7C21.8 280.7 22.5 280.1 22.7 279.2C22.9 278.2 22.3 277.2 21.3 277.1C20.3 276.9 19.3 277.5 19.2 278.5C18.9 279.6 19.6 280.5 20.5 280.7Z" fill="#F2B151"/>
<path d="M23.2 268.3C23.3 268.3 23.5 268.4 23.6 268.4C24.4 268.4 25.2 267.8 25.4 267C25.6 266 25 265 24.1 264.8C23.1 264.6 22.1 265.2 21.9 266.1C21.6 267 22.2 268 23.2 268.3Z" fill="#F2B151"/>
<path d="M15.5001 318.7H15.6001C16.5001 318.7 17.3001 318 17.4001 317C17.5001 316 16.7001 315.1 15.7001 315C14.7001 314.9 13.8001 315.7 13.7001 316.7C13.8001 317.7 14.5001 318.6 15.5001 318.7Z" fill="#F2B151"/>
<path d="M16.7001 306C16.8001 306 16.8001 306 16.9001 306C17.8001 306 18.6001 305.3 18.7001 304.4C18.8001 303.4 18.1001 302.5 17.1001 302.4C16.1001 302.3 15.2001 303 15.1001 304C15.0001 305 15.7001 305.9 16.7001 306Z" fill="#F2B151"/>
<path d="M26.4 255.9C26.6 255.9 26.7 256 26.9 256C27.7 256 28.4 255.5 28.6 254.7C28.9 253.7 28.3 252.7 27.3 252.4C26.3 252.1 25.3 252.7 25 253.7C24.8 254.6 25.4 255.6 26.4 255.9Z" fill="#F2B151"/>
<path d="M38.9 219.6C39.1 219.7 39.4 219.7 39.6 219.7C40.3 219.7 41 219.3 41.3 218.6C41.7 217.7 41.3 216.6 40.3 216.2C39.4 215.8 38.3 216.2 37.9 217.2C37.5 218.2 37.9 219.2 38.9 219.6Z" fill="#F2B151"/>
<path d="M329.6 661.3C328.6 661.3 327.8 662.1 327.7 663.1C327.7 664.1 328.5 664.9 329.5 665C330.5 665 331.3 664.2 331.3 663.2C331.4 662.1 330.6 661.3 329.6 661.3Z" fill="#F2B151"/>
<path d="M44 207.9C44.2 208 44.5 208.1 44.8 208.1C45.5 208.1 46.1 207.7 46.4 207.1C46.8 206.2 46.4 205.1 45.5 204.7C44.6 204.3 43.5 204.7 43.1 205.6C42.7 206.4 43.1 207.5 44 207.9Z" fill="#F2B151"/>
<path d="M34.2 231.6C34.4 231.7 34.6 231.7 34.8 231.7C35.5 231.7 36.2 231.2 36.5 230.5C36.9 229.6 36.4 228.5 35.4 228.2C34.5 227.8 33.4 228.3 33.1 229.3C32.8 230.2 33.3 231.2 34.2 231.6Z" fill="#F2B151"/>
<path d="M30 243.7C30.2 243.8 30.4 243.8 30.6 243.8C31.4 243.8 32.1 243.3 32.3 242.5C32.6 241.5 32.1 240.5 31.1 240.2C30.1 239.9 29.1 240.4 28.8 241.4C28.6 242.3 29.1 243.3 30 243.7Z" fill="#F2B151"/>
<path d="M55.6001 185.1C55.9001 185.3 56.2 185.3 56.5 185.3C57.1 185.3 57.7001 185 58.1001 184.4C58.6001 183.5 58.3 182.4 57.4 181.9C56.5 181.4 55.4 181.7 54.9 182.6C54.4 183.5 54.7001 184.6 55.6001 185.1Z" fill="#F2B151"/>
<path d="M608.2 173.8C608.5 173.8 608.9 173.7 609.2 173.5C610 173 610.3 171.8 609.8 171C609.3 170.1 608.1 169.9 607.3 170.4C606.4 170.9 606.2 172.1 606.7 172.9C607 173.5 607.6 173.8 608.2 173.8Z" fill="#F2B151"/>
<path d="M453.7 638.9C452.8 639.3 452.3 640.3 452.7 641.3C453 642 453.7 642.4 454.4 642.4C454.6 642.4 454.9 642.4 455.1 642.3C456 641.9 456.5 640.9 456.1 639.9C455.7 638.9 454.6 638.5 453.7 638.9Z" fill="#F2B151"/>
<path d="M441.8 643.3C440.9 643.6 440.4 644.7 440.7 645.6C441 646.3 441.7 646.8 442.4 646.8C442.6 646.8 442.8 646.8 443 646.7C443.9 646.4 444.4 645.3 444.1 644.4C443.8 643.5 442.8 643 441.8 643.3Z" fill="#F2B151"/>
<path d="M488.1 622.8C487.2 623.3 486.9 624.4 487.4 625.3C487.7 625.9 488.4 626.2 489 626.2C489.3 626.2 489.6 626.1 489.9 626C490.8 625.5 491.1 624.4 490.6 623.5C490.1 622.6 489 622.3 488.1 622.8Z" fill="#F2B151"/>
<path d="M429.8 647.3C428.8 647.6 428.3 648.6 428.6 649.6C428.8 650.4 429.6 650.9 430.3 650.9C430.5 650.9 430.7 650.9 430.8 650.8C431.8 650.5 432.3 649.5 432 648.5C431.7 647.5 430.7 647 429.8 647.3Z" fill="#F2B151"/>
<path d="M465.4 634C464.5 634.4 464.1 635.5 464.5 636.4C464.8 637.1 465.5 637.5 466.2 637.5C466.4 637.5 466.7 637.5 466.9 637.3C467.8 636.9 468.2 635.8 467.8 634.9C467.4 634 466.3 633.6 465.4 634Z" fill="#F2B151"/>
<path d="M476.8 628.6C475.9 629 475.5 630.1 476 631C476.3 631.6 477 632 477.6 632C477.9 632 478.1 631.9 478.4 631.8C479.3 631.4 479.7 630.3 479.2 629.4C478.8 628.5 477.7 628.1 476.8 628.6Z" fill="#F2B151"/>
<path d="M392.8 656.3C391.8 656.5 391.2 657.4 391.3 658.4C391.5 659.3 392.2 659.9 393.1 659.9C393.2 659.9 393.3 659.9 393.4 659.9C394.4 659.7 395 658.8 394.9 657.8C394.7 656.8 393.8 656.1 392.8 656.3Z" fill="#F2B151"/>
<path d="M380.2 658.3C379.2 658.4 378.5 659.4 378.6 660.4C378.7 661.3 379.5 662 380.4 662C380.5 662 380.6 662 380.7 662C381.7 661.9 382.4 660.9 382.3 659.9C382.2 658.8 381.2 658.1 380.2 658.3Z" fill="#F2B151"/>
<path d="M417.6 650.8C416.6 651.1 416 652.1 416.3 653C416.5 653.8 417.2 654.4 418.1 654.4C418.3 654.4 418.4 654.4 418.6 654.3C419.6 654 420.2 653 419.9 652.1C419.5 651.1 418.5 650.5 417.6 650.8Z" fill="#F2B151"/>
<path d="M405.2 653.8C404.2 654 403.6 655 403.8 656C404 656.9 404.7 657.4 405.6 657.4C405.7 657.4 405.9 657.4 406 657.4C407 657.2 407.6 656.2 407.4 655.2C407.2 654.2 406.2 653.6 405.2 653.8Z" fill="#F2B151"/>
<path d="M367.6 659.8C366.6 659.9 365.9 660.8 366 661.8C366.1 662.7 366.9 663.4 367.8 663.4C367.9 663.4 367.9 663.4 368 663.4C369 663.3 369.7 662.4 369.6 661.4C369.5 660.4 368.6 659.7 367.6 659.8Z" fill="#F2B151"/>
<path d="M568.1 561.1C567.4 561.8 567.4 563 568.2 563.7C568.6 564 569 564.2 569.4 564.2C569.9 564.2 570.4 564 570.7 563.6C571.4 562.9 571.4 561.7 570.6 561C570 560.3 568.8 560.3 568.1 561.1Z" fill="#F2B151"/>
<path d="M550 578.8C549.3 579.5 549.2 580.6 549.9 581.4C550.3 581.8 550.8 582 551.3 582C551.7 582 552.2 581.8 552.5 581.5C553.2 580.8 553.3 579.7 552.6 578.9C551.9 578.2 550.7 578.2 550 578.8Z" fill="#F2B151"/>
<path d="M559.2 570.1C558.5 570.8 558.5 572 559.2 572.7C559.6 573.1 560 573.2 560.5 573.2C561 573.2 561.4 573 561.8 572.7C562.5 572 562.5 570.8 561.8 570.1C561.1 569.4 560 569.4 559.2 570.1Z" fill="#F2B151"/>
<path d="M587.4 541.6C586.6 541 585.5 541.1 584.8 541.9C584.2 542.7 584.3 543.8 585.1 544.5C585.4 544.8 585.8 544.9 586.2 544.9C586.7 544.9 587.3 544.7 587.6 544.2C588.3 543.4 588.2 542.3 587.4 541.6Z" fill="#F2B151"/>
<path d="M576.7 551.7C576 552.5 576.1 553.6 576.9 554.3C577.2 554.6 577.7 554.7 578.1 554.7C578.6 554.7 579.1 554.5 579.5 554.1C580.2 553.3 580.1 552.2 579.3 551.5C578.5 550.8 577.3 550.9 576.7 551.7Z" fill="#F2B151"/>
<path d="M540.4 587.2C539.6 587.8 539.5 589 540.2 589.8C540.6 590.2 541.1 590.5 541.6 590.5C542 590.5 542.4 590.4 542.8 590.1C543.6 589.5 543.7 588.3 543 587.5C542.3 586.6 541.2 586.5 540.4 587.2Z" fill="#F2B151"/>
<path d="M520.3 602.6C519.5 603.2 519.3 604.3 519.9 605.1C520.3 605.6 520.8 605.9 521.4 605.9C521.8 605.9 522.1 605.8 522.5 605.6C523.3 605 523.5 603.9 522.9 603.1C522.3 602.3 521.2 602.1 520.3 602.6Z" fill="#F2B151"/>
<path d="M509.9 609.8C509.1 610.3 508.8 611.5 509.4 612.3C509.7 612.8 510.3 613.1 510.9 613.1C511.2 613.1 511.6 613 511.9 612.8C512.7 612.3 513 611.1 512.4 610.3C511.8 609.5 510.7 609.2 509.9 609.8Z" fill="#F2B151"/>
<path d="M499.1 616.5C498.2 617 498 618.1 498.5 619C498.8 619.6 499.4 619.9 500.1 619.9C500.4 619.9 500.7 619.8 501 619.6C501.9 619.1 502.1 618 501.6 617.1C501.1 616.3 500 616 499.1 616.5Z" fill="#F2B151"/>
<path d="M530.5 595.1C529.7 595.7 529.6 596.9 530.2 597.7C530.6 598.2 531.1 598.4 531.6 598.4C532 598.4 532.4 598.3 532.7 598C533.5 597.4 533.6 596.2 533 595.4C532.5 594.6 531.3 594.5 530.5 595.1Z" fill="#F2B151"/>
<path d="M355 660.8C354 660.9 353.2 661.7 353.3 662.7C353.4 663.7 354.2 664.4 355.1 664.4H355.2C356.2 664.3 357 663.5 356.9 662.5C356.9 661.5 356 660.7 355 660.8Z" fill="#F2B151"/>
<path d="M342.3 661.3C341.3 661.3 340.5 662.2 340.5 663.2C340.5 664.2 341.3 665 342.3 665C343.3 665 344.1 664.2 344.1 663.1C344.1 662.1 343.3 661.3 342.3 661.3Z" fill="#F2B151"/>
<path d="M267.4 119.4C268.7 119 269.9 118.6 271.2 118.3L335.9 6L400.7 118.3C402 118.7 403.2 119 404.5 119.4L335.9 0.5L267.4 119.4Z" fill="#F2B151"/>
<path d="M195.3 527.9C194.1 527 192.9 526.1 191.7 525.2H36.2L109.7 398C109.4 396.7 109.1 395.4 108.8 394.1L31.6 527.9H195.3V527.9Z" fill="#F2B151"/>
<path d="M640.4 527.9L563 393.9C562.7 395.2 562.4 396.5 562.1 397.8L635.7 525.2H479.9C478.7 526.1 477.5 527 476.3 527.9H640.4Z" fill="#F2B151"/>
<path d="M351.3 273.7C352.4 274 353.6 273.4 354.1 272.4C353.1 272.8 352.1 273.2 351.1 273.6C351.1 273.6 351.2 273.7 351.3 273.7Z" fill="#F2B151"/>
<path d="M320.4 308.3C323.9 306.6 325.4 302.5 323.7 299C323.1 297.8 322.3 296.9 321.3 296.2C320.9 296.7 320.5 297.2 320.1 297.8C317.7 301 315.5 304.4 313.7 307.9C315.5 309.1 318.1 309.3 320.4 308.3Z" fill="#F2B151"/>
<path d="M343.3 297.7C343.3 293.8 340.2 290.7 336.3 290.7C332.4 290.7 329.3 293.8 329.3 297.7C329.3 301.6 332.4 304.7 336.3 304.7C340.1 304.7 343.3 301.5 343.3 297.7Z" fill="#F2B151"/>
<path d="M336.3 287.2C338.8 287.2 340.8 285.2 340.8 282.7C340.8 281.5 340.3 280.4 339.6 279.6C337.1 281.2 334.7 282.9 332.5 284.8C333.1 286.2 334.6 287.2 336.3 287.2Z" fill="#F2B151"/>
<path d="M354.4 324C356.6 319.7 354.8 314.4 350.5 312.2C346.2 310 340.9 311.8 338.7 316.1C336.5 320.4 338.3 325.7 342.6 327.9C347 330.1 352.3 328.3 354.4 324Z" fill="#F2B151"/>
<path d="M350.3 289C352.7 289.6 355.1 288.2 355.8 285.8C356.4 283.4 355 281 352.6 280.3C350.2 279.7 347.8 281.1 347.1 283.5C346.5 285.9 347.9 288.4 350.3 289Z" fill="#F2B151"/>
<path d="M329.2 327.7C333.6 325.6 335.5 320.4 333.4 316C331.3 311.6 326.1 309.7 321.7 311.8C317.3 313.9 315.4 319.1 317.5 323.5C319.6 327.9 324.8 329.8 329.2 327.7Z" fill="#F2B151"/>
<path d="M311.1 348.8C307.2 351.7 306.3 357.2 309.2 361.1C312.1 365 317.6 365.9 321.5 363C325.4 360.1 326.3 354.6 323.4 350.7C320.5 346.8 315 345.9 311.1 348.8Z" fill="#F2B151"/>
<path d="M310.1 343.7C314.8 345 319.6 342.3 320.9 337.6C322.2 332.9 319.5 328.1 314.8 326.8C311.6 325.9 308.4 326.9 306.2 329.1C305.6 332.7 305.2 336.3 305 340C306.2 341.7 308 343 310.1 343.7Z" fill="#F2B151"/>
<path d="M357.4 295.3C353.9 293.7 349.7 295.3 348.2 298.8C346.6 302.3 348.2 306.4 351.7 308C355.2 309.6 359.3 308 360.9 304.5C362.5 301 361 296.9 357.4 295.3Z" fill="#F2B151"/>
<path d="M383.4 314.1C384.6 316.2 387.4 316.9 389.5 315.7C391.6 314.5 392.3 311.7 391.1 309.6C389.9 307.5 387.1 306.8 385 308C382.8 309.3 382.1 312 383.4 314.1Z" fill="#F2B151"/>
<path d="M392 321.7C389.6 322.4 388.2 324.8 388.9 327.2C389.6 329.6 392 331 394.4 330.3C396.8 329.6 398.2 327.2 397.5 324.8C396.8 322.4 394.4 321 392 321.7Z" fill="#F2B151"/>
<path d="M390.4 298.1C391.3 299.2 392.9 299.4 394 298.5C395.1 297.6 395.3 296 394.4 294.9C393.5 293.8 391.9 293.6 390.8 294.5C389.7 295.4 389.5 297 390.4 298.1Z" fill="#F2B151"/>
<path d="M362 361.7C364.9 357.8 364.2 352.3 360.3 349.4C356.4 346.5 350.9 347.2 348 351.1C345.1 355 345.8 360.5 349.7 363.4C353.5 366.3 359 365.5 362 361.7Z" fill="#F2B151"/>
<path d="M341 331.2C335.2 328.3 328.2 330.7 325.3 336.5C322.4 342.3 324.8 349.3 330.6 352.2C336.4 355.1 343.4 352.7 346.3 346.9C349.1 341.1 346.8 334.1 341 331.2Z" fill="#F2B151"/>
<path d="M368.3 274.2C367 273.6 365.5 274.1 364.9 275.4C364.3 276.7 364.8 278.2 366.1 278.8C367.4 279.4 368.9 278.9 369.5 277.6C370.1 276.4 369.6 274.8 368.3 274.2Z" fill="#F2B151"/>
<path d="M378.9 283.5C378 284.6 378.2 286.2 379.3 287.1C380.4 288 382 287.8 382.9 286.7C383.8 285.6 383.6 284 382.5 283.1C381.4 282.2 379.8 282.4 378.9 283.5Z" fill="#F2B151"/>
<path d="M374.7 303C376.5 304.7 379.3 304.7 381 303C382.7 301.2 382.7 298.4 381 296.7C379.2 295 376.4 295 374.7 296.7C372.9 298.4 372.9 301.2 374.7 303Z" fill="#F2B151"/>
<path d="M368 334.9C367 330.2 362.3 327.1 357.6 328.1C352.9 329.1 349.8 333.8 350.8 338.5C351.8 343.2 356.5 346.3 361.2 345.3C366 344.3 369 339.6 368 334.9Z" fill="#F2B151"/>
<path d="M367.8 286.7C365.7 285.5 362.9 286.2 361.7 288.4C360.5 290.5 361.2 293.3 363.4 294.5C365.5 295.7 368.3 295 369.5 292.8C370.7 290.6 370 287.9 367.8 286.7Z" fill="#F2B151"/>
<path d="M387.1 347C387.5 343.2 384.7 339.7 380.9 339.3C377.1 338.9 373.6 341.7 373.2 345.5C372.8 349.3 375.6 352.8 379.4 353.2C383.3 353.6 386.7 350.8 387.1 347Z" fill="#F2B151"/>
<path d="M364.4 307.1C361.5 309.7 361.3 314.1 363.9 317C366.5 319.9 370.9 320.1 373.8 317.5C376.7 314.9 376.9 310.5 374.3 307.6C371.7 304.8 367.3 304.5 364.4 307.1Z" fill="#F2B151"/>
<path d="M376.3 321.9C372.6 323.1 370.6 327 371.7 330.7C372.9 334.4 376.8 336.4 380.5 335.3C384.2 334.1 386.2 330.2 385.1 326.5C383.9 322.8 380 320.8 376.3 321.9Z" fill="#F2B151"/>
<path d="M381.2 366.2C383 362.8 381.8 358.6 378.4 356.7C375 354.9 370.8 356.1 368.9 359.5C367.1 362.9 368.3 367.1 371.7 369C375.1 370.8 379.3 369.6 381.2 366.2Z" fill="#F2B151"/>
<path d="M382 385.9C383.7 384.1 383.7 381.3 381.9 379.6C380.1 377.9 377.3 377.9 375.6 379.7C373.9 381.5 373.9 384.3 375.7 386C377.4 387.7 380.3 387.7 382 385.9Z" fill="#F2B151"/>
<path d="M369.1 396.2C371.2 394.9 371.9 392.2 370.6 390.1C369.3 388 366.6 387.3 364.5 388.6C362.4 389.9 361.7 392.6 363 394.7C364.2 396.8 367 397.5 369.1 396.2Z" fill="#F2B151"/>
<path d="M380.1 396.4C379 397.3 378.8 398.9 379.7 400C380.6 401.1 382.2 401.3 383.3 400.4C384.4 399.5 384.6 397.9 383.7 396.8C382.9 395.7 381.2 395.5 380.1 396.4Z" fill="#F2B151"/>
<path d="M350.5 390.9C354.2 389.8 356.3 386 355.3 382.3C354.2 378.6 350.4 376.5 346.7 377.5C343 378.6 340.9 382.4 341.9 386.1C342.9 389.8 346.8 391.9 350.5 390.9Z" fill="#F2B151"/>
<path d="M369.3 409.4C370.6 408.8 371.1 407.2 370.5 406C369.9 404.7 368.3 404.2 367.1 404.8C365.8 405.4 365.3 407 365.9 408.2C366.5 409.6 368 410.1 369.3 409.4Z" fill="#F2B151"/>
<path d="M354 402.8C356.4 402.1 357.7 399.6 357 397.3C356.3 394.9 353.8 393.6 351.5 394.3C349.1 395 347.8 397.5 348.5 399.8C349.2 402.1 351.6 403.5 354 402.8Z" fill="#F2B151"/>
<path d="M355.4 412.1C355.1 410.7 353.7 409.9 352.3 410.2C351.6 410.4 351.1 410.8 350.8 411.3C352.3 411.9 353.9 412.5 355.5 413.1C355.5 412.8 355.5 412.4 355.4 412.1Z" fill="#F2B151"/>
<path d="M391.8 372.7C393 370.5 392.2 367.8 390.1 366.6C387.9 365.4 385.2 366.2 384 368.3C382.8 370.5 383.6 373.2 385.7 374.4C387.9 375.6 390.6 374.9 391.8 372.7Z" fill="#F2B151"/>
<path d="M368.4 381.5C371.4 379.1 371.9 374.7 369.4 371.7C367 368.7 362.6 368.2 359.6 370.7C356.6 373.1 356.1 377.5 358.6 380.5C361 383.5 365.4 383.9 368.4 381.5Z" fill="#F2B151"/>
<path d="M408.4 339C407 339 405.8 340.2 405.9 341.6C405.9 343 407.1 344.2 408.5 344.1C409.9 344.1 411.1 342.9 411 341.5C411 340.1 409.9 339 408.4 339Z" fill="#F2B151"/>
<path d="M404 326C404.3 327.4 405.7 328.2 407.1 327.9C408.5 327.6 409.3 326.2 409 324.8C408.7 323.4 407.3 322.6 405.9 322.9C404.6 323.3 403.7 324.7 404 326Z" fill="#F2B151"/>
<path d="M407.3 355.1C405.9 354.8 404.6 355.7 404.3 357.1C404 358.5 404.9 359.8 406.3 360.1C407.7 360.4 409 359.5 409.3 358.1C409.6 356.8 408.7 355.4 407.3 355.1Z" fill="#F2B151"/>
<path d="M402.2 312.5C403.5 311.9 404 310.3 403.4 309.1C402.8 307.9 401.2 307.3 400 307.9C398.7 308.5 398.2 310.1 398.8 311.3C399.4 312.6 400.9 313.1 402.2 312.5Z" fill="#F2B151"/>
<path d="M395.1 388.4C396 387.3 395.8 385.7 394.7 384.8C393.6 383.9 392 384.1 391.1 385.2C390.2 386.3 390.4 387.9 391.5 388.8C392.6 389.7 394.2 389.5 395.1 388.4Z" fill="#F2B151"/>
<path d="M399.2 371.9C398.6 373.2 399.1 374.7 400.4 375.3C401.7 375.9 403.2 375.4 403.8 374.1C404.4 372.8 403.9 371.3 402.6 370.7C401.4 370.1 399.9 370.6 399.2 371.9Z" fill="#F2B151"/>
<path d="M394.6 352C392.2 351.4 389.8 352.8 389.2 355.2C388.6 357.6 390 360 392.4 360.6C394.8 361.2 397.2 359.8 397.8 357.4C398.5 355 397 352.6 394.6 352Z" fill="#F2B151"/>
<path d="M390.9 341.2C390.9 343.7 392.9 345.6 395.4 345.6C397.9 345.6 399.8 343.6 399.8 341.1C399.8 338.6 397.8 336.7 395.3 336.7C392.8 336.7 390.9 338.7 390.9 341.2Z" fill="#F2B151"/>
<path d="M329.1 392.4C332.9 392.9 336.5 390.3 337 386.5C337.5 382.7 334.9 379.1 331.1 378.6C327.3 378.1 323.7 380.7 323.2 384.5C322.6 388.3 325.3 391.8 329.1 392.4Z" fill="#F2B151"/>
<path d="M344 366C344.1 361.1 340.3 357.1 335.4 357C330.5 356.9 326.5 360.7 326.4 365.6C326.3 370.5 330.1 374.5 335 374.6C339.9 374.7 343.9 370.9 344 366Z" fill="#F2B151"/>
<path d="M340.8 400.8C340.8 398.3 338.8 396.3 336.3 396.3C334.2 396.3 332.4 397.8 332 399.8C334.1 401.5 336.3 403.2 338.5 404.7C339.8 403.9 340.8 402.5 340.8 400.8Z" fill="#F2B151"/>
<path d="M318.8 382.9C320.8 379.6 319.9 375.3 316.6 373.3C314.9 372.3 313 372 311.2 372.4C313 376.5 315.2 380.4 317.7 384.2C318.2 383.8 318.5 383.4 318.8 382.9Z" fill="#F2B151"/>
<path d="M334.8 417.1C339.7 417.1 344.6 416.6 349.4 415.7C336.4 410.3 324.8 401.4 316.3 390.1C305.9 376.3 300.4 359.9 300.4 342.6C300.4 325.3 305.9 308.9 316.3 295.1C324.8 283.8 336.4 274.9 349.4 269.5C344.6 268.5 339.7 268.1 334.8 268.1C293.7 268.1 260.2 301.6 260.2 342.7C260.2 383.7 293.7 417.1 334.8 417.1Z" fill="#F2B151"/>
<path d="M335.8 562.2C394.6 562.2 449.9 539.3 491.5 497.7C533.1 456.1 556 400.8 556 342C556 283.2 533 228 491.5 186.4C449.9 144.8 394.6 121.9 335.8 121.9C277 121.9 221.7 144.8 180.1 186.4C138.5 228 115.6 283.3 115.6 342.1C115.6 400.9 138.5 456.2 180.1 497.8C221.7 539.4 277 562.2 335.8 562.2ZM335.8 559.5C307.2 559.5 279.5 554 253.7 543.5L267.3 510.6C289 519.4 312 523.9 335.7 523.9C359.3 523.9 382.3 519.4 403.9 510.6L417.5 543.5C392 554 364.3 559.5 335.8 559.5ZM206.4 214.4C204.7 216.1 203.1 217.8 201.5 219.6L187.8 195.8L206.4 214.4ZM156.8 340.6C157.2 292.2 176.8 248.4 208.3 216.3L208.4 216.4L210.3 214.5L210.2 214.4C226.2 198.7 245.1 185.9 266.1 177L266.2 177.1L268.7 176.1L268.6 176C289.4 167.6 312 163 335.8 163C359.6 163 382.3 167.7 403.1 176.1V176.2L405.6 177.2L405.7 177.1C426.7 186 445.6 198.8 461.6 214.5L461.5 214.6L463.4 216.5L463.5 216.4C495 248.4 514.6 292.3 514.9 340.7H514.8V343.4H514.9C514.5 391.8 494.9 435.6 463.4 467.7L463.3 467.6L462.5 468.5L461.5 469.6C460.9 470.2 460.2 470.8 459.6 471.5H458.5C448.8 471.3 443.7 468.6 438.8 466C434.6 463.8 430.3 461.5 423.3 460.6L391.9 417.3C394.2 415.6 396.4 413.8 398.5 411.9L434.4 451.7L435.4 450.8L399.5 411C401.5 409.1 403.5 407.1 405.4 405.1L455.3 450L456.2 449L406.3 404.1C408.2 402 409.9 399.8 411.6 397.5L455 429L455.8 427.9L412.3 396.4C413.9 394.1 415.4 391.8 416.8 389.4L475 423L475.7 421.8L417.5 388.2C418.9 385.7 420.2 383.2 421.3 380.6L470.4 402.4L471 401.1L422 379.3C423.1 376.8 424.1 374.2 425 371.5L488.9 392.3L489.3 391L425.4 370.2C426.2 367.5 427 364.8 427.6 362L480.2 373.1L480.5 371.7L427.9 360.6C428.4 357.9 428.9 355.1 429.2 352.4L496.1 359.4L496.2 358L429.3 351C429.6 348.2 429.7 345.4 429.7 342.5H483.5V341H429.7C429.7 338.2 429.5 335.4 429.3 332.7L496.3 325.7L496.2 324.3L429.2 331.3C428.9 328.5 428.4 325.7 427.9 322.9L480.6 311.7L480.3 310.3L427.6 321.5C427 318.8 426.3 316.1 425.4 313.5L489.5 292.7L489.1 291.4L425 312.2C424.1 309.5 423.1 306.9 421.9 304.3L471.1 282.3L470.5 281L421.3 303C420.1 300.5 418.9 298 417.5 295.6L475.9 261.9L475.2 260.7L416.8 294.4C415.4 292 413.8 289.6 412.2 287.3L455.8 255.5L455 254.4L411.4 286.2C409.7 284 408 281.8 406.2 279.8L456.3 234.7L455.4 233.7L405.3 278.8C403.4 276.7 401.4 274.7 399.3 272.8L435.4 232.7L434.4 231.8L398 271.8C395.9 270 393.8 268.2 391.5 266.6L431.1 212L430 211.2L390.4 265.7C388.1 264.1 385.7 262.5 383.3 261.1L410.2 214.4L409 213.7L382.1 260.4C379.7 259 377.2 257.8 374.7 256.6L402.1 195L400.8 194.4L373.4 256C370.8 254.9 368.2 253.8 365.5 252.9L382.1 201.6L380.8 201.2L364.2 252.5C361.6 251.7 358.9 250.9 356.2 250.3L370.1 184.9L370.2 184.5L368.8 184.2L354.8 250.1C352.1 249.5 349.3 249.1 346.4 248.8L352 195.2L350.6 195.1L345 248.7C342.3 248.4 339.5 248.3 336.7 248.3V181H335.3V248.3C332.4 248.3 329.6 248.5 326.8 248.7L321.2 195.6V195.1L319.8 195.2L325.5 248.7C322.7 249 320 249.4 317.3 250L303.3 184.2L301.9 184.5L315.9 250.3C313.1 250.9 310.4 251.6 307.7 252.5L291 201.4L289.7 201.8L306.4 252.9C303.8 253.8 301.2 254.8 298.6 255.9L271.3 194.5L270 195.1L297.3 256.5C294.7 257.7 292.2 259 289.7 260.4L262.8 213.9L261.6 214.6L288.5 261.1C286.1 262.5 283.8 264 281.5 265.6L242 211.2L240.9 212L280.4 266.3C278.1 268 275.9 269.8 273.8 271.6L237.8 231.7L236.8 232.6L272.7 272.5C270.6 274.4 268.7 276.3 266.8 278.4L216.9 233.5L216 234.5L265.9 279.4C264 281.5 262.2 283.7 260.5 286L217.1 254.5L216.3 255.6L259.7 287.1C258.1 289.4 256.5 291.7 255.1 294.1L197 260.8L196.3 262L254.3 295.5C252.9 298 251.6 300.5 250.4 303.1L201.5 281.4L200.9 282.7L249.8 304.4C248.7 306.9 247.7 309.5 246.8 312.2L183.1 291.5L182.7 292.8L246.4 313.5C245.5 316.2 244.8 318.9 244.2 321.7L191.9 310.6L191.6 312L243.9 323.1C243.3 325.8 242.9 328.6 242.6 331.4L176.1 324.4L176 325.8L242.5 332.8C242.2 335.6 242.1 338.4 242 341.3H188.6V342.7H242C242 345.5 242.2 348.3 242.4 351.1L175.9 358.1L176 359.5L242.5 352.5C242.8 355.3 243.2 358.2 243.8 360.9L192.1 371.9L191.7 372L192 373.4L244.2 362.3C244.8 365 245.5 367.7 246.4 370.4L182.9 391L183.3 392.3L246.8 371.7C247.7 374.4 248.7 377.1 249.9 379.7L201.2 401.4L201.8 402.7L250.5 381C251.7 383.5 252.9 386 254.3 388.5L196.8 421.7L196.4 421.9L197.1 423.1L255 389.7C256.4 392.2 258 394.5 259.7 396.8L216.6 428.2L217.4 429.3L260.5 397.9C262.2 400.1 263.9 402.3 265.8 404.4L216 449L216.9 450L266.6 405.3C268.5 407.4 270.5 409.4 272.6 411.3L236.9 451L237.9 451.9L273.6 412.2C275.7 414.1 277.9 415.8 280.1 417.5L249 460.2C248.2 460.2 247.4 460.1 246.6 460.1C235.7 460.1 230.2 463 224.9 465.8C221.4 467.7 217.7 469.6 212.4 470.6L211.5 470.8C211 470.3 210.5 469.9 210 469.4L210.1 469.3L208.2 467.4L208.1 467.5C176.6 435.5 157 391.6 156.7 343.2H156.8V340.6ZM360.2 518.4C359.9 518.3 359.5 518.1 359.2 518C358.9 517.9 358.7 517.8 358.4 517.7C358 517.5 357.7 517.4 357.3 517.2C357.1 517.1 356.9 517 356.7 516.9C356.3 516.7 355.8 516.5 355.4 516.3C355.3 516.2 355.2 516.2 355 516.1C354.5 515.8 354 515.6 353.5 515.3C348.2 512.5 342.7 509.6 331.8 509.6C320.9 509.6 315.4 512.5 310.1 515.3C309.8 515.5 309.4 515.7 309 515.9C308.9 516 308.8 516 308.7 516.1C308.4 516.2 308.2 516.4 307.9 516.5C307.8 516.6 307.6 516.6 307.5 516.7C307.3 516.8 307 516.9 306.8 517.1C306.6 517.2 306.5 517.3 306.3 517.3C306.1 517.4 305.9 517.5 305.7 517.6C287 514.4 269.1 508.3 252.3 499.4C252.4 499.4 252.6 499.4 252.7 499.4C252.9 499.4 253.1 499.4 253.3 499.5C253.6 499.5 253.8 499.6 254.1 499.6C254.3 499.6 254.5 499.7 254.6 499.7C254.9 499.7 255.1 499.8 255.4 499.8C255.6 499.8 255.7 499.9 255.9 499.9C256.2 500 256.4 500 256.7 500.1C256.8 500.1 257 500.2 257.1 500.2C257.4 500.3 257.8 500.4 258.1 500.5H258.2C258.6 500.6 258.9 500.7 259.3 500.8C259.4 500.8 259.5 500.9 259.6 500.9C259.8 501 260.1 501.1 260.3 501.1C260.4 501.1 260.6 501.2 260.7 501.2C260.9 501.3 261.1 501.3 261.3 501.4C261.4 501.5 261.6 501.5 261.7 501.6C261.9 501.7 262.1 501.7 262.2 501.8C262.3 501.9 262.5 501.9 262.6 502C262.8 502.1 262.9 502.2 263.1 502.2C263.2 502.3 263.4 502.3 263.5 502.4C263.7 502.5 263.8 502.6 264 502.6C264.1 502.7 264.2 502.7 264.4 502.8C264.6 502.9 264.7 503 264.9 503C265 503.1 265.1 503.1 265.3 503.2C265.5 503.3 265.6 503.4 265.8 503.5C265.9 503.6 266 503.6 266.1 503.7C266.3 503.8 266.5 503.9 266.7 504C266.8 504 266.9 504.1 267 504.1C267.3 504.2 267.5 504.4 267.8 504.5C273.1 507.3 278.6 510.2 289.5 510.2C300.4 510.2 305.9 507.3 311.2 504.5C316.3 501.8 321.6 499 332.1 499C333.4 499 334.6 499 335.8 499.1C343.9 499.7 348.5 502.1 353 504.5C358.3 507.3 363.8 510.2 374.7 510.2C378.8 510.2 382.1 509.8 384.9 509.1C389.6 508 393 506.2 396.4 504.4C401.5 501.7 406.8 498.9 417.3 498.9C418.2 498.9 419.1 498.9 419.9 499C420 499 420.1 499 420.2 499C401.3 509 381.2 515.5 360.2 518.4ZM354.3 517.7C354.5 517.8 354.6 517.9 354.8 517.9C355.4 518.2 356 518.5 356.6 518.8H356.7C340.8 520.6 324.6 520.4 308.8 517.9C308.9 517.8 309 517.8 309.1 517.7C309.2 517.6 309.4 517.6 309.5 517.5C310 517.2 310.5 517 311 516.7C316.1 514 321.4 511.2 331.9 511.2C342.3 511.2 347.6 514 352.8 516.7C353.2 517.1 353.8 517.4 354.3 517.7ZM244.7 484.9C244.5 484.9 244.3 484.9 244 484.9C243.6 484.9 243.1 484.9 242.7 485C242.4 485 242.2 485 241.9 485.1C241.5 485.1 241.2 485.2 240.8 485.2C240.5 485.2 240.3 485.3 240 485.3C239.7 485.3 239.3 485.4 239 485.4C238.7 485.4 238.5 485.5 238.2 485.5C237.9 485.6 237.6 485.6 237.3 485.7C237 485.8 236.8 485.8 236.5 485.9C236.2 486 235.9 486 235.6 486.1C235.3 486.2 235.1 486.2 234.8 486.3C234.5 486.4 234.2 486.5 233.9 486.6C233.6 486.7 233.4 486.8 233.1 486.9C232.8 487 232.6 487.1 232.3 487.2C229.5 485.2 226.7 483.1 224 480.9C224.6 480.6 225.1 480.3 225.7 480C230.8 477.3 236.1 474.5 246.6 474.5C257 474.5 262.3 477.3 267.5 480C272.8 482.8 278.3 485.7 289.2 485.7C300.1 485.7 305.6 482.8 310.9 480C316 477.3 321.3 474.5 331.8 474.5C333.1 474.5 334.3 474.5 335.5 474.6C343.6 475.2 348.2 477.6 352.7 480C358 482.8 363.5 485.7 374.4 485.7C385.3 485.7 390.8 482.8 396.1 480C401.2 477.3 406.5 474.5 417 474.5C427.4 474.5 432.7 477.3 437.9 480C438.4 480.3 439 480.6 439.5 480.9C439.7 481 439.9 481.1 440.1 481.2C440.5 481.4 440.9 481.6 441.3 481.8C441.5 481.9 441.8 482 442 482.1C442.4 482.3 442.7 482.4 443.1 482.6C443.4 482.7 443.6 482.8 443.9 482.9C444.2 483 444.4 483.1 444.7 483.2C441.9 485.4 439 487.4 436.2 489.3C436.1 489.2 436 489.2 435.9 489.1C435.8 489 435.7 489 435.6 488.9C435.4 488.8 435.3 488.7 435.1 488.7C435 488.6 434.9 488.6 434.7 488.5C434.5 488.4 434.4 488.4 434.2 488.3C434.1 488.2 433.9 488.2 433.8 488.1C433.6 488 433.5 488 433.3 487.9C433.2 487.8 433 487.8 432.9 487.7C432.7 487.6 432.6 487.6 432.4 487.5C432.3 487.4 432.1 487.4 432 487.3C431.8 487.2 431.6 487.2 431.5 487.1C431.3 487 431.2 487 431 486.9C430.8 486.8 430.6 486.8 430.4 486.7C430.2 486.6 430.1 486.6 429.9 486.5C429.7 486.4 429.5 486.4 429.3 486.3C429.1 486.2 428.9 486.2 428.8 486.1C428.6 486 428.4 486 428.2 485.9C428 485.9 427.8 485.8 427.6 485.8C427.4 485.7 427.2 485.7 426.9 485.7C426.7 485.7 426.5 485.6 426.3 485.6C426.1 485.6 425.8 485.5 425.6 485.5C425.4 485.5 425.2 485.4 425 485.4C424.8 485.4 424.5 485.3 424.2 485.3C424 485.3 423.8 485.2 423.6 485.2C423.3 485.2 423.1 485.1 422.8 485.1C422.6 485.1 422.4 485 422.1 485C421.8 485 421.5 485 421.2 484.9C421 484.9 420.8 484.9 420.6 484.8C420.3 484.8 419.9 484.8 419.5 484.8C419.3 484.8 419.1 484.8 418.9 484.8C418.3 484.8 417.8 484.8 417.2 484.8C413.1 484.8 409.8 485.2 407 485.9C402.3 487 398.9 488.8 395.5 490.6C390.4 493.3 385.1 496.1 374.6 496.1C364.2 496.1 358.9 493.3 353.7 490.6C348.4 487.8 342.9 484.9 332 484.9C321.1 484.9 315.6 487.8 310.3 490.6C305.2 493.3 299.9 496.1 289.4 496.1C279 496.1 273.7 493.3 268.5 490.6C263.2 487.8 257.7 484.9 246.8 484.9C246 484.9 245.3 484.9 244.7 484.9ZM214.3 472.3C214.5 472.3 214.7 472.2 214.9 472.2C215.2 472.1 215.4 472.1 215.7 472C216 471.9 216.3 471.8 216.6 471.7C216.9 471.6 217.1 471.5 217.4 471.5C217.7 471.4 218 471.3 218.3 471.2C218.5 471.1 218.8 471 219 470.9C219.3 470.8 219.6 470.7 219.9 470.6C220.1 470.5 220.3 470.4 220.5 470.3C220.8 470.2 221.1 470.1 221.3 469.9C221.5 469.8 221.7 469.7 221.9 469.6C222.2 469.5 222.5 469.3 222.8 469.2C223 469.1 223.1 469 223.3 469C223.6 468.8 223.9 468.7 224.3 468.5C224.4 468.4 224.5 468.4 224.6 468.3C225 468.1 225.5 467.9 225.9 467.6C231 464.9 236.3 462.1 246.8 462.1C257.2 462.1 262.5 464.9 267.7 467.6C273 470.4 278.5 473.3 289.4 473.3C300.3 473.3 305.8 470.4 311.1 467.6C316.2 464.9 321.5 462.1 332 462.1C333.3 462.1 334.5 462.1 335.7 462.2C343.8 462.8 348.4 465.2 352.9 467.6C358.2 470.4 363.7 473.3 374.6 473.3C385.5 473.3 391 470.4 396.3 467.6C401.4 464.9 406.7 462.1 417.2 462.1C427.6 462.1 432.9 464.9 438.1 467.6C438.4 467.8 438.7 467.9 439 468.1C439.1 468.1 439.1 468.2 439.2 468.2C439.4 468.3 439.7 468.4 439.9 468.6C440 468.6 440.1 468.7 440.2 468.7C440.4 468.8 440.6 468.9 440.9 469C441 469.1 441.1 469.1 441.2 469.2C441.4 469.3 441.6 469.4 441.8 469.5C441.9 469.6 442 469.6 442.2 469.7C442.4 469.8 442.6 469.9 442.8 470C442.9 470.1 443.1 470.1 443.2 470.2C443.4 470.3 443.6 470.4 443.8 470.5C443.9 470.6 444.1 470.6 444.2 470.7C444.4 470.8 444.6 470.9 444.8 470.9C445 471 445.1 471 445.3 471.1C445.5 471.2 445.7 471.3 445.9 471.3C446.1 471.4 446.2 471.4 446.4 471.5C446.6 471.6 446.8 471.6 447.1 471.7C447.3 471.8 447.5 471.8 447.6 471.9C447.8 472 448 472 448.3 472.1C448.5 472.2 448.7 472.2 448.9 472.2C449.1 472.3 449.4 472.3 449.6 472.4C449.8 472.4 450 472.5 450.2 472.5C450.4 472.6 450.7 472.6 450.9 472.6C451.1 472.6 451.3 472.7 451.5 472.7C451.8 472.7 452 472.8 452.3 472.8C452.5 472.8 452.7 472.9 453 472.9C453.3 472.9 453.5 473 453.8 473C454 473 454.3 473.1 454.5 473.1C454.8 473.1 455.1 473.2 455.4 473.2C455.6 473.2 455.9 473.2 456.1 473.3C456.2 473.3 456.3 473.3 456.4 473.3C453.1 476.3 449.7 479.2 446.4 481.8H446.3C445.6 481.6 445 481.3 444.4 481.1C444.3 481.1 444.3 481.1 444.2 481C443.6 480.7 443 480.5 442.4 480.2C442.4 480.2 442.3 480.2 442.3 480.1C441.7 479.8 441.1 479.5 440.6 479.2C440.6 479.2 440.5 479.2 440.5 479.1C439.9 478.8 439.4 478.5 438.8 478.2C434.1 475.7 429.3 473.2 420.9 472.6C419.7 472.5 418.4 472.5 417.1 472.5C406.2 472.5 400.7 475.4 395.4 478.2C390.3 480.9 385 483.7 374.5 483.7C364.1 483.7 358.8 480.9 353.6 478.2C348.3 475.4 342.8 472.5 331.9 472.5C321 472.5 315.5 475.4 310.2 478.2C305.1 480.9 299.8 483.7 289.3 483.7C278.9 483.7 273.6 480.9 268.4 478.2C263.1 475.4 257.6 472.5 246.7 472.5C237.9 472.5 232.6 474.4 228 476.7C227 477.2 225.9 477.7 224.9 478.3C224.1 478.7 223.3 479.1 222.5 479.5C219.8 477.3 217 474.8 214.3 472.3ZM244.7 342.1C244.7 291.8 285.6 251 335.8 251C386 251 426.9 291.9 426.9 342.1C426.9 392.3 386 433.2 335.8 433.2C285.6 433.2 244.7 392.3 244.7 342.1ZM404.7 461.9C401 463 398.1 464.5 395.3 466C394.5 466.4 393.6 466.9 392.7 467.3L374.9 427.3C377.5 426.1 380 424.8 382.5 423.4L404.7 461.9ZM391.4 468C388.1 469.6 384.3 470.9 378.9 471.4L365.8 431C368.5 430.1 371 429.1 373.6 428L391.4 468ZM377.5 471.5C376.5 471.6 375.5 471.6 374.4 471.6C370.2 471.6 366.9 471.1 364.1 470.4L356.3 433.7C359.1 433.1 361.8 432.3 364.5 431.5L377.5 471.5ZM362.6 470C359.1 468.9 356.3 467.5 353.6 466C352.3 465.3 351.1 464.7 349.7 464L346.7 435.2C349.5 434.9 352.2 434.4 355 433.9L362.6 470ZM348.2 463.4C345.1 462.1 341.5 461 336.7 460.5V435.9C339.6 435.9 342.4 435.7 345.2 435.4L348.2 463.4ZM335.4 460.4C334.3 460.3 333.1 460.3 331.9 460.3C329.1 460.3 326.6 460.5 324.4 460.8L327 435.5C329.8 435.8 332.5 435.9 335.4 435.9V460.4ZM322.9 461.1C317.6 462.1 313.9 464 310.4 465.9L317.2 434.1C320 434.7 322.8 435.1 325.6 435.4L322.9 461.1ZM308.8 466.7C305.1 468.6 301 470.5 294.9 471.2L307.7 431.6C310.3 432.4 313.1 433.1 315.8 433.7L308.8 466.7ZM293.3 471.4C292 471.5 290.7 471.6 289.2 471.6C285.3 471.6 282.2 471.2 279.5 470.6L298.4 428.2C301 429.3 303.7 430.4 306.4 431.3L293.3 471.4ZM278.1 470.2C274.2 469.1 271.3 467.6 268.4 466C267.6 465.6 266.8 465.2 266 464.8L289.6 423.8C292 425.2 294.5 426.4 297.1 427.6L278.1 470.2ZM417 460.3C412.6 460.3 409.1 460.8 406.1 461.5L383.7 422.8C386.1 421.4 388.4 419.8 390.7 418.2L421.4 460.5C420 460.3 418.6 460.3 417 460.3ZM288.4 423.1L264.7 464.2C261 462.4 256.8 460.9 250.7 460.5L281.2 418.5C283.6 420.1 286 421.6 288.4 423.1ZM234.7 488.3C234.9 488.2 235.1 488.2 235.3 488.1C235.6 488 235.9 487.9 236.1 487.9C236.3 487.8 236.5 487.8 236.7 487.7C237 487.6 237.3 487.6 237.6 487.5C237.8 487.5 238 487.4 238.3 487.4C238.6 487.3 238.9 487.3 239.2 487.2C239.4 487.2 239.6 487.1 239.9 487.1C240.2 487.1 240.5 487 240.8 487C241 487 241.3 486.9 241.5 486.9C241.8 486.9 242.2 486.8 242.5 486.8C242.7 486.8 242.9 486.8 243.2 486.7C243.6 486.7 244 486.7 244.3 486.6C244.5 486.6 244.7 486.6 244.9 486.6C245.5 486.6 246.1 486.6 246.7 486.6C257.1 486.6 262.4 489.4 267.6 492.1C272.9 494.9 278.4 497.8 289.3 497.8C300.2 497.8 305.7 494.9 311 492.1C316.1 489.4 321.4 486.6 331.9 486.6C333.2 486.6 334.4 486.6 335.6 486.7C343.7 487.3 348.3 489.7 352.8 492.1C358.1 494.9 363.6 497.8 374.5 497.8C378.6 497.8 381.9 497.4 384.7 496.7C389.4 495.6 392.8 493.8 396.2 492C401.3 489.3 406.6 486.5 417.1 486.5C417.6 486.5 418.1 486.5 418.6 486.5C418.8 486.5 418.9 486.5 419.1 486.5C419.4 486.5 419.8 486.5 420.1 486.5C420.3 486.5 420.5 486.5 420.7 486.5C421 486.5 421.3 486.5 421.5 486.6C421.7 486.6 421.9 486.6 422.1 486.7C422.4 486.7 422.6 486.8 422.9 486.8C423.1 486.8 423.3 486.8 423.5 486.9C423.7 486.9 424 487 424.2 487C424.4 487 424.6 487.1 424.7 487.1C424.9 487.1 425.1 487.2 425.4 487.2C425.6 487.2 425.7 487.3 425.9 487.3C426.1 487.3 426.3 487.4 426.5 487.4C426.7 487.4 426.8 487.5 427 487.5C427.2 487.5 427.4 487.6 427.6 487.6C427.8 487.6 427.9 487.7 428.1 487.7C428.3 487.8 428.5 487.8 428.7 487.9C428.9 487.9 429 488 429.2 488C429.4 488.1 429.6 488.1 429.8 488.2C429.9 488.2 430.1 488.3 430.2 488.3C430.4 488.4 430.6 488.4 430.7 488.5C430.8 488.5 431 488.6 431.1 488.6C431.3 488.7 431.4 488.7 431.6 488.8C431.7 488.8 431.9 488.9 432 488.9C432.2 489 432.3 489 432.5 489.1C432.6 489.1 432.7 489.2 432.9 489.2C433.1 489.3 433.2 489.4 433.4 489.4C433.5 489.4 433.6 489.5 433.7 489.5C433.9 489.6 434.1 489.7 434.2 489.8C434.3 489.8 434.4 489.9 434.5 489.9C434.5 489.9 434.5 489.9 434.6 489.9C430.9 492.4 427 494.7 423 497C422.8 497 422.5 497 422.3 496.9C422.1 496.9 421.9 496.9 421.6 496.8C421.3 496.8 421.1 496.8 420.8 496.7C420.6 496.7 420.4 496.7 420.2 496.7C419.9 496.7 419.6 496.7 419.3 496.7C419.1 496.7 418.9 496.7 418.8 496.7C418.3 496.7 417.8 496.7 417.3 496.7C413.2 496.7 409.9 497.1 407.1 497.8C402.4 498.9 399 500.7 395.6 502.5C390.5 505.2 385.2 508 374.7 508C373.4 508 372.2 508 371 507.9C362.9 507.3 358.3 504.9 353.8 502.5C348.5 499.7 343 496.8 332.1 496.8C321.2 496.8 315.7 499.7 310.4 502.5C305.3 505.2 300 508 289.5 508C279.1 508 273.8 505.2 268.6 502.5C268 502.2 267.3 501.8 266.7 501.5C266.7 501.5 266.7 501.5 266.6 501.5C266.3 501.3 266 501.2 265.7 501C265.6 500.9 265.4 500.9 265.3 500.8C265.1 500.7 264.9 500.6 264.7 500.5C264.6 500.4 264.4 500.4 264.3 500.3C264.1 500.2 263.9 500.1 263.7 500C263.5 499.9 263.4 499.9 263.2 499.8C263 499.7 262.8 499.6 262.6 499.6C262.4 499.5 262.2 499.4 262 499.4C261.8 499.3 261.7 499.3 261.5 499.2C261.3 499.1 261.1 499 260.9 499C260.7 498.9 260.6 498.9 260.4 498.8C260.2 498.7 259.9 498.7 259.7 498.6C259.5 498.5 259.4 498.5 259.2 498.4C259 498.3 258.7 498.3 258.5 498.2C258.3 498.1 258.1 498.1 257.9 498C257.7 497.9 257.4 497.9 257.2 497.8C257 497.8 256.8 497.7 256.6 497.7C256.3 497.6 256.1 497.6 255.8 497.5C255.6 497.5 255.4 497.4 255.2 497.4C254.9 497.4 254.7 497.3 254.4 497.3C254.2 497.3 254 497.2 253.7 497.2C253.4 497.2 253.1 497.1 252.8 497.1C252.6 497.1 252.3 497 252.1 497C251.8 497 251.5 496.9 251.2 496.9C251 496.9 250.7 496.9 250.5 496.8C250.2 496.8 249.8 496.8 249.5 496.8C249.2 496.8 249 496.8 248.8 496.8C244 494.1 239.3 491.1 234.8 488C234.5 488.4 234.6 488.4 234.7 488.3ZM212.4 471.8L213 472.4L213.2 472.6C216 475.2 218.8 477.7 221.7 480.1L222.1 480.4C222.2 480.4 222.2 480.5 222.3 480.5L222.5 480.7L223 481.1L223.2 481.3C225.9 483.5 228.7 485.6 231.4 487.5L232.1 488L232.3 488.1C232.4 488.2 232.5 488.3 232.6 488.3L233.2 488.7C237.5 491.7 241.9 494.5 246.4 497.1L248 498L249.8 499C255.1 501.9 260.4 504.5 265.9 506.8V506.9C245.6 498.3 227.3 486.1 211.6 471L212.4 471.8ZM463.4 471.6L482.1 490.3L458.2 476.5C459.9 475 461.6 473.3 463.4 471.6ZM483.4 487.8L465.3 469.7C466.9 468 468.5 466.4 470.1 464.7L483.4 487.8ZM465.4 214.5L484 195.9L470.3 219.7C468.7 218 467.1 216.2 465.4 214.5ZM482.1 193.9L463.4 212.6C461.7 210.9 460 209.3 458.2 207.7L482.1 193.9ZM208.3 212.5L189.5 193.7L213.5 207.5C211.8 209.1 210 210.8 208.3 212.5ZM199.5 221.7C186.4 236.5 176 253.1 168.3 271.3C159 293.3 154.2 316.6 154 340.6H118.4C118.8 283.6 140.9 230.1 180.9 189.5L199.5 221.7ZM206.3 469.6L187.4 488.5L201.3 464.4C202.9 466.1 204.6 467.9 206.3 469.6ZM189.8 489.9L208.2 471.5C209.9 473.2 211.6 474.8 213.3 476.4L189.8 489.9ZM420.2 542.5L406.6 509.6C424.7 501.9 441.3 491.5 456 478.5L488.2 497C468.3 516.6 445.3 531.9 420.2 542.5ZM490.5 494.7L472 462.5C485.1 447.7 495.6 431 503.4 412.8C512.7 390.8 517.5 367.5 517.7 343.5H553.2C552.8 400.6 530.6 454.1 490.5 494.7ZM553.2 340.8H517.7C517.5 316.7 512.7 293.3 503.4 271.3C495.7 253.2 485.3 236.6 472.3 221.9L490.8 189.7C530.7 230.3 552.8 283.8 553.2 340.8ZM488.4 187.2L456.2 205.7C441.5 192.7 424.9 182.2 406.8 174.5L420.4 141.6C445.4 152.3 468.4 167.6 488.4 187.2ZM335.8 124.7C364.4 124.7 392.1 130.2 417.9 140.7L404.3 173.6C382.6 164.8 359.6 160.3 335.9 160.3C312.3 160.3 289.3 164.8 267.7 173.6L254.1 140.7C279.6 130.1 307.3 124.7 335.8 124.7ZM251.4 141.6L265 174.5C246.9 182.2 230.3 192.6 215.6 205.6L183.4 187C203.4 167.4 226.4 152.1 251.4 141.6ZM118.4 343.3H154C154.2 367.4 159 390.8 168.3 412.8C176 430.9 186.4 447.4 199.3 462.1L180.7 494.4C140.8 453.8 118.7 400.3 118.4 343.3ZM183.2 496.9L215.5 478.3C230.2 491.3 246.8 501.8 264.9 509.5L251.3 542.4C226.2 531.9 203.1 516.5 183.2 496.9Z" fill="#F2B151"/>
<path d="M528.3 420.9H524.8C524.2 417.7 521.3 415.3 518 415.3C514.6 415.3 511.8 417.7 511.2 420.9H507.7C506.9 420.9 506.3 421.5 506.3 422.3C506.3 423.1 506.9 423.7 507.7 423.7H511.2C511.8 426.9 514.7 429.3 518 429.3C521.4 429.3 524.2 426.9 524.8 423.7H528.3C529.1 423.7 529.7 423.1 529.7 422.3C529.7 421.6 529.1 420.9 528.3 420.9ZM518 426.6C515.7 426.6 513.8 424.7 513.8 422.4C513.8 420.1 515.7 418.2 518 418.2C520.3 418.2 522.2 420.1 522.2 422.4C522.2 424.7 520.3 426.6 518 426.6Z" fill="#F2B151"/>
<path d="M328.5 138.7C328.6 141.1 330.4 143 332.6 143H334.6V146.3C333 146.9 331.9 148.4 331.9 150.1C331.9 152.3 333.7 154.2 336 154.2C338.3 154.2 340.1 152.4 340.1 150.1C340.1 148.3 339 146.9 337.4 146.3V143H339.4C341.6 143 343.4 141.1 343.5 138.7C345.1 138.1 346.2 136.6 346.2 134.9C346.2 132.7 344.4 130.8 342.1 130.8C339.9 130.8 338 132.6 338 134.9C338 136.7 339.1 138.1 340.7 138.7C340.6 139.6 340.1 140.3 339.4 140.3H332.6C331.9 140.3 331.3 139.6 331.3 138.7C332.9 138.1 334 136.6 334 134.9C334 132.7 332.2 130.8 329.9 130.8C327.6 130.8 325.8 132.6 325.8 134.9C325.8 136.7 326.9 138.1 328.5 138.7ZM335.9 151.4C335.2 151.4 334.6 150.8 334.6 150.1C334.6 149.4 335.2 148.8 335.9 148.8C336.6 148.8 337.2 149.4 337.2 150.1C337.2 150.8 336.6 151.4 335.9 151.4ZM342 133.6C342.7 133.6 343.3 134.2 343.3 134.9C343.3 135.6 342.7 136.2 342 136.2C341.3 136.2 340.7 135.6 340.7 134.9C340.6 134.2 341.2 133.6 342 133.6ZM329.8 133.6C330.5 133.6 331.1 134.2 331.1 134.9C331.1 135.6 330.5 136.2 329.8 136.2C329.1 136.2 328.5 135.6 328.5 134.9C328.5 134.2 329.1 133.6 329.8 133.6Z" fill="#F2B151"/>
<path d="M347.1 544.9V537C347.1 534.2 344.9 531.9 342.1 531.8L342.5 531.3C343 530.8 343 529.9 342.5 529.4C342 528.9 341.1 528.9 340.6 529.4L337.2 532.8C337 530.7 335.3 529 333.1 529C330.8 529 329 530.9 329 533.1C329 534.9 330.2 536.4 331.8 537V544.8C330.2 545.4 329 546.9 329 548.7C329 551 330.9 552.8 333.1 552.8C335.3 552.8 337.2 550.9 337.2 548.7C337.2 546.9 336 545.4 334.4 544.8V537C335.9 536.5 337 535.1 337.1 533.4L340.5 536.8C340.8 537.1 341.1 537.2 341.5 537.2C341.8 537.2 342.2 537.1 342.5 536.8C343 536.3 343 535.4 342.5 534.9L342.1 534.5C343.4 534.6 344.4 535.7 344.4 536.9V544.8C342.8 545.4 341.6 546.9 341.6 548.7C341.6 551 343.5 552.8 345.7 552.8C348 552.8 349.8 550.9 349.8 548.7C349.8 547 348.7 545.5 347.1 544.9ZM334.5 548.8C334.5 549.6 333.9 550.2 333.1 550.2C332.3 550.2 331.7 549.6 331.7 548.8C331.7 548 332.3 547.4 333.1 547.4C333.9 547.4 334.5 548 334.5 548.8ZM333.1 534.6C332.3 534.6 331.7 534 331.7 533.2C331.7 532.4 332.3 531.8 333.1 531.8C333.9 531.8 334.5 532.4 334.5 533.2C334.5 534 333.8 534.6 333.1 534.6ZM345.7 550.2C344.9 550.2 344.3 549.6 344.3 548.8C344.3 548 344.9 547.4 345.7 547.4C346.5 547.4 347.1 548 347.1 548.8C347.1 549.6 346.5 550.2 345.7 550.2Z" fill="#F2B151"/>
<path d="M512 265.3C510.4 265.9 509.2 267.4 509.2 269.2C509.2 271.5 511.1 273.3 513.3 273.3C515.5 273.3 517.4 271.4 517.4 269.2C517.4 267.4 516.2 265.9 514.6 265.3V264.9C514.6 263.7 515.6 262.7 516.8 262.7H519.7C522.4 262.7 524.6 260.5 524.6 257.8V257.4C526.2 256.8 527.4 255.3 527.4 253.5C527.4 251.2 525.5 249.4 523.3 249.4C521 249.4 519.2 251.3 519.2 253.5C519.2 255.3 520.4 256.8 522 257.4V257.8C522 259 521 260 519.8 260H516.9C516.1 260 515.4 260.2 514.7 260.5V257.4C516.3 256.8 517.5 255.3 517.5 253.5C517.5 251.2 515.6 249.4 513.4 249.4C511.2 249.4 509.3 251.3 509.3 253.5C509.3 255.3 510.5 256.8 512.1 257.4V265.3H512ZM523.3 252.2C524.1 252.2 524.7 252.8 524.7 253.6C524.7 254.4 524.1 255 523.3 255C522.5 255 521.9 254.4 521.9 253.6C521.9 252.8 522.5 252.2 523.3 252.2ZM513.4 270.6C512.6 270.6 512 270 512 269.2C512 268.4 512.6 267.8 513.4 267.8C514.2 267.8 514.8 268.4 514.8 269.2C514.8 270 514.1 270.6 513.4 270.6ZM513.4 252.2C514.2 252.2 514.8 252.8 514.8 253.6C514.8 254.4 514.2 255 513.4 255C512.6 255 512 254.4 512 253.6C512 252.8 512.6 252.2 513.4 252.2Z" fill="#F2B151"/>
<path d="M147.2 257.5V265.3C145.6 265.9 144.4 267.4 144.4 269.2C144.4 271.5 146.3 273.3 148.5 273.3C150.8 273.3 152.6 271.4 152.6 269.2C152.6 267.4 151.4 265.9 149.8 265.3V262.5C151.4 264.1 153.5 265.1 155.9 265.4C156.4 267 158 268.2 159.8 268.2C162.1 268.2 163.9 266.3 163.9 264.1C163.9 261.9 162 260 159.8 260C158 260 156.5 261.1 155.9 262.7C152.9 262.3 150.6 260.3 150 257.5C151.5 256.9 152.6 255.4 152.6 253.7C152.6 251.4 150.7 249.6 148.5 249.6C146.2 249.6 144.4 251.5 144.4 253.7C144.4 255.4 145.6 256.9 147.2 257.5ZM159.9 262.6C160.7 262.6 161.3 263.2 161.3 264C161.3 264.8 160.7 265.4 159.9 265.4C159.1 265.4 158.5 264.8 158.5 264C158.5 263.2 159.1 262.6 159.9 262.6ZM148.5 270.6C147.7 270.6 147.1 270 147.1 269.2C147.1 268.4 147.7 267.8 148.5 267.8C149.3 267.8 149.9 268.4 149.9 269.2C149.9 270 149.3 270.6 148.5 270.6ZM148.5 252.2C149.3 252.2 149.9 252.8 149.9 253.6C149.9 254.4 149.3 255 148.5 255C147.7 255 147.1 254.4 147.1 253.6C147.1 252.8 147.8 252.2 148.5 252.2Z" fill="#F2B151"/>
<path d="M160.4 421.8V413.9C160.4 411.1 158.2 408.8 155.4 408.7L155.8 408.2C156.3 407.7 156.3 406.8 155.8 406.3C155.3 405.8 154.4 405.8 153.9 406.3L150.2 410L153.9 413.7C154.2 414 154.5 414.1 154.9 414.1C155.2 414.1 155.6 414 155.9 413.7C156.4 413.2 156.4 412.3 155.9 411.8L155.5 411.4C156.8 411.5 157.8 412.6 157.8 413.8V421.7C156.2 422.3 155 423.8 155 425.6C155 427.9 156.9 429.7 159.1 429.7C161.3 429.7 163.2 427.8 163.2 425.6C163.2 423.8 162 422.3 160.4 421.8ZM159 427C158.2 427 157.6 426.4 157.6 425.6C157.6 424.8 158.2 424.2 159 424.2C159.8 424.2 160.4 424.8 160.4 425.6C160.4 426.4 159.8 427 159 427Z" fill="#F2B151"/>
<path d="M147.9 421.9C147.4 422.4 147.4 423.3 147.9 423.8L148.3 424.2C147 424.1 146 423 146 421.8V413.9C147.6 413.3 148.8 411.8 148.8 410C148.8 407.7 146.9 405.9 144.7 405.9C142.4 405.9 140.6 407.8 140.6 410C140.6 411.8 141.8 413.3 143.4 413.9V421.8C143.4 424.6 145.6 426.9 148.4 427L148 427.5C147.5 428 147.5 428.9 148 429.4C148.3 429.7 148.6 429.8 149 429.8C149.4 429.8 149.7 429.7 150 429.4L153.7 425.7L150 422C149.3 421.4 148.4 421.4 147.9 421.9ZM144.7 408.6C145.5 408.6 146.1 409.2 146.1 410C146.1 410.8 145.5 411.4 144.7 411.4C143.9 411.4 143.3 410.8 143.3 410C143.3 409.2 143.9 408.6 144.7 408.6Z" fill="#F2B151"/>
<path d="M105.3 485.6C105.2 485.3 104.9 485.1 104.5 485.1H97.4C96.9 485.1 96.6 485.5 96.6 485.9C96.6 486 96.6 486 96.6 486.1C98.5 493.7 105.4 499.3 113.6 499.3C123.3 499.3 131.2 491.4 131.2 481.7C131.2 472 123.3 464.1 113.6 464.1C105.4 464.1 98.5 469.7 96.6 477.3C96.6 477.4 96.6 477.4 96.6 477.5C96.6 478 97 478.3 97.4 478.3H104.5C104.8 478.3 105.1 478.1 105.3 477.8C106.8 474.6 110 472.4 113.7 472.4C118.8 472.4 122.9 476.5 122.9 481.6C122.9 486.7 118.8 490.8 113.7 490.8C110 491 106.8 488.8 105.3 485.6Z" fill="#F2B151"/>
<path d="M117.9 481.8C117.9 479.5 116 477.6 113.7 477.6C111.4 477.6 109.5 479.5 109.5 481.8C109.5 484.1 111.4 486 113.7 486C116 486 117.9 484.1 117.9 481.8Z" fill="#F2B151"/>
<path d="M563.4 481.8C563.4 479.5 561.5 477.6 559.2 477.6C556.9 477.6 555 479.5 555 481.8C555 484.1 556.9 486 559.2 486C561.5 486 563.4 484.1 563.4 481.8Z" fill="#F2B151"/>
<path d="M550.8 485.6C550.7 485.3 550.4 485.1 550 485.1H542.9C542.4 485.1 542.1 485.5 542.1 485.9C542.1 486 542.1 486 542.1 486.1C544 493.7 550.9 499.3 559.1 499.3C568.8 499.3 576.7 491.4 576.7 481.7C576.7 472 568.8 464.1 559.1 464.1C550.9 464.1 544 469.7 542.1 477.3C542.1 477.4 542.1 477.4 542.1 477.5C542.1 478 542.5 478.3 542.9 478.3H550C550.3 478.3 550.6 478.1 550.8 477.8C552.3 474.6 555.5 472.4 559.2 472.4C564.3 472.4 568.4 476.5 568.4 481.6C568.4 486.7 564.3 490.8 559.2 490.8C555.4 491 552.2 488.8 550.8 485.6Z" fill="#F2B151"/>
<path d="M327.2 81.5C327.1 81.2 326.8 81 326.4 81H319.3C318.8 81 318.5 81.4 318.5 81.8C318.5 81.9 318.5 81.9 318.5 82C320.4 89.6 327.3 95.2 335.5 95.2C345.2 95.2 353.1 87.3 353.1 77.6C353.1 67.9 345.2 60 335.5 60C327.3 60 320.4 65.6 318.5 73.2C318.5 73.3 318.5 73.3 318.5 73.4C318.5 73.9 318.9 74.2 319.3 74.2H326.4C326.7 74.2 327 74 327.2 73.7C328.7 70.5 331.9 68.3 335.6 68.3C340.7 68.3 344.8 72.4 344.8 77.5C344.8 82.6 340.7 86.7 335.6 86.7C331.9 86.9 328.7 84.7 327.2 81.5Z" fill="#F2B151"/>
<path d="M339.8 77.7C339.8 75.4 337.9 73.5 335.6 73.5C333.3 73.5 331.4 75.4 331.4 77.7C331.4 80 333.3 81.9 335.6 81.9C337.9 81.9 339.8 80 339.8 77.7Z" fill="#F2B151"/>
<path d="M94.0802 219.983L88.282 225.781L94.0802 231.579L99.8784 225.781L94.0802 219.983Z" fill="#F2B151"/>
<path d="M604.381 386.927L598.583 392.725L604.381 398.524L610.179 392.725L604.381 386.927Z" fill="#F2B151"/>
<path d="M483.024 574.753L478.569 579.208L483.024 583.662L487.478 579.208L483.024 574.753Z" fill="#F2B151"/>
<path d="M225.861 104.615L220.275 110.201L225.861 115.787L231.447 110.201L225.861 104.615Z" fill="#F2B151"/>
<path d="M598.547 275.585L590.203 283.929L598.547 292.272L606.891 283.929L598.547 275.585Z" fill="#F2B151"/>
<path d="M58.9 312.2C60.7225 312.2 62.2 310.723 62.2 308.9C62.2 307.078 60.7225 305.6 58.9 305.6C57.0774 305.6 55.6 307.078 55.6 308.9C55.6 310.723 57.0774 312.2 58.9 312.2Z" fill="#F2B151"/>
<path d="M576.8 224.4C578.623 224.4 580.1 222.922 580.1 221.1C580.1 219.277 578.623 217.8 576.8 217.8C574.977 217.8 573.5 219.277 573.5 221.1C573.5 222.922 574.977 224.4 576.8 224.4Z" fill="#F2B151"/>
<path d="M83.3 288.4C84.2389 288.4 85 287.639 85 286.7C85 285.761 84.2389 285 83.3 285C82.3611 285 81.6 285.761 81.6 286.7C81.6 287.639 82.3611 288.4 83.3 288.4Z" fill="#F2B151"/>
<path d="M337.2 629.6C338.2 629 338.9 627.8 338.9 626.5C338.9 625.2 338.2 624.1 337.2 623.4C336.6 623 336 622.8 335.3 622.8C335 622.8 334.8 622.8 334.5 622.9C332.9 623.3 331.7 624.7 331.7 626.4C331.7 628.1 332.9 629.6 334.5 629.9C334.8 630 335 630 335.3 630C335.9 630.2 336.6 630 337.2 629.6Z" fill="#F2B151"/>
<path d="M465.2 110.5C465.8 112.9 467.9 114.6 470.5 114.6C473.1 114.6 475.2 112.9 475.8 110.5H477.3C478.1 110.5 478.7 109.9 478.7 109.1C478.7 108.3 478.1 107.7 477.3 107.7H475.8C475.2 105.3 473.1 103.6 470.5 103.6C467.9 103.6 465.8 105.3 465.2 107.7H463.7C462.9 107.7 462.3 108.3 462.3 109.1C462.3 109.9 462.9 110.5 463.7 110.5H465.2ZM470.5 106.4C472 106.4 473.2 107.6 473.2 109.1C473.2 110.6 472 111.8 470.5 111.8C469 111.8 467.8 110.6 467.8 109.1C467.8 107.6 469 106.4 470.5 106.4Z" fill="#F2B151"/>
<path d="M194.8 568.6H196.8C197.4 571.3 199.9 573.3 202.8 573.3C205.7 573.3 208.1 571.3 208.8 568.6H210.8C211.6 568.6 212.2 568 212.2 567.2C212.2 566.4 211.6 565.8 210.8 565.8H208.8C208.2 563.1 205.7 561.1 202.8 561.1C199.9 561.1 197.5 563.1 196.8 565.8H194.8C194 565.8 193.4 566.4 193.4 567.2C193.5 568 194.1 568.6 194.8 568.6ZM206.1 567.2C206.1 569.1 204.6 570.6 202.7 570.6C200.8 570.6 199.3 569.1 199.3 567.2C199.3 565.3 200.8 563.8 202.7 563.8C204.6 563.8 206.1 565.3 206.1 567.2Z" fill="#F2B151"/>
<path d="M240.2 84.6999C240.2 83.0999 238.9 81.8999 237.4 81.8999C235.8 81.8999 234.6 83.1999 234.6 84.6999C234.6 86.2999 235.9 87.4999 237.4 87.4999C239 87.5999 240.2 86.2999 240.2 84.6999Z" fill="#F2B151"/>
<path d="M72.2 386.2C72.2 384.6 70.9 383.4 69.4 383.4C67.8 383.4 66.6 384.7 66.6 386.2C66.6 387.7 67.9 389 69.4 389C70.9 389 72.2 387.7 72.2 386.2Z" fill="#F2B151"/>
<path d="M250.6 606.9C250.6 608.5 251.9 609.7 253.4 609.7C255 609.7 256.2 608.4 256.2 606.9C256.2 605.3 254.9 604.1 253.4 604.1C251.9 604 250.6 605.3 250.6 606.9Z" fill="#F2B151"/>
<path d="M596.1 340.7C595.6 340.1 594.8 339.7 593.9 339.7C593 339.7 592.3 340.1 591.7 340.7C591.3 341.2 591 341.8 591 342.5C591 342.8 591.1 343.1 591.2 343.4C591.6 344.5 592.6 345.3 593.9 345.3C595.2 345.3 596.2 344.5 596.6 343.4C596.7 343.1 596.8 342.8 596.8 342.5C596.7 341.8 596.5 341.2 596.1 340.7Z" fill="#F2B151"/>
<path d="M385.1 581.9C385.1 584.1 386.9 585.9 389.1 585.9C391.3 585.9 393.1 584.1 393.1 581.9C393.1 579.7 391.3 577.9 389.1 577.9C386.9 577.9 385.1 579.7 385.1 581.9Z" fill="#F2B151"/>
</svg>
